<svg xmlns="http://www.w3.org/2000/svg" xmlns:xlink="http://www.w3.org/1999/xlink" version="1.1" x="0px" y="0px" width="218px" height="218px" viewBox="0 0 218 218" enable-background="new 0 0 218 218" xml:space="preserve"><g display="none"/><g display="none"><path display="inline" fill-rule="evenodd" clip-rule="evenodd" fill="#EFEEEE" d="M217.5 108.95c0 29.833-10.533 55.399-31.6 76.7 -0.7 0.833-1.484 1.6-2.351 2.3 -3.466 3.399-7.134 6.483-11 9.25 -18.267 13.467-39.366 20.2-63.3 20.2 -23.967 0-45.033-6.733-63.2-20.2 -4.8-3.4-9.3-7.25-13.5-11.55 -16.367-16.267-26.417-35.167-30.15-56.7 -0.733-4.2-1.217-8.467-1.45-12.8 -0.1-2.4-0.15-4.801-0.15-7.2 0-2.534 0.05-4.95 0.15-7.25 0-0.233 0.066-0.467 0.2-0.7 1.567-26.6 12.033-49.583 31.4-68.95C53.85 11.017 79.417 0.5 109.25 0.5c29.934 0 55.483 10.517 76.65 31.55C206.967 53.483 217.5 79.117 217.5 108.95z"/></g><polygon fill-rule="evenodd" clip-rule="evenodd" fill="#010101" points="134.724 60.365 129.7 63.282 129.7 69.117 134.724 72.034 139.802 69.116 139.802 63.282 "/><polygon fill-rule="evenodd" clip-rule="evenodd" fill="#010101" points="139.157 74.994 142.869 71.227 140.087 69.611 135.008 72.529 135.008 78.362 140.087 81.28 143.517 79.289 "/><polygon fill-rule="evenodd" clip-rule="evenodd" fill="#010101" points="145.396 60.366 140.373 63.282 140.373 69.117 143.283 70.807 150.418 63.566 150.418 63.282 "/><polygon fill-rule="evenodd" clip-rule="evenodd" fill="#010101" points="129.415 69.611 124.392 72.528 124.392 78.363 129.415 81.28 134.438 78.363 134.438 72.528 "/><polygon fill-rule="evenodd" clip-rule="evenodd" fill="#010101" points="124.106 60.366 119.084 63.282 119.084 69.117 124.106 72.034 129.129 69.117 129.129 63.282 "/><polygon fill-rule="evenodd" clip-rule="evenodd" fill="#010101" points="113.49 60.366 108.468 63.282 108.468 69.117 113.49 72.034 118.513 69.117 118.513 63.282 "/><path fill-rule="evenodd" clip-rule="evenodd" fill="#010101" d="M113.49 78.857l-0.479 0.278c0.423 0.05 0.843 0.109 1.259 0.176L113.49 78.857z"/><path fill-rule="evenodd" clip-rule="evenodd" fill="#010101" d="M123.821 72.528l-5.022-2.917 -5.023 2.917v5.835l2.188 1.27c-0.001 0-0.003 0-0.004 0 1.372 0.303 2.705 0.701 3.998 1.195 -0.076-0.029-0.152-0.059-0.229-0.087l4.093-2.377V72.528z"/><polygon fill-rule="evenodd" clip-rule="evenodd" fill="#010101" points="150.703 51.175 145.681 54.037 145.681 59.871 150.703 62.787 151.831 62.132 155.726 58.18 155.726 54.037 "/><polygon fill-rule="evenodd" clip-rule="evenodd" fill="#010101" points="182.551 32.684 177.528 35.6 177.528 40.433 184.392 33.753 "/><polygon fill-rule="evenodd" clip-rule="evenodd" fill="#010101" points="163.429 163.159 166.342 166.172 166.342 164.819 "/><polygon fill-rule="evenodd" clip-rule="evenodd" fill="#010101" points="182.551 51.175 177.528 54.037 177.528 59.871 178.193 60.257 185.561 52.89 "/><path fill-rule="evenodd" clip-rule="evenodd" fill="#010101" d="M175 157.7c-5.063-6.93-8.862-14.367-11.396-22.313 0.053 0.166 0.105 0.33 0.159 0.495l-2.159 1.254v5.836l5.022 2.916 0.941-0.546c0.083 0.172 0.166 0.343 0.25 0.515l-0.906 0.525v5.836l5.023 2.916 0.91-0.528c0.105 0.159 0.211 0.316 0.317 0.476l-0.942 0.547v5.834l5.022 2.862 2.8-1.596L175 157.7z"/><polygon fill-rule="evenodd" clip-rule="evenodd" fill="#010101" points="145.681 151.549 145.681 152.219 147.293 153.155 "/><polygon fill-rule="evenodd" clip-rule="evenodd" fill="#010101" points="157.737 153.715 159.54 155.54 157.05 158 157.769 157.305 161.034 160.683 161.034 155.629 "/><polygon fill-rule="evenodd" clip-rule="evenodd" fill="#010101" points="164.581 53.033 161.319 51.175 156.297 54.037 156.297 57.981 157.888 59.548 157.901 59.535 158.597 60.247 157.902 59.533 "/><polygon fill-rule="evenodd" clip-rule="evenodd" fill="#010101" points="158.808 42.894 161.319 44.352 166.342 41.436 166.342 35.6 166.202 35.519 166.62 35.102 166.627 35.106 171.65 32.19 171.65 30.085 172.173 29.564 "/><polygon fill-rule="evenodd" clip-rule="evenodd" fill="#010101" points="186.188 34.796 178.68 42.104 182.551 44.352 187.573 41.436 187.573 35.6 "/><polygon fill-rule="evenodd" clip-rule="evenodd" fill="#010101" points="171.936 32.684 166.912 35.6 166.912 41.436 171.936 44.352 175.817 42.098 176.958 40.988 176.958 35.6 "/><path fill-rule="evenodd" clip-rule="evenodd" fill="#010101" d="M113.205 72.528l-5.022-2.917 -5.022 2.917v5.835l1.447 0.84c-0.001 0-0.002 0-0.002 0 1.457-0.202 2.955-0.304 4.495-0.304 1.005 0 1.991 0.045 2.961 0.13 -0.002 0-0.003 0-0.004 0l1.148-0.667V72.528z"/><polygon fill-rule="evenodd" clip-rule="evenodd" fill="#010101" points="71.026 97.292 66.004 100.209 66.004 106.044 71.026 108.961 76.049 106.044 76.049 100.209 "/><polygon fill-rule="evenodd" clip-rule="evenodd" fill="#010101" points="65.718 106.539 60.639 109.457 60.639 115.29 65.718 118.208 70.741 115.291 70.741 109.456 "/><polygon fill-rule="evenodd" clip-rule="evenodd" fill="#010101" points="71.026 115.785 66.004 118.702 66.004 124.535 71.026 127.397 76.049 124.535 76.049 118.702 "/><path fill-rule="evenodd" clip-rule="evenodd" fill="#010101" d="M79.5 114.5c-0.2-1.166-0.333-2.35-0.4-3.55 -0.033-0.667-0.05-1.333-0.05-2 0-0.456 0.019-0.875 0.033-1.302 -0.004 0.159-0.009 0.318-0.012 0.479l-2.735-1.588 -5.023 2.917v5.835l5.023 2.916 3.52-2.043c0.001 0.006 0.002 0.011 0.004 0.017C79.728 115.625 79.599 115.069 79.5 114.5z"/><polygon fill-rule="evenodd" clip-rule="evenodd" fill="#010101" points="65.718 125.029 60.639 127.893 60.639 133.725 65.718 136.643 70.741 133.726 70.741 127.892 "/><path fill-rule="evenodd" clip-rule="evenodd" fill="#010101" d="M81.174 97.564l-4.554 2.645v5.835l2.467 1.433c0.006-0.171 0.004-0.36 0.013-0.527 0-0.067 0.017-0.134 0.05-0.2 0.192-3.263 0.87-6.329 2.03-9.199C81.178 97.556 81.176 97.56 81.174 97.564z"/><polygon fill-rule="evenodd" clip-rule="evenodd" fill="#010101" points="71.026 134.221 66.004 137.137 66.004 142.973 69.161 144.806 74.729 139.022 76.049 140.294 76.049 137.137 "/><polygon fill-rule="evenodd" clip-rule="evenodd" fill="#010101" points="65.718 88.102 60.639 90.965 60.639 96.797 65.718 99.715 70.741 96.798 70.741 90.964 "/><path fill-rule="evenodd" clip-rule="evenodd" fill="#010101" d="M60.354 78.857l-5.023 2.917v3.562c-0.007-0.021-0.014-0.043-0.021-0.064 0.298 0.951 0.577 1.909 0.838 2.874 -0.008-0.028-0.015-0.056-0.022-0.084l4.229 2.41 5.079-2.864v-5.832L60.354 78.857z"/><polygon fill-rule="evenodd" clip-rule="evenodd" fill="#010101" points="139.802 137.138 134.724 134.22 129.7 137.137 129.7 142.973 134.724 145.89 138.07 143.967 136.979 142.88 139.802 140.048 "/><polygon fill-rule="evenodd" clip-rule="evenodd" fill="#010101" points="76.335 125.03 71.312 127.892 71.312 133.726 76.335 136.643 81.357 133.726 81.357 127.892 "/><polygon fill-rule="evenodd" clip-rule="evenodd" fill="#010101" points="102.875 60.366 97.852 63.282 97.852 69.117 102.875 72.034 107.897 69.117 107.897 63.282 "/><path fill-rule="evenodd" clip-rule="evenodd" fill="#010101" d="M60.068 78.363v-5.835l-5.023-2.917 -5.022 2.917v0.058c-0.099-0.188-0.199-0.374-0.299-0.561l0.014 0.008 5.022-2.917v-5.835l-5.022-2.916 -5.022 2.916v0.68c-0.121-0.171-0.243-0.342-0.365-0.512 4.843 6.734 8.48 13.96 10.913 21.677 -0.163-0.517-0.329-1.032-0.503-1.545v-1.809l-0.815-0.473c-0.106-0.284-0.214-0.566-0.324-0.849l1.425 0.828L60.068 78.363z"/><polygon fill-rule="evenodd" clip-rule="evenodd" fill="#010101" points="61.124 153.154 60.354 152.712 55.331 155.629 55.331 161.463 56.063 161.88 59.78 158.156 57.979 156.422 "/><path fill-rule="evenodd" clip-rule="evenodd" fill="#010101" d="M99.735 80.313c0.003-0.001 0.007-0.002 0.011-0.004C99.743 80.311 99.739 80.312 99.735 80.313z"/><path fill-rule="evenodd" clip-rule="evenodd" fill="#010101" d="M103.72 79.348l-0.845-0.491 -1.861 1.081c0.906-0.244 1.83-0.444 2.771-0.601C103.763 79.341 103.742 79.345 103.72 79.348z"/><path fill-rule="evenodd" clip-rule="evenodd" fill="#010101" d="M97.566 69.611l-5.022 2.917v5.835l4.844 2.813c-0.076 0.032-0.15 0.067-0.226 0.1 0.439-0.189 0.884-0.368 1.332-0.534l4.095-2.378v-5.835L97.566 69.611z"/><polygon fill-rule="evenodd" clip-rule="evenodd" fill="#010101" points="74.331 80.776 74.129 80.979 73.361 80.213 71.026 78.857 66.004 81.774 66.004 87.608 71.026 90.47 76.049 87.608 76.049 81.774 "/><polygon fill-rule="evenodd" clip-rule="evenodd" fill="#010101" points="44.43 161.957 39.407 164.819 39.407 170.653 44.407 173.558 49.452 168.503 49.452 164.819 "/><polygon fill-rule="evenodd" clip-rule="evenodd" fill="#010101" points="44.715 47.496 44.715 50.68 49.738 53.542 50.399 53.166 "/><polygon fill-rule="evenodd" clip-rule="evenodd" fill="#010101" points="39.155 41.949 39.122 41.93 34.1 44.846 34.1 50.68 39.122 53.542 44.145 50.68 44.145 46.926 "/><polygon fill-rule="evenodd" clip-rule="evenodd" fill="#010101" points="187.859 41.929 182.837 44.846 182.837 50.68 185.979 52.471 185.742 52.708 192.939 45.511 192.939 44.847 "/><polygon fill-rule="evenodd" clip-rule="evenodd" fill="#010101" points="161.319 143.467 156.297 146.383 156.297 152.219 161.319 155.135 166.342 152.219 166.342 146.383 "/><polygon fill-rule="evenodd" clip-rule="evenodd" fill="#010101" points="166.627 152.713 161.604 155.629 161.604 161.272 162.015 161.697 166.627 164.325 171.65 161.463 171.65 155.629 "/><polygon fill-rule="evenodd" clip-rule="evenodd" fill="#010101" points="145.396 78.857 144.886 79.153 144.144 79.907 143.938 79.704 140.373 81.774 140.373 87.608 145.396 90.47 150.418 87.608 150.418 81.774 "/><polygon fill-rule="evenodd" clip-rule="evenodd" fill="#010101" points="150.703 143.467 148.671 144.646 155.521 151.471 153.756 153.241 153.762 153.247 155.54 151.49 155.726 151.678 155.726 146.383 "/><polygon fill-rule="evenodd" clip-rule="evenodd" fill="#010101" points="171.936 161.957 166.912 164.819 166.912 166.762 172.934 172.99 176.958 170.653 176.958 164.819 "/><polygon fill-rule="evenodd" clip-rule="evenodd" fill="#010101" points="159.313 60.952 160.967 62.583 161.319 62.787 166.342 59.871 166.342 54.111 "/><polygon fill-rule="evenodd" clip-rule="evenodd" fill="#010101" points="156.012 78.857 150.989 81.774 150.989 87.608 156.012 90.47 161.034 87.608 161.034 81.774 "/><path fill-rule="evenodd" clip-rule="evenodd" fill="#010101" d="M132.188 89.683c-0.002-0.003-0.005-0.005-0.007-0.008 0.826 0.988 1.577 2.005 2.256 3.052v-1.762L132.188 89.683z"/><polygon fill-rule="evenodd" clip-rule="evenodd" fill="#010101" points="150.703 88.102 145.681 90.964 145.681 96.798 150.703 99.715 155.726 96.798 155.726 90.964 "/><polygon fill-rule="evenodd" clip-rule="evenodd" fill="#010101" points="139.004 106.502 139.005 106.513 139.004 106.502 "/><path fill-rule="evenodd" clip-rule="evenodd" fill="#010101" d="M139.802 100.21l-2.347-1.349c-0.001-0.003-0.002-0.006-0.004-0.01 0.844 2.42 1.357 4.972 1.553 7.651l0.798-0.458V100.21zM140.087 106.539l-1.04 0.598c-0.012-0.209-0.027-0.416-0.042-0.623 0.058 0.802 0.095 1.612 0.095 2.437 0 3.003-0.39 5.849-1.16 8.539 0.041-0.148 0.08-0.297 0.12-0.446l2.027 1.165 5.023-2.917v-5.835L140.087 106.539z"/><polygon fill-rule="evenodd" clip-rule="evenodd" fill="#010101" points="44.43 180.395 39.407 183.311 39.407 189.146 44.43 192.063 48.943 189.441 47.571 190.817 49.452 188.932 49.452 183.311 "/><path fill-rule="evenodd" clip-rule="evenodd" fill="#010101" d="M187.999 183.478c0.021-0.022 0.042-0.044 0.063-0.066C188.041 183.434 188.021 183.455 187.999 183.478z"/><polygon fill-rule="evenodd" clip-rule="evenodd" fill="#010101" points="150.703 125.03 145.681 127.893 145.681 133.726 150.703 136.643 155.726 133.726 155.726 127.893 "/><polygon fill-rule="evenodd" clip-rule="evenodd" fill="#010101" points="166.912 169.64 166.912 170.653 169.146 171.95 "/><path fill-rule="evenodd" clip-rule="evenodd" fill="#010101" d="M180.216 162.902l0.246 0.246 -2.934 1.671v5.834l5.022 2.917 5.022-2.917v-0.412l1.755 1.75 -1.469-0.844 -5.022 2.917v5.835l5.023 2.917 1.595-0.916c1.2-1.314 2.361-2.642 3.484-3.981v-2.326L180.216 162.902z"/><path fill-rule="evenodd" clip-rule="evenodd" fill="#010101" d="M188.145 183.311v0.011c0.008-0.008 0.015-0.016 0.021-0.023L188.145 183.311z"/><polygon fill-rule="evenodd" clip-rule="evenodd" fill="#010101" points="63.821 70.701 60.639 72.529 60.639 78.362 65.718 81.28 70.741 78.363 70.741 77.601 "/><polygon fill-rule="evenodd" clip-rule="evenodd" fill="#010101" points="65.718 51.174 60.639 54.038 60.639 59.871 60.789 59.957 61.871 58.872 65.769 62.758 70.741 59.871 70.741 54.037 "/><path fill-rule="evenodd" clip-rule="evenodd" fill="#010101" d="M31.319 34.132l-1.746 1.014c-0.264 0.283-0.522 0.569-0.782 0.854v5.436l5.023 2.917 4.898-2.845L31.319 34.132z"/><polygon fill-rule="evenodd" clip-rule="evenodd" fill="#010101" points="44.715 192.557 44.715 193.681 47.379 191.01 "/><polygon fill-rule="evenodd" clip-rule="evenodd" fill="#010101" points="156.012 134.221 150.989 137.137 150.989 142.973 156.012 145.889 161.034 142.973 161.034 137.137 "/><polygon fill-rule="evenodd" clip-rule="evenodd" fill="#010101" points="167.349 53.131 171.65 50.68 171.65 48.944 "/><polygon fill-rule="evenodd" clip-rule="evenodd" fill="#010101" points="172.221 44.846 172.221 45.599 174.137 43.733 "/><polygon fill-rule="evenodd" clip-rule="evenodd" fill="#010101" points="160.711 63.094 153.397 70.516 156.012 72.034 161.034 69.117 161.034 63.282 "/><polygon fill-rule="evenodd" clip-rule="evenodd" fill="#010101" points="178.255 42.517 172.221 48.39 172.221 50.68 177.243 53.542 182.266 50.68 182.266 44.846 "/><polygon fill-rule="evenodd" clip-rule="evenodd" fill="#010101" points="171.936 51.175 166.912 54.037 166.912 59.871 171.936 62.787 176.958 59.871 176.958 54.037 "/><polygon fill-rule="evenodd" clip-rule="evenodd" fill="#010101" points="166.627 41.93 161.604 44.847 161.604 50.68 165.007 52.619 171.65 46.153 171.65 44.846 "/><path fill-rule="evenodd" clip-rule="evenodd" fill="#010101" d="M134.724 78.857l-5.023 2.917v5.258c-0.003-0.003-0.006-0.005-0.009-0.008 0.22 0.207 0.441 0.41 0.658 0.625 0.23 0.235 0.449 0.474 0.671 0.713 -0.002-0.002-0.003-0.003-0.005-0.005l3.708 2.113 5.078-2.864v-5.832L134.724 78.857z"/><path fill-rule="evenodd" clip-rule="evenodd" fill="#010101" d="M124.106 78.857l-3.693 2.145c3.143 1.263 6.049 3.093 8.716 5.496v-4.724L124.106 78.857z"/><path fill-rule="evenodd" clip-rule="evenodd" fill="#010101" d="M133.052 127.103c0.055-0.071 0.109-0.143 0.164-0.214 -0.847 1.12-1.78 2.206-2.811 3.252l0.002 0.002 -0.058 0.058c-0.199 0.233-0.416 0.45-0.649 0.649l-0.707 0.707 -0.037-0.037c-0.744 0.669-1.506 1.306-2.306 1.881 -0.504 0.371-1.021 0.71-1.54 1.044 0.079-0.056 0.159-0.109 0.239-0.162l4.065 2.36 5.022-2.917v-5.833L133.052 127.103z"/><polygon fill-rule="evenodd" clip-rule="evenodd" fill="#010101" points="152.983 70.936 145.681 78.347 145.681 78.363 150.703 81.28 155.726 78.363 155.726 72.528 "/><polygon fill-rule="evenodd" clip-rule="evenodd" fill="#010101" points="135.008 93.631 135.008 93.631 135.007 93.629 "/><path fill-rule="evenodd" clip-rule="evenodd" fill="#010101" d="M140.087 88.102l-5.079 2.864v2.666c0.859 1.437 1.576 2.931 2.164 4.477 -0.011-0.028-0.021-0.057-0.031-0.085l2.945 1.693 5.024-2.917v-5.834L140.087 88.102z"/><polygon fill-rule="evenodd" clip-rule="evenodd" fill="#010101" points="145.396 97.292 140.373 100.209 140.373 106.044 145.396 108.961 150.418 106.044 150.418 100.209 "/><path fill-rule="evenodd" clip-rule="evenodd" fill="#010101" d="M137.906 117.613c-0.944 3.243-2.448 6.259-4.515 9.046 0.004-0.005 0.007-0.009 0.011-0.014l1.321 0.753 5.078-2.863v-5.833L137.906 117.613z"/><polygon fill-rule="evenodd" clip-rule="evenodd" fill="#010101" points="150.703 106.539 145.681 109.456 145.681 115.291 150.703 118.207 155.726 115.291 155.726 109.456 "/><polygon fill-rule="evenodd" clip-rule="evenodd" fill="#010101" points="145.396 115.785 140.373 118.702 140.373 124.535 145.396 127.397 150.418 124.535 150.418 118.702 "/><polygon fill-rule="evenodd" clip-rule="evenodd" fill="#010101" points="140.087 125.029 135.008 127.893 135.008 133.725 140.087 136.643 145.11 133.726 145.11 127.892 "/><path fill-rule="evenodd" clip-rule="evenodd" fill="#010101" d="M159.8 110c0-1.027 0.018-2.046 0.051-3.06 -0.005 0.153-0.011 0.306-0.015 0.46l-3.539 2.055v5.835l3.809 2.211c0.019 0.232 0.039 0.464 0.06 0.695l-4.153-2.412 -5.022 2.917v5.833l5.022 2.862 4.976-2.836c0.034 0.199 0.068 0.4 0.104 0.599l-4.794 2.731v5.834l5.022 2.917 2.266-1.315c0.004 0.013 0.008 0.025 0.012 0.038C161.065 127.418 159.8 118.963 159.8 110z"/><path fill-rule="evenodd" clip-rule="evenodd" fill="#010101" d="M169.602 70.966l-2.689 1.562v3.698c-0.068 0.148-0.133 0.297-0.2 0.445 0.96-2.113 2.02-4.185 3.18-6.213C169.795 70.628 169.697 70.796 169.602 70.966zM166.658 76.79c0.018-0.04 0.035-0.08 0.054-0.119C166.693 76.71 166.676 76.75 166.658 76.79zM166.658 76.79c-0.105 0.233-0.213 0.467-0.316 0.702v-4.964l-5.022-2.917 -5.022 2.917v5.835l5.022 2.917 4.523-2.627c-0.121 0.288-0.24 0.579-0.358 0.868l-3.88 2.253v5.834l0.979 0.558c-0.051 0.19-0.102 0.38-0.151 0.571l-1.113-0.635 -5.022 2.862v5.834l4.146 2.408c-0.024 0.206-0.049 0.411-0.073 0.617l-4.358-2.531 -5.022 2.917v5.835l5.022 2.917 3.846-2.233c-0.002 0.037-0.002 0.073-0.004 0.11C160.222 96.019 162.491 86.003 166.658 76.79z"/><path fill-rule="evenodd" clip-rule="evenodd" fill="#010101" d="M172.221 63.282v3.363c-0.192 0.296-0.383 0.591-0.57 0.889v-4.252l-5.023-2.916 -5.022 2.916v5.835l5.022 2.917 3.539-2.055c-0.059 0.102-0.116 0.205-0.175 0.307 0.953-1.657 1.972-3.285 3.059-4.885l4.726-4.726 -0.532-0.309L172.221 63.282z"/><polygon fill-rule="evenodd" clip-rule="evenodd" fill="#010101" points="145.396 134.221 140.373 137.137 140.373 139.475 141.921 137.921 148.253 144.229 150.418 142.973 150.418 137.137 "/><polygon fill-rule="evenodd" clip-rule="evenodd" fill="#010101" points="86.951 69.611 81.928 72.528 81.928 78.363 86.951 81.28 91.973 78.363 91.973 72.528 "/><polygon fill-rule="evenodd" clip-rule="evenodd" fill="#010101" points="172.221 175.131 172.221 179.899 177.243 182.815 178.785 181.92 "/><polygon fill-rule="evenodd" clip-rule="evenodd" fill="#010101" points="177.243 171.147 173.342 173.413 180.566 180.886 182.266 179.899 182.266 174.064 "/><polygon fill-rule="evenodd" clip-rule="evenodd" fill="#010101" points="170.6 173.455 166.627 171.147 161.604 174.064 161.604 179.899 166.627 182.815 171.65 179.899 171.65 174.541 "/><polygon fill-rule="evenodd" clip-rule="evenodd" fill="#010101" points="160.136 162.632 156.297 164.819 156.297 170.653 161.319 173.57 166.342 170.653 166.342 169.05 "/><polygon fill-rule="evenodd" clip-rule="evenodd" fill="#010101" points="156.338 158.703 154.56 160.46 150.989 156.844 150.989 161.463 156.012 164.325 159.727 162.208 "/><path fill-rule="evenodd" clip-rule="evenodd" fill="#010101" d="M195.45 43c-2.051-2.664-4.251-5.266-6.585-7.813l-0.721 0.414v5.833l5.079 2.918 2.084-1.21 -0.755 0.755L195.45 43z"/><path fill-rule="evenodd" clip-rule="evenodd" fill="#010101" d="M158.39 43.311l0.146-0.146L158.1 43.6c-13.934 10.733-30.133 16.1-48.6 16.1 -2.231 0-4.431-0.08-6.598-0.238 0.086 0.006 0.172 0.013 0.258 0.019v0.39l5.022 2.916 5.022-2.916v-0.244c0.19-0.008 0.381-0.016 0.57-0.024v0.269l5.023 2.916 5.022-2.916V58.55c0.19-0.032 0.38-0.064 0.57-0.097v1.418l5.023 2.916 5.022-2.916v-3.853c0.189-0.06 0.381-0.121 0.57-0.182v4.034l5.079 2.917 5.023-2.917v-5.834l-2.209-1.258c0.213-0.097 0.426-0.195 0.638-0.293l1.856 1.058 5.022-2.862v-1.843c0.19-0.114 0.381-0.229 0.571-0.345v2.188l5.022 2.862 5.022-2.862v-5.834L158.39 43.311z"/><path fill-rule="evenodd" clip-rule="evenodd" fill="#010101" d="M177.4 24.35l-5.18 5.166v2.674l5.022 2.916 5.022-2.916v-3.614C180.664 27.105 179.044 25.692 177.4 24.35z"/><path fill-rule="evenodd" clip-rule="evenodd" fill="#010101" d="M61.9 44.35l-2.099-2.099 -4.47 2.595v5.834l5.023 2.863 5.079-2.864v-3.851c0.19 0.125 0.38 0.25 0.571 0.375v3.477l5.022 2.862 3.063-1.745c0.207 0.102 0.415 0.202 0.623 0.302l-3.4 1.938v5.834l5.023 2.916 5.022-2.916v-4.97c0.189 0.069 0.38 0.139 0.571 0.207v4.763l5.022 2.916 5.022-2.916v-1.935c0.191 0.04 0.379 0.079 0.571 0.117v1.818l5.022 2.916 5.023-2.916v-0.432c0.084 0.006 0.168 0.012 0.252 0.019C87.614 58.334 73.967 53.298 61.9 44.35z"/><polygon fill-rule="evenodd" clip-rule="evenodd" fill="#010101" points="193.51 44.846 193.51 44.94 193.733 44.717 "/><path fill-rule="evenodd" clip-rule="evenodd" fill="#010101" d="M185.9 32.05c-1.012-1.011-2.034-1.986-3.063-2.943v3.083l1.979 1.15 1.086-1.057 1.395 1.434 -0.684 0.666 1.246 0.724 0.615-0.354C187.635 33.844 186.777 32.943 185.9 32.05z"/><polygon fill-rule="evenodd" clip-rule="evenodd" fill="#010101" points="108.183 143.467 103.16 146.383 103.16 152.219 108.183 155.135 113.205 152.219 113.205 146.383 "/><path fill-rule="evenodd" clip-rule="evenodd" fill="#010101" d="M109.1 139c-0.341 0-0.671-0.026-1.008-0.036 0.125 0.005 0.25 0.011 0.376 0.014v3.995l5.022 2.916 5.022-2.916v-5.391c0.016-0.005 0.03-0.012 0.046-0.017C115.605 138.52 112.453 139 109.1 139z"/><polygon fill-rule="evenodd" clip-rule="evenodd" fill="#010101" points="118.799 143.467 113.775 146.383 113.775 152.219 118.799 155.135 123.821 152.219 123.821 146.383 "/><path fill-rule="evenodd" clip-rule="evenodd" fill="#010101" d="M98.096 136.994l-0.244 0.143v5.836l5.023 2.916 5.022-2.916v-4.016C104.402 138.835 101.133 138.185 98.096 136.994z"/><polygon fill-rule="evenodd" clip-rule="evenodd" fill="#010101" points="134.724 152.712 129.7 155.629 129.7 161.463 134.724 164.326 139.802 161.462 139.802 155.63 "/><polygon fill-rule="evenodd" clip-rule="evenodd" fill="#010101" points="138.489 144.384 135.008 146.384 135.008 152.218 140.087 155.135 145.11 152.219 145.11 150.98 "/><path fill-rule="evenodd" clip-rule="evenodd" fill="#010101" d="M124.824 134.638c-1.817 1.14-3.734 2.043-5.74 2.735v5.6l5.022 2.916 5.022-2.916v-5.836L124.824 134.638z"/><polygon fill-rule="evenodd" clip-rule="evenodd" fill="#010101" points="148.88 154.736 145.396 152.713 140.373 155.629 140.373 161.463 145.396 164.325 150.418 161.463 150.418 156.269 "/><polygon fill-rule="evenodd" clip-rule="evenodd" fill="#010101" points="129.415 143.467 124.392 146.383 124.392 152.219 129.415 155.135 134.438 152.219 134.438 146.383 "/><polygon fill-rule="evenodd" clip-rule="evenodd" fill="#010101" points="52.001 34.452 50.023 35.6 50.023 41.436 55.045 44.352 59.383 41.833 "/><polygon fill-rule="evenodd" clip-rule="evenodd" fill="#010101" points="161.319 180.395 161.208 180.458 166.342 185.592 166.342 183.311 "/><path fill-rule="evenodd" clip-rule="evenodd" fill="#010101" d="M156.012 171.147l-3.688 2.143c-0.181-0.115-0.363-0.23-0.545-0.345l3.947-2.292v-5.834l-5.022-2.862 -5.022 2.862v4.685c-0.189-0.096-0.38-0.191-0.57-0.285v-4.399l-5.023-2.862 -5.079 2.863v0.293c-0.189-0.061-0.381-0.122-0.57-0.182v-0.112l-5.022-2.862 -1.981 1.129c-0.28-0.06-0.563-0.118-0.844-0.176l2.539-1.447v-5.834l-5.022-2.916 -5.022 2.916v5.834l0.633 0.361c-0.011-0.001-0.022-0.002-0.033-0.004 14.299 1.64 27.104 6.815 38.416 15.529l2.691 2.691 0.243-0.142v-5.835L156.012 171.147z"/><path fill-rule="evenodd" clip-rule="evenodd" fill="#010101" d="M118.168 161.66l0.345-0.197v-5.834l-5.022-2.916 -5.022 2.916v5.627c-0.19 0.002-0.38 0.005-0.57 0.008v-5.635l-5.022-2.916 -5.023 2.916v5.834l0.776 0.442c-0.314 0.039-0.627 0.079-0.939 0.121l-0.122-0.069 -0.198 0.113c-0.245 0.034-0.488 0.073-0.732 0.109 4.166-0.617 8.453-0.93 12.864-0.93 3.433 0 6.786 0.187 10.062 0.558C119.099 161.755 118.634 161.705 118.168 161.66z"/><path fill-rule="evenodd" clip-rule="evenodd" fill="#010101" d="M67.759 172.57c0.415-0.252 0.832-0.499 1.25-0.742C68.591 172.071 68.174 172.318 67.759 172.57z"/><path fill-rule="evenodd" clip-rule="evenodd" fill="#010101" d="M65.4 174.046l-5.045-2.898 -5.023 2.917v5.835l1.981 1.15 -0.417 0.418 -1.85-1.073 -5.022 2.916v5.048l-0.326 0.327L61.8 176.55c1.433-1.054 2.893-2.04 4.369-2.984C65.914 173.729 65.654 173.879 65.4 174.046z"/><path fill-rule="evenodd" clip-rule="evenodd" fill="#010101" d="M182.551 180.395l-1.575 0.914 4.443 4.596 -1.438 1.391 -4.787-4.951 -1.666 0.967v5.836l2.934 1.703c1.044-0.94 2.076-1.901 3.088-2.899 0.866-0.7 1.65-1.467 2.351-2.3 0.567-0.574 1.121-1.152 1.673-1.731v-0.608L182.551 180.395z"/><path fill-rule="evenodd" clip-rule="evenodd" fill="#010101" d="M193.51 176.161v1.075c0.162-0.195 0.33-0.39 0.49-0.586L193.51 176.161z"/><path fill-rule="evenodd" clip-rule="evenodd" fill="#010101" d="M39.122 189.641l-1.48 0.859c1.818 1.626 3.683 3.185 5.608 4.65l0.895-0.896v-1.697L39.122 189.641z"/><path fill-rule="evenodd" clip-rule="evenodd" fill="#010101" d="M177.243 189.641l-4.336 2.517 2.743 2.743c1.486-1.16 2.94-2.38 4.368-3.649L177.243 189.641z"/><polygon fill-rule="evenodd" clip-rule="evenodd" fill="#010101" points="97.566 143.467 92.544 146.383 92.544 152.219 97.566 155.135 102.589 152.219 102.589 146.383 "/><polygon fill-rule="evenodd" clip-rule="evenodd" fill="#010101" points="171.936 180.395 166.912 183.311 166.912 186.162 172.49 191.74 176.958 189.146 176.958 183.311 "/><path fill-rule="evenodd" clip-rule="evenodd" fill="#010101" d="M41.55 24c-0.044 0.036-0.088 0.074-0.132 0.11l0.58 0.337L41.55 24z"/><path fill-rule="evenodd" clip-rule="evenodd" fill="#010101" d="M43.57 26.021L40.951 24.5c-2.322 1.917-4.606 3.939-6.852 6.068v1.622l5.022 2.916 5.022-2.916v-5.595L43.57 26.021z"/><polygon fill-rule="evenodd" clip-rule="evenodd" fill="#010101" points="44.715 27.166 44.715 32.19 49.738 35.106 51.584 34.034 "/><path fill-rule="evenodd" clip-rule="evenodd" fill="#010101" d="M32.55 32.05c-0.536 0.536-1.055 1.081-1.578 1.624l0.37-0.215 1.064-1.067 0.285 0.284 0.838-0.486v-1.076C33.203 31.426 32.875 31.733 32.55 32.05z"/><path fill-rule="evenodd" clip-rule="evenodd" fill="#010101" d="M29.823 171.913L24.7 177.05c1.479 1.784 3.036 3.54 4.652 5.274l4.176-2.425v-5.835L29.823 171.913z"/><path fill-rule="evenodd" clip-rule="evenodd" fill="#010101" d="M37.988 182.818l-4.126 4.134c1.09 1.081 2.206 2.123 3.335 3.146l1.64-0.951v-5.836L37.988 182.818z"/><path fill-rule="evenodd" clip-rule="evenodd" fill="#010101" d="M33.814 180.395l-4.062 2.357c0.88 0.937 1.772 1.868 2.692 2.79l3.755-3.763L33.814 180.395z"/><path fill-rule="evenodd" clip-rule="evenodd" fill="#010101" d="M30.321 34.344c-0.134 0.141-0.268 0.282-0.4 0.423C30.054 34.625 30.188 34.485 30.321 34.344z"/><path fill-rule="evenodd" clip-rule="evenodd" fill="#010101" d="M28.22 36.623c-1.713 1.903-3.359 3.843-4.92 5.827l1.282 1.279 -0.115-0.115 3.753-2.179V36.623z"/><polygon fill-rule="evenodd" clip-rule="evenodd" fill="#010101" points="71.026 60.366 66.188 63.175 73.583 70.549 76.049 69.117 76.049 63.282 "/><polygon fill-rule="evenodd" clip-rule="evenodd" fill="#010101" points="55.045 161.957 50.023 164.819 50.023 167.931 55.645 162.299 "/><path fill-rule="evenodd" clip-rule="evenodd" fill="#010101" d="M46.365 154.153c-0.026 0.041-0.052 0.081-0.078 0.121C46.313 154.234 46.339 154.194 46.365 154.153zM55.045 136.643l5.023-2.917v-5.834l-2.624-1.495c0.009-0.049 0.018-0.098 0.027-0.146 -1.89 10.016-5.593 19.316-11.107 27.903 0.049-0.076 0.1-0.152 0.148-0.229l2.939-1.706v-3.293c0.193-0.357 0.384-0.717 0.571-1.077v4.37l5.022 2.916 5.023-2.916v-5.836l-5.023-2.916 -3.985 2.314c0.146-0.303 0.291-0.607 0.433-0.912l3.268-1.896v-5.836l-0.126-0.073c0.063-0.185 0.124-0.367 0.186-0.552L55.045 136.643zM38.019 163.696l1.104 0.629 5.022-2.862v-4.024c0.192-0.27 0.382-0.54 0.571-0.812v4.836l5.022 2.862 5.022-2.862v-5.834l-5.022-2.916 -3.911 2.271c0.155-0.236 0.307-0.473 0.459-0.709 -0.777 1.206-1.588 2.397-2.437 3.575L38.019 163.696z"/><polygon fill-rule="evenodd" clip-rule="evenodd" fill="#010101" points="39.407 58.519 39.407 58.519 38.896 58.008 "/><polygon fill-rule="evenodd" clip-rule="evenodd" fill="#010101" points="44.43 51.175 39.407 54.037 39.407 58.519 42.65 61.754 44.43 62.787 49.452 59.871 49.452 54.037 "/><polygon fill-rule="evenodd" clip-rule="evenodd" fill="#010101" points="50.818 53.583 50.023 54.037 50.023 59.871 55.045 62.787 58.206 60.953 "/><polygon fill-rule="evenodd" clip-rule="evenodd" fill="#010101" points="56.929 63.829 59.003 61.748 58.624 61.37 55.331 63.282 55.331 69.117 60.354 72.034 63.402 70.283 "/><polygon fill-rule="evenodd" clip-rule="evenodd" fill="#010101" points="71.312 78.17 71.312 78.363 71.776 78.633 "/><polygon fill-rule="evenodd" clip-rule="evenodd" fill="#010101" points="92.258 134.221 87.236 137.137 87.236 142.973 92.258 145.889 97.281 142.973 97.281 137.137 "/><polygon fill-rule="evenodd" clip-rule="evenodd" fill="#010101" points="81.643 152.713 76.62 155.629 76.62 161.463 81.643 164.325 86.665 161.463 86.665 155.629 "/><polygon fill-rule="evenodd" clip-rule="evenodd" fill="#010101" points="86.951 143.467 81.928 146.383 81.928 152.219 86.951 155.135 91.973 152.219 91.973 146.383 "/><polygon fill-rule="evenodd" clip-rule="evenodd" fill="#010101" points="78.793 144.895 71.588 152.379 76.335 155.135 81.357 152.219 81.357 146.383 "/><polygon fill-rule="evenodd" clip-rule="evenodd" fill="#010101" points="71.18 152.803 66.004 158.18 66.004 161.463 71.026 164.325 76.049 161.463 76.049 155.629 "/><polygon fill-rule="evenodd" clip-rule="evenodd" fill="#010101" points="65.718 143.466 60.639 146.384 60.639 152.218 61.532 152.73 68.754 145.229 "/><polygon fill-rule="evenodd" clip-rule="evenodd" fill="#010101" points="60.354 134.22 55.331 137.137 55.331 142.973 60.354 145.89 65.433 142.972 65.433 137.138 "/><path fill-rule="evenodd" clip-rule="evenodd" fill="#010101" d="M60.354 115.784l-1.648 0.958c0.002-0.028 0.004-0.057 0.006-0.085 -0.236 3.253-0.646 6.437-1.232 9.552 0.025-0.135 0.051-0.271 0.076-0.406l2.799 1.596 5.079-2.863v-5.833L60.354 115.784z"/><polygon fill-rule="evenodd" clip-rule="evenodd" fill="#010101" points="81.643 134.221 76.62 137.137 76.62 140.844 79.771 143.878 79.201 144.471 81.643 145.889 86.665 142.973 86.665 137.137 "/><path fill-rule="evenodd" clip-rule="evenodd" fill="#010101" d="M92.258 78.857l-5.022 2.917v5.834l0.423 0.241c0.064-0.066 0.125-0.134 0.191-0.199 2.713-2.682 5.679-4.74 8.892-6.188L92.258 78.857z"/><path fill-rule="evenodd" clip-rule="evenodd" fill="#010101" d="M79.983 116.749l-3.363 1.953v5.833l5.022 2.862 2.593-1.478c-1.984-2.82-3.409-5.875-4.253-9.173C79.982 116.747 79.983 116.748 79.983 116.749zM84.235 125.92c0.068 0.099 0.142 0.194 0.212 0.292 -0.068-0.099-0.136-0.198-0.205-0.296L84.235 125.92zM91.6 133.4c-1.333-0.934-2.583-2-3.75-3.2 -1.278-1.269-2.402-2.603-3.402-3.988 0.041 0.059 0.08 0.117 0.122 0.175l-2.641 1.505v5.834l5.022 2.917 5.022-2.917v-0.071C91.85 133.566 91.722 133.491 91.6 133.4z"/><polygon fill-rule="evenodd" clip-rule="evenodd" fill="#010101" points="81.643 78.857 76.62 81.774 76.62 87.608 81.643 90.47 86.665 87.608 86.665 81.774 "/><path fill-rule="evenodd" clip-rule="evenodd" fill="#010101" d="M97.281 155.629l-5.022-2.916 -5.022 2.916v5.834l3.271 1.864c-0.085 0.02-0.17 0.04-0.255 0.06 1.974-0.458 3.978-0.841 6.011-1.151 -0.151 0.022-0.303 0.044-0.454 0.067l1.473-0.84V155.629z"/><polygon fill-rule="evenodd" clip-rule="evenodd" fill="#010101" points="76.335 88.102 71.312 90.964 71.312 96.798 76.335 99.715 81.357 96.798 81.357 90.964 "/><path fill-rule="evenodd" clip-rule="evenodd" fill="#010101" d="M86.951 88.102l-5.022 2.862v4.912c1.315-2.72 3.09-5.254 5.323-7.603L86.951 88.102z"/><polygon fill-rule="evenodd" clip-rule="evenodd" fill="#010101" points="49.738 171.147 49.498 171.287 44.715 176.078 44.715 179.899 49.738 182.815 54.76 179.899 54.76 174.064 "/><polygon fill-rule="evenodd" clip-rule="evenodd" fill="#010101" points="39.122 171.147 34.1 174.064 34.1 179.899 36.617 181.361 43.99 173.975 "/><polygon fill-rule="evenodd" clip-rule="evenodd" fill="#010101" points="38.406 182.399 39.122 182.815 44.145 179.899 44.145 176.65 "/><polygon fill-rule="evenodd" clip-rule="evenodd" fill="#010101" points="32.688 51.816 32.688 51.816 32.383 51.512 "/><polygon fill-rule="evenodd" clip-rule="evenodd" fill="#010101" points="33.529 50.68 33.529 44.846 28.506 41.93 24.886 44.032 32.383 51.512 32.269 51.398 "/><polygon fill-rule="evenodd" clip-rule="evenodd" fill="#010101" points="38.836 54.037 33.814 51.175 32.688 51.816 38.836 57.95 "/><polygon fill-rule="evenodd" clip-rule="evenodd" fill="#010101" points="37.601 164.115 30.24 171.495 33.814 173.57 38.836 170.653 38.836 164.819 "/><polygon fill-rule="evenodd" clip-rule="evenodd" fill="#010101" points="57.445 163.324 50.091 170.692 55.045 173.57 60.068 170.653 60.068 164.819 "/><polygon fill-rule="evenodd" clip-rule="evenodd" fill="#010101" points="65.718 161.957 60.639 164.82 60.639 170.652 65.718 173.57 70.741 170.653 70.741 164.819 "/><path fill-rule="evenodd" clip-rule="evenodd" fill="#010101" d="M89.689 163.519l-2.739-1.562 -5.022 2.862v0.997c-0.191 0.067-0.38 0.136-0.571 0.205v-1.202l-5.022-2.862 -5.023 2.862v5.704c-0.228 0.123-0.451 0.259-0.678 0.384 6.138-3.381 12.626-5.884 19.474-7.486C89.968 163.453 89.829 163.485 89.689 163.519z"/><polygon fill-rule="evenodd" clip-rule="evenodd" fill="#010101" points="63.021 161.277 60.5 158.85 61.208 159.556 57.863 162.906 60.354 164.326 65.433 161.462 65.433 158.772 "/><polygon fill-rule="evenodd" clip-rule="evenodd" fill="#010101" points="81.643 60.366 76.62 63.282 76.62 69.117 81.643 72.034 86.665 69.117 86.665 63.282 "/><polygon fill-rule="evenodd" clip-rule="evenodd" fill="#010101" points="76.335 69.611 74.001 70.966 79.071 76.021 74.748 80.358 76.335 81.28 81.357 78.363 81.357 72.528 "/><polygon fill-rule="evenodd" clip-rule="evenodd" fill="#010101" points="92.258 60.366 87.236 63.282 87.236 69.117 92.258 72.034 97.281 69.117 97.281 63.282 "/><path fill-rule="evenodd" clip-rule="evenodd" fill="#010101" d="M96.715 136.402c-0.133-0.061-0.266-0.122-0.398-0.185C96.449 136.28 96.582 136.342 96.715 136.402z"/><path fill-rule="evenodd" clip-rule="evenodd" fill="#010101" d="M95.012 135.559c-0.099-0.054-0.195-0.111-0.292-0.166C94.817 135.447 94.914 135.505 95.012 135.559z"/><polygon fill-rule="evenodd" clip-rule="evenodd" fill="#010101" points="44.43 32.684 39.407 35.6 39.407 39.376 44.348 44.305 44.43 44.352 49.452 41.436 49.452 35.6 "/><polygon fill-rule="evenodd" clip-rule="evenodd" fill="#010101" points="33.814 32.684 33.109 33.093 38.836 38.807 38.836 35.6 "/><polygon fill-rule="evenodd" clip-rule="evenodd" fill="#010101" points="49.738 41.93 44.826 44.782 52.201 52.139 54.76 50.68 54.76 44.846 "/><polygon fill-rule="evenodd" clip-rule="evenodd" fill="#010101" points="55.045 51.175 52.621 52.557 59.996 59.914 60.068 59.871 60.068 54.037 "/><path fill-rule="evenodd" clip-rule="evenodd" fill="#010101" d="M60.354 97.292l-2.138 1.241c-0.027-0.204-0.054-0.409-0.083-0.612l1.934-1.123v-5.834l-3.736-2.129c-0.055-0.21-0.111-0.419-0.167-0.629 1.856 6.886 2.786 14.15 2.786 21.793 0 2.23-0.079 4.43-0.234 6.599 0.013-0.182 0.026-0.363 0.038-0.545l1.314-0.763v-5.835l-1.126-0.654c-0.003-0.222-0.006-0.445-0.011-0.667l1.423 0.826 5.079-2.917v-5.834L60.354 97.292z"/></svg>