<svg xmlns="http://www.w3.org/2000/svg" viewBox="0 0 218 218">
    <path
        fill="#efeeee"
        fill-rule="evenodd"
        d="M217.5 108.95c0 29.83-10.53 55.4-31.6 76.7-.7.83-1.48 1.6-2.35 2.3-3.47 3.4-7.14 6.48-11 9.25-18.27 13.47-39.37 20.2-63.3 20.2-23.97 0-45.03-6.73-63.2-20.2-4.8-3.4-9.3-7.25-13.5-11.55-16.37-16.27-26.42-35.17-30.15-56.7-.73-4.2-1.22-8.47-1.45-12.8-.1-2.4-.15-4.8-.15-7.2 0-2.53.05-4.95.15-7.25 0-.23.07-.47.2-.7 1.57-26.6 12.03-49.58 31.4-68.95C53.85 11.02 79.42.5 109.25.5c29.93 0 55.48 10.52 76.65 31.55 21.07 21.43 31.6 47.07 31.6 76.9"/>
    <path
        fill="#010101"
        fill-rule="evenodd"
        d="M195.45 43l-22.4 22.4c-8.83 13-13.25 27.87-13.25 44.6 0 17.93 5.07 33.83 15.2 47.7l19 18.95c-2.5 3.07-5.2 6.07-8.1 9-.7.83-1.48 1.6-2.35 2.3-2.53 2.5-5.17 4.82-7.9 6.95l-17.55-17.55c-13.93-10.73-30.13-16.1-48.6-16.1-17.93 0-33.83 5.1-47.7 15.3l-18.55 18.6c-3.77-2.87-7.33-6.03-10.7-9.5-2.8-2.8-5.42-5.67-7.85-8.6l19.15-19.2c10.07-13.97 15.1-29.92 15.1-47.85 0-17.5-4.87-33.02-14.6-46.55l-21.05-21c2.83-3.6 5.92-7.07 9.25-10.4 2.93-2.87 5.93-5.55 9-8.05L61.9 44.35C75.7 54.58 91.57 59.7 109.5 59.7c18.47 0 34.67-5.37 48.6-16.1l19.3-19.25c2.9 2.37 5.73 4.93 8.5 7.7 3.47 3.53 6.65 7.18 9.55 10.95"/>
    <g fill-rule="evenodd">
        <path
            fill="#35c6f4"
            d="M79.1 110.95c-.03-.67-.05-1.33-.05-2 0-.7.02-1.37.05-2 0-.07.02-.13.05-.2.43-7.37 3.33-13.73 8.7-19.1 5.9-5.83 12.98-8.75 21.25-8.75 8.3 0 15.38 2.92 21.25 8.75 5.83 5.93 8.75 13.03 8.75 21.3 0 8.27-2.92 15.35-8.75 21.25-.2.23-.42.45-.65.65-.97.93-1.98 1.78-3.05 2.55-5.07 3.73-10.92 5.6-17.55 5.6-6.63 0-12.47-1.87-17.5-5.6-1.33-.93-2.58-2-3.75-3.2-4.53-4.5-7.32-9.73-8.35-15.7-.2-1.17-.33-2.35-.4-3.55m47 16.3l3.6 3.6-3.6-3.6"/>
        <g fill="none" stroke="#35c6f4" stroke-miterlimit="1">
            <path stroke-width="2" d="M158.6 60.25l-15 14.65M31.7 33.1l40.75 40.65m53.65 53.5l3.6 3.6M157.05 158l27.65 28.6m-31.65-32.65l-10.75-11.2M186.6 33l-28 27.25m-125.45 126l27.35-27.4"/>
            <path stroke-width="7" d="M158.6 60.25l-16.95 17.2M59.4 61.35L76.6 78.5m-16.1 80.35l16.75-17.4m75.8 12.5l4 4.05m-17.6-17.6l13.6 13.55"/>
        </g>
    </g>
</svg>
