<?xml version="1.0" encoding="utf-8"?>
<!-- Generator: Adobe Illustrator 16.0.0, SVG Export Plug-In . SVG Version: 6.00 Build 0)  -->
<!DOCTYPE svg PUBLIC "-//W3C//DTD SVG 1.1//EN" "http://www.w3.org/Graphics/SVG/1.1/DTD/svg11.dtd">
<svg version="1.1" xmlns="http://www.w3.org/2000/svg" xmlns:xlink="http://www.w3.org/1999/xlink" x="0px" y="0px" width="218px"
	 height="218px" viewBox="0 0 218 218" enable-background="new 0 0 218 218" xml:space="preserve">
<symbol  id="hex_grid" viewBox="-114.25 -98.617 228.55 197.233">
	
		<path fill-rule="evenodd" clip-rule="evenodd" fill="none" stroke="#989898" stroke-width="0.5" stroke-linecap="square" stroke-miterlimit="1" d="
		M72.15,90.3l4.7-2.7l4.65,2.7v5.4l-4.65,2.7l-4.7-2.7V90.3z M62.85,95.7l-4.65,2.7l-4.65-2.7v-5.4l4.65-2.7l4.65,2.7V95.7l4.65,2.7
		l4.65-2.7 M62.85,90.3l4.65-2.7l4.65,2.7 M62.85,79.55v-5.4l4.65-2.7l4.65,2.7v5.4L67.5,82.2L62.85,79.55L58.2,82.2l-4.65-2.65
		 M72.15,74.15l4.7-2.7l4.65,2.7v5.4l-4.65,2.65l-4.7-2.65 M76.85,87.6v-5.4 M67.5,87.6v-5.4 M81.5,95.7l4.65,2.7l4.65-2.7l4.65,2.7
		l4.65-2.7l4.65,2.7l4.65-2.7v-5.4l4.65-2.7v-5.4l-4.65-2.65v-5.4l4.65-2.7v-5.4l-4.65-2.7v-5.4l4.65-2.7v-5.4l-4.65-2.65v-5.4
		l4.65-2.7v-5.4L109.4,31v-5.4l4.65-2.7v-5.4l-4.65-2.65v-5.4l4.65-2.7v-5.4l-4.65-2.7v-5.4l4.65-2.7v-5.4l-4.65-2.65v-5.4l4.65-2.7
		V-31l-4.65-2.7v-5.4l4.65-2.7v-5.4l-4.65-2.65v-5.4l4.65-2.7v-5.4l-4.65-2.7v-5.4l4.65-2.7v-5.4l-4.65-2.65v-5.4l4.65-2.7v-5.4
		l-4.65-2.7l-4.65,2.7l-4.65-2.7l-4.65,2.7l-4.65-2.7l-4.65,2.7l-4.65-2.7l-4.65,2.7l-4.7-2.7l-4.65,2.7l-4.65-2.7l-4.65,2.7
		l-4.65-2.7l-4.65,2.7l-4.65-2.7l-4.65,2.7l-4.65-2.7l-4.65,2.7l-4.7-2.7l-4.65,2.7l-4.65-2.7l-4.65,2.7L7-98.4l-4.65,2.7l-4.65-2.7
		l-4.65,2.7l-4.65-2.7l-4.65,2.7l-4.65-2.7l-4.65,2.7l-4.65-2.7l-4.65,2.7l-4.7-2.7l-4.65,2.7l-4.65-2.7l-4.65,2.7l-4.65-2.7
		l-4.65,2.7l-4.65-2.7l-4.65,2.7l-4.65-2.7l-4.65,2.7l-4.7-2.7l-4.65,2.7l-4.65-2.7l-4.65,2.7l-4.65-2.7l-4.65,2.7v5.4l-4.65,2.7
		v5.4l4.65,2.65v5.4l-4.65,2.7v5.4l4.65,2.7v5.4l-4.65,2.7v5.4l4.65,2.65v5.4l-4.65,2.7v5.4l4.65,2.7v5.4l-4.65,2.7v5.4l4.65,2.65
		v5.4l-4.65,2.7v5.4l4.65,2.7v5.4l-4.65,2.7v5.4l4.65,2.65v5.4l-4.65,2.7V31l4.65,2.7v5.4l-4.65,2.7v5.4l4.65,2.65v5.4l-4.65,2.7
		v5.4l4.65,2.7v5.4l-4.65,2.7v5.4l4.65,2.65v5.4l-4.65,2.7v5.4l4.65,2.7l4.65-2.7l4.65,2.7l4.65-2.7l4.65,2.7l4.65-2.7l4.7,2.7
		l4.65-2.7l4.65,2.7l4.65-2.7l4.65,2.7l4.65-2.7l4.65,2.7l4.65-2.7l4.65,2.7l4.65-2.7l4.7,2.7l4.65-2.7l4.65,2.7l4.65-2.7l4.65,2.7
		l4.65-2.7l4.65,2.7l4.65-2.7l4.65,2.7L7,95.7l4.65,2.7l4.65-2.7l4.65,2.7l4.65-2.7l4.7,2.7l4.65-2.7l4.65,2.7l4.65-2.7l4.65,2.7
		l4.65-2.7 M44.25,95.7v-5.4l4.65-2.7l4.65,2.7 M44.25,79.55v-5.4l4.65-2.7l4.65,2.7v5.4L48.9,82.2L44.25,79.55L39.6,82.2
		l-4.65-2.65 M58.2,87.6v-5.4 M48.9,87.6v-5.4 M53.55,63.35v-5.4l4.65-2.7l4.65,2.7v5.4l-4.65,2.7L53.55,63.35l-4.65,2.7l-4.65-2.7
		v-5.4l4.65-2.7l4.65,2.7 M62.85,74.15l-4.65-2.7v-5.4 M53.55,74.15l4.65-2.7 M48.9,71.45v-5.4 M48.9,55.25v-5.4l4.65-2.65
		l4.65,2.65v5.4 M67.5,71.45v-5.4l4.65-2.7l4.7,2.7v5.4 M67.5,66.05l-4.65-2.7 M58.2,49.85l4.65-2.65l4.65,2.65v5.4l-4.65,2.7
		 M72.15,63.35v-5.4l4.7-2.7l4.65,2.7v5.4l-4.65,2.7 M76.85,55.25v-5.4l4.65-2.65l4.65,2.65v5.4l-4.65,2.7 M67.5,55.25l4.65,2.7
		 M34.95,95.7v-5.4l4.65-2.7l4.65,2.7 M16.3,95.7v-5.4l4.65-2.7l4.65,2.7v5.4 M25.6,90.3l4.7-2.7l4.65,2.7 M25.6,79.55v-5.4l4.7-2.7
		l4.65,2.7v5.4L30.3,82.2L25.6,79.55l-4.65,2.65l-4.65-2.65v-5.4l4.65-2.7l4.65,2.7 M20.95,87.6v-5.4 M39.6,87.6v-5.4 M30.3,87.6
		v-5.4 M7,95.7v-5.4l4.65-2.7l4.65,2.7 M-2.3,95.7v-5.4l4.65-2.7L7,90.3 M2.35,82.2l-4.65-2.65v-5.4l4.65-2.7L7,74.15v5.4L2.35,82.2
		z M16.3,79.55l-4.65,2.65L7,79.55 M2.35,87.6v-5.4 M11.65,87.6v-5.4 M16.3,74.15l-4.65-2.7v-5.4l4.65-2.7l4.65,2.7v5.4 M2.35,71.45
		v-5.4L7,63.35l4.65,2.7 M2.35,49.85L7,47.2l4.65,2.65v5.4L7,57.95l-4.65-2.7V49.85L-2.3,47.2v-5.4l4.65-2.7L7,41.8v5.4
		 M11.65,55.25l4.65,2.7v5.4 M7,74.15l4.65-2.7 M7,57.95v5.4 M30.3,71.45v-5.4l4.65-2.7l4.65,2.7v5.4l-4.65,2.7 M16.3,57.95
		l4.65-2.7l4.65,2.7v5.4l-4.65,2.7 M30.3,66.05l-4.7-2.7 M30.3,49.85l4.65-2.65l4.65,2.65v5.4l-4.65,2.7l-4.65-2.7V49.85l-4.7-2.65
		v-5.4l-4.65-2.7v-5.4L25.6,31l4.7,2.7v5.4l-4.7,2.7 M11.65,49.85l4.65-2.65l4.65,2.65v5.4 M25.6,57.95l4.7-2.7 M34.95,57.95v5.4
		 M34.95,47.2v-5.4l4.65-2.7l4.65,2.7v5.4l-4.65,2.65 M25.6,31v-5.4l4.7-2.7l4.65,2.7V31l-4.65,2.7 M34.95,25.6l4.65-2.7l4.65,2.7
		V31l-4.65,2.7L34.95,31 M30.3,39.1l4.65,2.7 M39.6,39.1v-5.4 M20.95,39.1l-4.65,2.7l-4.65-2.7v-5.4L16.3,31l4.65,2.7 M16.3,41.8
		v5.4 M2.35,33.7L-2.3,31v-5.4l4.65-2.7L7,25.6V31L2.35,33.7z M7,25.6l4.65-2.7l4.65,2.7V31 M2.35,39.1v-5.4 M11.65,33.7L7,31
		 M7,41.8l4.65-2.7 M11.65,17.5L7,14.85v-5.4l4.65-2.7l4.65,2.7v5.4L11.65,17.5z M11.65,22.9v-5.4 M2.35,22.9v-5.4L7,14.85 M7,9.45
		l-4.65-2.7v-5.4L7-1.35l4.65,2.7v5.4 M34.95,14.85v-5.4l4.65-2.7l4.65,2.7v5.4L39.6,17.5L34.95,14.85z M39.6,22.9v-5.4 M25.6,25.6
		l-4.65-2.7v-5.4l4.65-2.65l4.7,2.65v5.4 M16.3,9.45l4.65-2.7l4.65,2.7v5.4 M34.95,9.45l-4.65-2.7v-5.4l4.65-2.7l4.65,2.7v5.4
		 M11.65,1.35l4.65-2.7l4.65,2.7v5.4 M25.6,9.45l4.7-2.7 M30.3,17.5l4.65-2.65 M16.3,25.6l4.65-2.7 M20.95,17.5l-4.65-2.65
		 M76.85,49.85l-4.7-2.65v-5.4l4.7-2.7l4.65,2.7v5.4 M62.85,47.2v-5.4l4.65-2.7l4.65,2.7 M62.85,25.6l4.65-2.7l4.65,2.7V31
		l-4.65,2.7L62.85,31V25.6l-4.65-2.7v-5.4 M72.15,25.6l4.7-2.7l4.65,2.7V31l-4.65,2.7l-4.7-2.7 M76.85,39.1v-5.4 M67.5,39.1v-5.4
		 M53.55,47.2v-5.4l4.65-2.7l4.65,2.7 M44.25,41.8l4.65-2.7l4.65,2.7 M44.25,25.6l4.65-2.7l4.65,2.7V31l-4.65,2.7L44.25,31
		 M62.85,31l-4.65,2.7L53.55,31 M58.2,39.1v-5.4 M48.9,39.1v-5.4 M53.55,14.85v-5.4l4.65-2.7l4.65,2.7v5.4L58.2,17.5L53.55,14.85
		L48.9,17.5l-4.65-2.65 M48.9,22.9v-5.4 M53.55,9.45l-4.65-2.7v-5.4l4.65-2.7l4.65,2.7v5.4 M44.25,9.45l4.65-2.7 M76.85,22.9v-5.4
		l4.65-2.65l4.65,2.65v5.4l-4.65,2.7 M76.85,17.5l-4.7-2.65v-5.4l4.7-2.7l4.65,2.7v5.4 M67.5,22.9v-5.4l4.65-2.65 M67.5,17.5
		l-4.65-2.65 M72.15,9.45l-4.65-2.7v-5.4l4.65-2.7l4.7,2.7v5.4 M62.85,9.45l4.65-2.7 M53.55,25.6l4.65-2.7 M44.25,63.35l-4.65,2.7
		 M39.6,55.25l4.65,2.7 M39.6,71.45l4.65,2.7 M67.5,49.85l4.65-2.65 M48.9,49.85l-4.65-2.65 M25.6,47.2l-4.65,2.65 M104.75,87.6
		l-4.65,2.7l-4.65-2.7v-5.4l4.65-2.65l4.65,2.65V87.6l4.65,2.7 M109.4,79.55l-4.65,2.65 M100.1,95.7v-5.4 M81.5,90.3l4.65-2.7
		l4.65,2.7v5.4 M81.5,74.15l4.65-2.7l4.65,2.7v5.4l-4.65,2.65l-4.65-2.65 M90.8,79.55l4.65,2.65 M86.15,87.6v-5.4 M90.8,90.3
		l4.65-2.7 M95.45,71.45v-5.4l4.65-2.7l4.65,2.7v5.4l-4.65,2.7L95.45,71.45l-4.65,2.7 M86.15,55.25l4.65,2.7v5.4l-4.65,2.7
		l-4.65-2.7 M86.15,71.45v-5.4 M95.45,55.25v-5.4l4.65-2.65l4.65,2.65v5.4l-4.65,2.7L95.45,55.25l-4.65,2.7 M100.1,63.35v-5.4
		 M90.8,63.35l4.65,2.7 M109.4,63.35l-4.65,2.7 M104.75,71.45l4.65,2.7 M104.75,55.25l4.65,2.7 M100.1,79.55v-5.4 M100.1,47.2v-5.4
		l4.65-2.7l4.65,2.7 M100.1,41.8l-4.65-2.7v-5.4l4.65-2.7l4.65,2.7v5.4 M109.4,31l-4.65,2.7 M81.5,41.8l4.65-2.7l4.65,2.7v5.4
		l-4.65,2.65 M86.15,22.9l4.65,2.7V31l-4.65,2.7L81.5,31 M100.1,31v-5.4l4.65-2.7l4.65,2.7 M90.8,31l4.65,2.7 M86.15,39.1v-5.4
		 M90.8,41.8l4.65-2.7 M86.15,17.5l4.65-2.65l4.65,2.65v5.4l-4.65,2.7 M90.8,14.85v-5.4l4.65-2.7l4.65,2.7v5.4l-4.65,2.65
		 M81.5,9.45l4.65-2.7l4.65,2.7 M86.15,6.75v-5.4l4.65-2.7l4.65,2.7v5.4 M100.1,14.85l4.65,2.65v5.4 M109.4,14.85l-4.65,2.65
		 M100.1,9.45l4.65-2.7l4.65,2.7 M95.45,1.35l4.65-2.7l4.65,2.7v5.4 M95.45,22.9l4.65,2.7 M109.4,47.2l-4.65,2.65 M90.8,47.2
		l4.65,2.65 M104.75-9.45l-4.65,2.7l-4.65-2.7v-5.4l4.65-2.65l4.65,2.65V-9.45l4.65,2.7 M109.4-17.5l-4.65,2.65 M100.1-1.35v-5.4
		 M90.8-1.35v-5.4l4.65-2.7 M81.5-6.75l-4.65-2.7v-5.4l4.65-2.65l4.65,2.65v5.4L81.5-6.75v5.4l-4.65,2.7 M90.8-6.75l-4.65-2.7
		 M95.45-14.85L90.8-17.5v-5.4l4.65-2.7l4.65,2.7v5.4 M76.85-14.85l-4.7-2.65v-5.4l4.7-2.7l4.65,2.7v5.4 M86.15-14.85l4.65-2.65
		 M95.45-31l-4.65-2.7v-5.4l4.65-2.7l4.65,2.7v5.4L95.45-31z M95.45-25.6V-31 M90.8-22.9l-4.65-2.7V-31l4.65-2.7 M86.15-31
		l-4.65-2.7v-5.4l4.65-2.7l4.65,2.7 M86.15-41.8v-5.4l4.65-2.65l4.65,2.65v5.4 M100.1-33.7l4.65,2.7v5.4l-4.65,2.7 M109.4-33.7
		l-4.65,2.7 M95.45-47.2l4.65-2.65l4.65,2.65v5.4l-4.65,2.7 M104.75-41.8l4.65,2.7 M81.5-22.9l4.65-2.7 M104.75-25.6l4.65,2.7
		 M100.1-49.85v-5.4l4.65-2.7l4.65,2.7 M109.4-66.05l-4.65,2.7l-4.65-2.7v-5.4l4.65-2.7l4.65,2.7 M104.75-63.35v5.4 M100.1-55.25
		l-4.65-2.7v-5.4l4.65-2.7 M86.15-47.2l-4.65-2.65v-5.4l4.65-2.7l4.65,2.7v5.4 M86.15-74.15l4.65,2.7v5.4l-4.65,2.7l-4.65-2.7v-5.4
		L86.15-74.15v-5.4l4.65-2.65l4.65,2.65 M90.8-71.45l4.65-2.7l4.65,2.7 M95.45-63.35l-4.65-2.7 M90.8-55.25l4.65-2.7 M86.15-57.95
		v-5.4 M95.45-74.15v-5.4l4.65-2.65l4.65,2.65v5.4 M81.5-71.45l-4.65-2.7v-5.4l4.65-2.65l4.65,2.65 M81.5-82.2v-5.4l4.65-2.7
		l4.65,2.7v5.4 M86.15-90.3v-5.4 M104.75-95.7v5.4l-4.65,2.7l-4.65-2.7v-5.4 M100.1-82.2v-5.4 M95.45-90.3l-4.65,2.7 M109.4-82.2
		l-4.65,2.65 M104.75-90.3l4.65,2.7 M109.4-49.85l-4.65,2.65 M72.15-1.35v-5.4l4.7-2.7 M67.5,1.35l-4.65-2.7v-5.4l4.65-2.7l4.65,2.7
		 M72.15-17.5l-4.65,2.65l-4.65-2.65v-5.4l4.65-2.7l4.65,2.7 M67.5-14.85v5.4 M53.55-1.35v-5.4l4.65-2.7l4.65,2.7 M48.9,1.35
		l-4.65-2.7v-5.4l4.65-2.7l4.65,2.7 M44.25-22.9l4.65-2.7l4.65,2.7v5.4l-4.65,2.65l-4.65-2.65V-22.9l-4.65-2.7V-31 M53.55-17.5
		l4.65,2.65v5.4 M48.9-9.45v-5.4 M53.55-33.7v-5.4l4.65-2.7l4.65,2.7v5.4L58.2-31L53.55-33.7z M62.85-22.9l-4.65-2.7V-31 M48.9-25.6
		V-31l4.65-2.7 M48.9-31l-4.65-2.7v-5.4l4.65-2.7l4.65,2.7 M48.9-41.8v-5.4l4.65-2.65l4.65,2.65v5.4 M76.85-25.6V-31l4.65-2.7
		 M76.85-31l-4.7-2.7v-5.4l4.7-2.7l4.65,2.7 M62.85-33.7L67.5-31v5.4 M72.15-39.1l-4.65-2.7v-5.4l4.65-2.65l4.7,2.65v5.4
		 M62.85-39.1l4.65-2.7 M72.15-33.7L67.5-31 M53.55-22.9l4.65-2.7 M58.2-14.85l4.65-2.65 M30.3,1.35l-4.7-2.7v-5.4l4.7-2.7l4.65,2.7
		v5.4 M30.3-9.45v-5.4l4.65-2.65l4.65,2.65v5.4l-4.65,2.7 M16.3-1.35v-5.4l4.65-2.7l4.65,2.7 M30.3-14.85l-4.7-2.65v-5.4l4.7-2.7
		l4.65,2.7v5.4 M25.6-17.5l-4.65,2.65L16.3-17.5v-5.4l4.65-2.7l4.65,2.7 M20.95-14.85v5.4 M16.3-6.75l-4.65-2.7v-5.4l4.65-2.65
		 M2.35,1.35l-4.65-2.7v-5.4l4.65-2.7L7-6.75v5.4 M7-17.5l-4.65,2.65L-2.3-17.5v-5.4l4.65-2.7L7-22.9V-17.5l4.65,2.65 M11.65-9.45
		L7-6.75 M2.35-9.45v-5.4 M11.65-31L7-33.7v-5.4l4.65-2.7l4.65,2.7v5.4L11.65-31z M16.3-22.9l-4.65-2.7V-31 M2.35-25.6V-31L7-33.7
		 M7-39.1l-4.65-2.7v-5.4L7-49.85l4.65,2.65v5.4 M44.25-33.7L39.6-31l-4.65-2.7v-5.4l4.65-2.7l4.65,2.7 M20.95-25.6V-31l4.65-2.7
		l4.7,2.7v5.4 M20.95-47.2l4.65-2.65l4.7,2.65v5.4l-4.7,2.7l-4.65-2.7V-47.2l-4.65-2.65v-5.4l4.65-2.7l4.65,2.7 M30.3-47.2
		l4.65-2.65l4.65,2.65v5.4 M30.3-41.8l4.65,2.7 M25.6-33.7v-5.4 M34.95-33.7L30.3-31 M34.95-22.9l4.65-2.7 M20.95-31l-4.65-2.7
		 M16.3-39.1l4.65-2.7 M7-22.9l4.65-2.7 M34.95-55.25l-4.65-2.7v-5.4l4.65-2.7l4.65,2.7v5.4L34.95-55.25v5.4 M25.6-49.85v-5.4
		l4.7-2.7 M30.3-63.35l-4.7-2.7v-5.4l4.7-2.7l4.65,2.7v5.4 M25.6-66.05l-4.65,2.7l-4.65-2.7v-5.4l4.65-2.7l4.65,2.7 M30.3-74.15
		v-5.4l4.65-2.65l4.65,2.65v5.4l-4.65,2.7 M20.95-63.35v5.4 M7-49.85v-5.4l4.65-2.7l4.65,2.7 M2.35-47.2l-4.65-2.65v-5.4l4.65-2.7
		L7-55.25 M2.35-63.35l-4.65-2.7v-5.4l4.65-2.7L7-71.45v5.4L2.35-63.35z M16.3-71.45l-4.65-2.7v-5.4l4.65-2.65l4.65,2.65v5.4
		 M11.65-57.95v-5.4l4.65-2.7 M2.35-57.95v-5.4 M7-66.05l4.65,2.7 M11.65-74.15L7-71.45 M2.35-74.15v-5.4L7-82.2l4.65,2.65
		 M11.65-95.7v5.4L7-87.6l-4.65-2.7v-5.4 M20.95-95.7v5.4l-4.65,2.7l-4.65-2.7 M7-87.6v5.4 M16.3-87.6v5.4 M20.95-90.3l4.65,2.7v5.4
		l-4.65,2.65 M30.3-79.55l-4.7-2.65 M30.3-95.7v5.4l-4.7,2.7 M48.9-95.7v5.4l-4.65,2.7l-4.65-2.7v-5.4 M34.95-82.2v-5.4l4.65-2.7
		 M30.3-90.3l4.65,2.7 M72.15-49.85v-5.4l4.7-2.7l4.65,2.7 M67.5-47.2l-4.65-2.65v-5.4l4.65-2.7l4.65,2.7 M67.5-74.15l4.65,2.7v5.4
		l-4.65,2.7l-4.65-2.7v-5.4L67.5-74.15v-5.4l4.65-2.65l4.7,2.65 M81.5-66.05l-4.65,2.7l-4.7-2.7 M72.15-71.45l4.7-2.7 M76.85-63.35
		v5.4 M67.5-57.95v-5.4 M53.55-49.85v-5.4l4.65-2.7l4.65,2.7 M48.9-47.2l-4.65-2.65v-5.4l4.65-2.7l4.65,2.7 M44.25-66.05v-5.4
		l4.65-2.7l4.65,2.7v5.4l-4.65,2.7L44.25-66.05l-4.65,2.7 M62.85-66.05l-4.65,2.7l-4.65-2.7 M53.55-71.45l4.65-2.7l4.65,2.7
		 M58.2-57.95v-5.4 M48.9-57.95v-5.4 M48.9-74.15v-5.4l4.65-2.65l4.65,2.65v5.4 M48.9-79.55l-4.65-2.65v-5.4 M58.2-95.7v5.4
		l-4.65,2.7l-4.65-2.7 M53.55-87.6v5.4 M58.2-79.55l4.65-2.65l4.65,2.65 M62.85-82.2v-5.4l4.65-2.7l4.65,2.7v5.4 M67.5-90.3v-5.4
		 M76.85-95.7v5.4l-4.7,2.7 M58.2-90.3l4.65,2.7 M44.25-17.5l-4.65,2.65 M39.6-9.45l4.65,2.7 M39.6-74.15l4.65,2.7 M39.6-57.95
		l4.65,2.7 M44.25-49.85L39.6-47.2 M62.85-49.85L58.2-47.2 M16.3-49.85l-4.65,2.65 M44.25-82.2l-4.65,2.65 M76.85-90.3l4.65,2.7
		 M81.5-49.85l-4.65,2.65 M86.15,1.35l-4.65-2.7 M44.25-1.35l-4.65,2.7 M62.85-1.35l-4.65,2.7 M109.4-1.35l-4.65,2.7 M25.6-1.35
		l-4.65,2.7 M-95.4,95.7v-5.4l4.65-2.7l4.65,2.7v5.4 M-86.1,90.3l4.7-2.7l4.65,2.7v5.4 M-104.7,95.7v-5.4l4.65-2.7l4.65,2.7
		 M-100.05,82.2l-4.65-2.65v-5.4l4.65-2.7l4.65,2.7v5.4L-100.05,82.2z M-95.4,74.15l4.65-2.7l4.65,2.7v5.4l-4.65,2.65l-4.65-2.65
		 M-86.1,74.15l4.7-2.7l4.65,2.7v5.4l-4.65,2.65l-4.7-2.65 M-100.05,87.6v-5.4 M-90.75,87.6v-5.4 M-81.4,87.6v-5.4 M-109.35,87.6
		l4.65,2.7 M-104.7,79.55l-4.65,2.65 M-109.35,55.25l4.65,2.7v5.4l-4.65,2.7 M-109.35,71.45l4.65,2.7 M-90.75,66.05l-4.65-2.7v-5.4
		l4.65-2.7l4.65,2.7v5.4L-90.75,66.05v5.4 M-86.1,57.95l4.7-2.7l4.65,2.7v5.4l-4.65,2.7l-4.7-2.7 M-81.4,71.45v-5.4 M-100.05,71.45
		v-5.4l4.65-2.7 M-95.4,57.95l-4.65-2.7v-5.4l4.65-2.65l4.65,2.65v5.4 M-81.4,55.25v-5.4l4.65-2.65l4.65,2.65v5.4l-4.65,2.7
		 M-100.05,66.05l-4.65-2.7 M-104.7,57.95l4.65-2.7 M-86.1,41.8l-4.65-2.7v-5.4l4.65-2.7l4.7,2.7v5.4L-86.1,41.8z M-81.4,49.85
		l-4.7-2.65v-5.4 M-100.05,49.85l-4.65-2.65v-5.4l4.65-2.7l4.65,2.7v5.4 M-95.4,31l-4.65,2.7l-4.65-2.7v-5.4l4.65-2.7l4.65,2.7V31
		l4.65,2.7 M-86.1,31v-5.4l4.7-2.7l4.65,2.7V31l-4.65,2.7 M-100.05,39.1v-5.4 M-90.75,39.1l-4.65,2.7 M-109.35,39.1l4.65,2.7
		 M-104.7,31l-4.65,2.7 M-109.35,6.75l4.65,2.7v5.4l-4.65,2.65 M-86.1,14.85v-5.4l4.7-2.7l4.65,2.7v5.4l-4.65,2.65L-86.1,14.85z
		 M-81.4,22.9v-5.4 M-86.1,25.6l-4.65-2.7v-5.4l4.65-2.65 M-100.05,22.9v-5.4l4.65-2.65l4.65,2.65 M-100.05,6.75v-5.4l4.65-2.7
		l4.65,2.7v5.4l-4.65,2.7L-100.05,6.75z M-81.4,6.75v-5.4l4.65-2.7l4.65,2.7v5.4l-4.65,2.7 M-90.75,6.75l4.65,2.7 M-95.4,14.85v-5.4
		 M-95.4,25.6l4.65-2.7 M-100.05,17.5l-4.65-2.65 M-104.7,9.45l4.65-2.7 M-109.35,22.9l4.65,2.7 M-86.1,47.2l-4.65,2.65
		 M-104.7,47.2l-4.65,2.65 M-11.6,95.7v-5.4l4.65-2.7l4.65,2.7 M-20.9,95.7v-5.4l4.65-2.7l4.65,2.7 M-16.25,82.2l-4.65-2.65v-5.4
		l4.65-2.7l4.65,2.7v5.4L-16.25,82.2v5.4 M-2.3,79.55l-4.65,2.65l-4.65-2.65 M-6.95,82.2v5.4 M-30.2,95.7v-5.4l4.65-2.7l4.65,2.7
		 M-39.55,95.7v-5.4l4.7-2.7l4.65,2.7 M-39.55,79.55v-5.4l4.7-2.7l4.65,2.7v5.4l-4.65,2.65L-39.55,79.55l-4.65,2.65l-4.65-2.65
		 M-20.9,79.55l-4.65,2.65l-4.65-2.65 M-34.85,87.6v-5.4 M-25.55,87.6v-5.4 M-20.9,74.15l-4.65-2.7v-5.4l4.65-2.7l4.65,2.7v5.4
		 M-30.2,74.15l4.65-2.7 M-25.55,66.05l-4.65-2.7v-5.4l4.65-2.7l4.65,2.7v5.4 M-39.55,74.15l-4.65-2.7v-5.4l4.65-2.7l4.7,2.7v5.4
		 M-30.2,57.95l-4.65-2.7v-5.4l4.65-2.65l4.65,2.65v5.4 M-39.55,63.35v-5.4l4.7-2.7 M-30.2,63.35l-4.65,2.7 M-11.6,74.15l4.65-2.7
		l4.65,2.7 M-6.95,66.05l-4.65-2.7v-5.4l4.65-2.7l4.65,2.7v5.4L-6.95,66.05v5.4 M-16.25,66.05l4.65-2.7 M-11.6,57.95l-4.65-2.7v-5.4
		l4.65-2.65l4.65,2.65v5.4 M-16.25,55.25l-4.65,2.7 M-48.85,95.7v-5.4l4.65-2.7l4.65,2.7 M-58.15,95.7v-5.4l4.65-2.7l4.65,2.7
		 M-58.15,79.55v-5.4l4.65-2.7l4.65,2.7v5.4l-4.65,2.65L-58.15,79.55l-4.65,2.65l-4.65-2.65 M-44.2,87.6v-5.4 M-53.5,87.6v-5.4
		 M-67.45,95.7v-5.4l4.65-2.7l4.65,2.7 M-76.75,90.3l4.65-2.7l4.65,2.7 M-76.75,74.15l4.65-2.7l4.65,2.7v5.4l-4.65,2.65l-4.65-2.65
		 M-62.8,87.6v-5.4 M-72.1,87.6v-5.4 M-67.45,74.15l4.65-2.7l4.65,2.7 M-62.8,71.45v-5.4l4.65-2.7l4.65,2.7v5.4 M-62.8,66.05
		l-4.65-2.7v-5.4l4.65-2.7l4.65,2.7v5.4 M-76.75,63.35l4.65,2.7v5.4 M-62.8,55.25v-5.4l4.65-2.65l4.65,2.65v5.4l-4.65,2.7
		 M-67.45,63.35l-4.65,2.7 M-72.1,55.25l4.65,2.7 M-48.85,74.15l4.65-2.7 M-44.2,66.05l-4.65-2.7v-5.4l4.65-2.7l4.65,2.7
		 M-53.5,49.85l4.65-2.65l4.65,2.65v5.4 M-53.5,66.05l4.65-2.7 M-53.5,55.25l4.65,2.7 M-48.85,47.2v-5.4l4.65-2.7l4.65,2.7v5.4
		l-4.65,2.65 M-58.15,47.2v-5.4l4.65-2.7l4.65,2.7 M-58.15,25.6l4.65-2.7l4.65,2.7V31l-4.65,2.7l-4.65-2.7V25.6l-4.65-2.7v-5.4
		 M-48.85,25.6l4.65-2.7l4.65,2.7V31l-4.65,2.7l-4.65-2.7 M-44.2,39.1v-5.4 M-53.5,39.1v-5.4 M-62.8,49.85l-4.65-2.65v-5.4l4.65-2.7
		l4.65,2.7 M-76.75,47.2v-5.4l4.65-2.7l4.65,2.7 M-76.75,25.6l4.65-2.7l4.65,2.7V31l-4.65,2.7l-4.65-2.7 M-58.15,31l-4.65,2.7
		l-4.65-2.7 M-72.1,39.1v-5.4 M-62.8,39.1v-5.4 M-67.45,14.85v-5.4l4.65-2.7l4.65,2.7v5.4l-4.65,2.65L-67.45,14.85l-4.65,2.65
		l-4.65-2.65 M-72.1,22.9v-5.4 M-62.8,6.75v-5.4l4.65-2.7l4.65,2.7v5.4l-4.65,2.7 M-72.1,6.75l4.65,2.7 M-44.2,22.9v-5.4l4.65-2.65
		l4.7,2.65v5.4l-4.7,2.7 M-44.2,17.5l-4.65-2.65v-5.4l4.65-2.7l4.65,2.7v5.4 M-48.85,14.85l-4.65,2.65l-4.65-2.65 M-53.5,22.9v-5.4
		 M-44.2,6.75v-5.4l4.65-2.7l4.7,2.7v5.4l-4.7,2.7 M-53.5,6.75l4.65,2.7 M-67.45,25.6l4.65-2.7 M-11.6,47.2v-5.4l4.65-2.7l4.65,2.7
		 M-11.6,41.8l-4.65-2.7v-5.4l4.65-2.7l4.65,2.7v5.4 M-16.25,33.7L-20.9,31v-5.4l4.65-2.7l4.65,2.7V31 M-2.3,31l-4.65,2.7
		 M-30.2,47.2v-5.4l4.65-2.7l4.65,2.7v5.4l-4.65,2.65 M-39.55,41.8l4.7-2.7l4.65,2.7 M-34.85,22.9l4.65,2.7V31l-4.65,2.7l-4.7-2.7
		 M-20.9,31l-4.65,2.7L-30.2,31 M-34.85,39.1v-5.4 M-25.55,39.1v-5.4 M-20.9,25.6l-4.65-2.7v-5.4l4.65-2.65l4.65,2.65v5.4
		 M-25.55,17.5l-4.65-2.65v-5.4l4.65-2.7l4.65,2.7v5.4 M-25.55,6.75v-5.4l4.65-2.7l4.65,2.7v5.4l-4.65,2.7 M-30.2,14.85l-4.65,2.65
		 M-34.85,6.75l4.65,2.7 M-6.95,17.5l-4.65-2.65v-5.4l4.65-2.7l4.65,2.7v5.4L-6.95,17.5v5.4l-4.65,2.7 M-11.6,14.85l-4.65,2.65
		 M-16.25,6.75l4.65,2.7 M-16.25,1.35l4.65-2.7l4.65,2.7v5.4 M-6.95,22.9l4.65,2.7 M-30.2,25.6l4.65-2.7 M-16.25,39.1l-4.65,2.7
		 M-67.45,47.2l-4.65,2.65 M-2.3,47.2l-4.65,2.65 M-34.85,49.85l-4.7-2.65 M-16.25,49.85l-4.65-2.65 M-81.4,39.1l4.65,2.7
		 M-11.6-1.35v-5.4l4.65-2.7l4.65,2.7 M-11.6-6.75l-4.65-2.7v-5.4l4.65-2.65l4.65,2.65v5.4 M-16.25-14.85l-4.65-2.65v-5.4l4.65-2.7
		l4.65,2.7v5.4 M-2.3-17.5l-4.65,2.65 M-20.9-1.35v-5.4l4.65-2.7 M-20.9-6.75l-4.65-2.7v-5.4l4.65-2.65 M-25.55-9.45l-4.65,2.7
		l-4.65-2.7v-5.4l4.65-2.65l4.65,2.65 M-30.2-6.75v5.4l-4.65,2.7 M-39.55-1.35v-5.4l4.7-2.7 M-34.85-14.85l-4.7-2.65v-5.4l4.7-2.7
		l4.65,2.7v5.4 M-30.2-33.7v-5.4l4.65-2.7l4.65,2.7v5.4l-4.65,2.7L-30.2-33.7l-4.65,2.7l-4.7-2.7v-5.4l4.7-2.7l4.65,2.7 M-20.9-22.9
		l-4.65-2.7V-31 M-34.85-25.6V-31 M-39.55-39.1l-4.65-2.7v-5.4l4.65-2.65l4.7,2.65v5.4 M-25.55-41.8v-5.4l4.65-2.65l4.65,2.65v5.4
		l-4.65,2.7 M-6.95-31l-4.65-2.7v-5.4l4.65-2.7l4.65,2.7v5.4L-6.95-31v5.4l-4.65,2.7 M-16.25-25.6V-31l4.65-2.7 M-16.25-41.8
		l4.65,2.7 M-16.25-47.2l4.65-2.65l4.65,2.65v5.4 M-30.2-22.9l4.65-2.7 M-16.25-31l-4.65-2.7 M-6.95-25.6l4.65,2.7 M-44.2,1.35
		l-4.65-2.7v-5.4l4.65-2.7l4.65,2.7 M-58.15-1.35v-5.4l4.65-2.7l4.65,2.7 M-58.15-6.75l-4.65-2.7v-5.4l4.65-2.65l4.65,2.65v5.4
		 M-62.8-14.85l-4.65-2.65v-5.4l4.65-2.7l4.65,2.7v5.4 M-39.55-17.5l-4.65,2.65l-4.65-2.65v-5.4l4.65-2.7l4.65,2.7 M-44.2-9.45v-5.4
		 M-53.5-14.85l4.65-2.65 M-62.8,1.35l-4.65-2.7v-5.4l4.65-2.7 M-76.75-6.75l-4.65-2.7v-5.4l4.65-2.65l4.65,2.65v5.4L-76.75-6.75
		v5.4 M-76.75-17.5v-5.4l4.65-2.7l4.65,2.7 M-67.45-17.5l-4.65,2.65 M-72.1-9.45l4.65,2.7 M-67.45-33.7v-5.4l4.65-2.7l4.65,2.7v5.4
		L-62.8-31L-67.45-33.7z M-62.8-25.6V-31 M-72.1-25.6V-31l4.65-2.7 M-72.1-31l-4.65-2.7v-5.4l4.65-2.7l4.65,2.7 M-76.75-39.1
		l-4.65-2.7v-5.4l4.65-2.65l4.65,2.65v5.4 M-62.8-41.8v-5.4l4.65-2.65l4.65,2.65v5.4l-4.65,2.7 M-44.2-25.6V-31l4.65-2.7 M-44.2-31
		l-4.65-2.7v-5.4l4.65-2.7 M-48.85-33.7L-53.5-31l-4.65-2.7 M-48.85-22.9l-4.65-2.7V-31 M-53.5-41.8l4.65,2.7 M-58.15-22.9l4.65-2.7
		 M-58.15-49.85v-5.4l4.65-2.7l4.65,2.7v5.4l-4.65,2.65 M-48.85-55.25l4.65-2.7l4.65,2.7v5.4 M-58.15-71.45l4.65-2.7l4.65,2.7v5.4
		l-4.65,2.7l-4.65-2.7V-71.45z M-48.85-71.45l4.65-2.7l4.65,2.7v5.4l-4.65,2.7l-4.65-2.7 M-44.2-57.95v-5.4 M-53.5-57.95v-5.4
		 M-76.75-49.85v-5.4l4.65-2.7l4.65,2.7v5.4l-4.65,2.65 M-67.45-55.25l4.65-2.7l4.65,2.7 M-76.75-55.25l-4.65-2.7v-5.4l4.65-2.7
		l4.65,2.7v5.4 M-81.4-63.35l-4.7-2.7v-5.4l4.7-2.7l4.65,2.7v5.4 M-81.4-74.15v-5.4l4.65-2.65l4.65,2.65v5.4l-4.65,2.7
		 M-58.15-66.05l-4.65,2.7l-4.65-2.7v-5.4l4.65-2.7l4.65,2.7 M-62.8-57.95v-5.4 M-72.1-74.15l4.65,2.7 M-67.45-66.05l-4.65,2.7
		 M-67.45-82.2v-5.4l4.65-2.7l4.65,2.7v5.4l-4.65,2.65L-67.45-82.2l-4.65,2.65 M-76.75-82.2v-5.4l4.65-2.7l4.65,2.7 M-72.1-90.3
		v-5.4 M-62.8-90.3v-5.4 M-53.5-74.15v-5.4l4.65-2.65l4.65,2.65v5.4 M-58.15-82.2l4.65,2.65 M-58.15-87.6l4.65-2.7l4.65,2.7v5.4
		 M-53.5-90.3v-5.4 M-44.2-95.7v5.4l-4.65,2.7 M-62.8-74.15v-5.4 M-11.6-49.85v-5.4l4.65-2.7l4.65,2.7 M-20.9-49.85v-5.4l4.65-2.7
		l4.65,2.7 M-16.25-63.35l-4.65-2.7v-5.4l4.65-2.7l4.65,2.7v5.4L-16.25-63.35v5.4 M-2.3-66.05l-4.65,2.7l-4.65-2.7 M-11.6-71.45
		l4.65-2.7l4.65,2.7 M-6.95-63.35v5.4 M-25.55-47.2l-4.65-2.65v-5.4l4.65-2.7l4.65,2.7 M-39.55-55.25l4.7-2.7l4.65,2.7
		 M-39.55-71.45l4.7-2.7l4.65,2.7v5.4l-4.65,2.7l-4.7-2.7 M-20.9-71.45l-4.65-2.7v-5.4l4.65-2.65l4.65,2.65v5.4 M-20.9-66.05
		l-4.65,2.7l-4.65-2.7 M-25.55-74.15l-4.65,2.7 M-34.85-63.35v5.4 M-25.55-57.95v-5.4 M-34.85-74.15v-5.4l4.65-2.65l4.65,2.65
		 M-44.2-79.55l4.65-2.65l4.7,2.65 M-39.55-82.2v-5.4l4.7-2.7l4.65,2.7v5.4 M-34.85-90.3v-5.4 M-16.25-95.7v5.4l-4.65,2.7l-4.65-2.7
		v-5.4 M-25.55-90.3l-4.65,2.7 M-20.9-82.2v-5.4 M-6.95-79.55l-4.65-2.65v-5.4l4.65-2.7l4.65,2.7v5.4L-6.95-79.55v5.4 M-16.25-79.55
		l4.65-2.65 M-11.6-87.6l-4.65-2.7 M-6.95-95.7v5.4 M-44.2-90.3l4.65,2.7 M-62.8-47.2l-4.65-2.65 M-44.2-47.2l-4.65-2.65
		 M-30.2-49.85l-4.65,2.65 M-2.3-49.85l-4.65,2.65 M-95.4-1.35v-5.4l4.65-2.7l4.65,2.7v5.4l-4.65,2.7 M-86.1-6.75l4.7-2.7
		 M-100.05,1.35l-4.65-2.7v-5.4l4.65-2.7l4.65,2.7 M-95.4-17.5l-4.65,2.65l-4.65-2.65v-5.4l4.65-2.7l4.65,2.7V-17.5z M-95.4-22.9
		l4.65-2.7l4.65,2.7v5.4l-4.65,2.65l-4.65-2.65 M-81.4-14.85l-4.7-2.65 M-100.05-9.45v-5.4 M-90.75-14.85v5.4 M-109.35-9.45
		l4.65,2.7 M-104.7-17.5l-4.65,2.65 M-109.35-41.8l4.65,2.7v5.4l-4.65,2.7 M-90.75-25.6V-31l4.65-2.7l4.7,2.7v5.4l-4.7,2.7
		 M-100.05-25.6V-31l4.65-2.7l4.65,2.7 M-100.05-47.2l4.65-2.65l4.65,2.65v5.4l-4.65,2.7l-4.65-2.7V-47.2l-4.65-2.65 M-90.75-41.8
		l4.65,2.7v5.4 M-86.1-39.1l4.7-2.7 M-95.4-33.7v-5.4 M-109.35-25.6l4.65,2.7 M-100.05-31l-4.65-2.7 M-104.7-39.1l4.65-2.7
		 M-95.4-49.85v-5.4l4.65-2.7l4.65,2.7v5.4l-4.65,2.65 M-86.1-55.25l4.7-2.7 M-95.4-55.25l-4.65-2.7v-5.4l4.65-2.7l4.65,2.7v5.4
		 M-100.05-63.35l-4.65-2.7v-5.4l4.65-2.7l4.65,2.7v5.4 M-95.4-71.45l4.65-2.7l4.65,2.7 M-86.1-66.05l-4.65,2.7 M-109.35-57.95
		l4.65,2.7v5.4l-4.65,2.65 M-109.35-74.15l4.65,2.7 M-104.7-66.05l-4.65,2.7 M-109.35-90.3l4.65,2.7v5.4l-4.65,2.65 M-81.4-79.55
		l-4.7-2.65v-5.4l4.7-2.7l4.65,2.7 M-86.1-82.2l-4.65,2.65l-4.65-2.65v-5.4l4.65-2.7l4.65,2.7 M-100.05-74.15v-5.4l4.65-2.65
		 M-95.4-87.6l-4.65-2.7v-5.4 M-81.4-95.7v5.4 M-90.75-95.7v5.4 M-90.75-79.55v5.4 M-104.7-55.25l4.65-2.7 M-100.05-79.55
		l-4.65-2.65 M-104.7-87.6l4.65-2.7 M-81.4-47.2l-4.7-2.65 M-76.75-33.7L-81.4-31 M-81.4-25.6l4.65,2.7 M-67.45-1.35l-4.65,2.7
		 M-104.7-1.35l-4.65,2.7 M-81.4,1.35l-4.7-2.7 M-25.55,1.35l-4.65-2.7 M-53.5,1.35l4.65-2.7 M-2.3-1.35l-4.65,2.7 M-2.3,57.95
		l4.65-2.7 M2.35,66.05l-4.65-2.7 M-2.3-39.1l4.65-2.7 M2.35-31l-4.65-2.7 M2.35-79.55L-2.3-82.2 M-2.3-87.6l4.65-2.7 M-2.3,9.45
		l4.65-2.7 M2.35,17.5l-4.65-2.65"/>
</symbol>
<g id="Layer_1">
</g>
<g id="Layer_6">
	<path fill-rule="evenodd" clip-rule="evenodd" fill="#EFEEEE" d="M217.5,108.95c0,29.833-10.533,55.399-31.6,76.7
		c-0.7,0.833-1.484,1.6-2.351,2.3c-3.466,3.399-7.134,6.483-11,9.25c-18.267,13.467-39.366,20.2-63.3,20.2
		c-23.967,0-45.033-6.733-63.2-20.2c-4.8-3.4-9.3-7.25-13.5-11.55c-16.367-16.267-26.417-35.167-30.15-56.7
		c-0.733-4.2-1.217-8.467-1.45-12.8c-0.1-2.4-0.15-4.801-0.15-7.2c0-2.534,0.05-4.95,0.15-7.25c0-0.233,0.066-0.467,0.2-0.7
		c1.567-26.6,12.033-49.583,31.4-68.95C53.85,11.017,79.417,0.5,109.25,0.5c29.934,0,55.483,10.517,76.65,31.55
		C206.967,53.483,217.5,79.117,217.5,108.95z"/>
</g>
<g id="Layer_5">
	<path fill-rule="evenodd" clip-rule="evenodd" fill="#010101" d="M195.45,43l-22.4,22.4c-8.833,13-13.25,27.867-13.25,44.6
		c0,17.934,5.067,33.833,15.2,47.7l19,18.95c-2.5,3.066-5.2,6.066-8.1,9c-0.7,0.833-1.484,1.6-2.351,2.3
		c-2.533,2.5-5.167,4.816-7.899,6.95L158.1,177.35c-13.934-10.733-30.133-16.1-48.6-16.1c-17.933,0-33.833,5.1-47.7,15.3
		L43.25,195.15c-3.767-2.867-7.333-6.034-10.7-9.5c-2.8-2.801-5.417-5.667-7.85-8.601l19.15-19.2
		c10.066-13.966,15.1-29.916,15.1-47.85c0-17.5-4.867-33.017-14.6-46.55l-21.05-21c2.833-3.6,5.917-7.067,9.25-10.4
		c2.934-2.867,5.934-5.55,9-8.05L61.9,44.35C75.7,54.583,91.567,59.7,109.5,59.7c18.467,0,34.666-5.367,48.6-16.1L177.4,24.35
		c2.899,2.367,5.732,4.933,8.5,7.7C189.367,35.583,192.55,39.233,195.45,43z"/>
</g>
<g id="Layer_4">
	<defs>
		<path id="SVGID_1_" d="M159.8,110c0-16.733,4.417-31.6,13.25-44.6l22.4-22.4c-2.9-3.767-6.083-7.417-9.55-10.95
			c-2.768-2.767-5.601-5.333-8.5-7.7L158.1,43.6c-13.934,10.733-30.133,16.1-48.6,16.1c-17.933,0-33.8-5.117-47.6-15.35L41.55,24
			c-3.066,2.5-6.066,5.183-9,8.05c-3.333,3.333-6.417,6.8-9.25,10.4l21.05,21c9.733,13.533,14.6,29.05,14.6,46.55
			c0,17.934-5.034,33.884-15.1,47.85l-19.15,19.2c2.433,2.934,5.05,5.8,7.85,8.601c3.367,3.466,6.934,6.633,10.7,9.5L61.8,176.55
			c13.867-10.2,29.767-15.3,47.7-15.3c18.467,0,34.666,5.366,48.6,16.1L175.65,194.9c2.732-2.134,5.366-4.45,7.899-6.95
			c0.866-0.7,1.65-1.467,2.351-2.3c2.899-2.934,5.6-5.934,8.1-9l-19-18.95C164.867,143.833,159.8,127.934,159.8,110z"/>
	</defs>
	<clipPath id="SVGID_2_">
		<use xlink:href="#SVGID_1_"  overflow="visible"/>
	</clipPath>
	<g clip-path="url(#SVGID_2_)">
		
			<use xlink:href="#hex_grid"  width="228.55" height="197.233" x="-114.25" y="-98.617" transform="matrix(1.1415 0 0 -1.1415 105.5 107.75)" overflow="visible"/>
	</g>
</g>
<g id="Layer_2">
	<g>
		<path fill-rule="evenodd" clip-rule="evenodd" fill="#35C6F4" d="M79.1,110.95c-0.033-0.667-0.05-1.333-0.05-2
			c0-0.7,0.017-1.366,0.05-2c0-0.067,0.017-0.134,0.05-0.2c0.434-7.367,3.333-13.733,8.7-19.1c5.9-5.833,12.983-8.75,21.25-8.75
			c8.301,0,15.384,2.917,21.25,8.75c5.834,5.934,8.75,13.033,8.75,21.3c0,8.267-2.916,15.35-8.75,21.25
			c-0.199,0.233-0.416,0.45-0.649,0.649c-0.967,0.934-1.983,1.784-3.05,2.551c-5.066,3.733-10.917,5.6-17.551,5.6
			c-6.633,0-12.466-1.866-17.5-5.6c-1.333-0.934-2.583-2-3.75-3.2c-4.533-4.5-7.317-9.733-8.35-15.7
			C79.3,113.334,79.167,112.15,79.1,110.95z M126.1,127.25l3.601,3.6L126.1,127.25z"/>
		<path fill-rule="evenodd" clip-rule="evenodd" fill="none" stroke="#35C6F4" stroke-width="2" stroke-miterlimit="1" d="
			M158.6,60.25l-15,14.65 M31.7,33.1l40.75,40.65 M126.1,127.25l3.601,3.6 M157.05,158l27.65,28.6 M153.05,153.95l-10.75-11.2
			 M186.6,33l-28,27.25 M33.15,186.25l27.35-27.4"/>
		<path fill-rule="evenodd" clip-rule="evenodd" fill="none" stroke="#35C6F4" stroke-width="7" stroke-miterlimit="1" d="
			M158.6,60.25l-16.949,17.2 M59.4,61.35L76.6,78.5 M60.5,158.85l16.75-17.399 M153.05,153.95l4,4.05 M139.45,140.4l13.6,13.55"/>
	</g>
</g>
</svg>
