<svg version="1.1" xmlns="http://www.w3.org/2000/svg" xmlns:xlink="http://www.w3.org/1999/xlink" viewBox="0 0 218 218" style="enable-background:new 0 0 218 218">
 <defs>
  <clipPath id="1">
   <use xlink:href="#2"/>
  </clipPath>
  <path id="2" d="m159.8 110c0-16.733 4.417-31.6 13.25-44.6l22.4-22.4c-2.9-3.767-6.083-7.417-9.55-10.95-2.768-2.767-5.601-5.333-8.5-7.7l-19.3 19.25c-13.934 10.733-30.133 16.1-48.6 16.1-17.933 0-33.8-5.117-47.6-15.35l-20.35-20.35c-3.066 2.5-6.066 5.183-9 8.05-3.333 3.333-6.417 6.8-9.25 10.4l21.05 21c9.733 13.533 14.6 29.05 14.6 46.55 0 17.934-5.034 33.884-15.1 47.85l-19.15 19.2c2.433 2.934 5.05 5.8 7.85 8.601 3.367 3.466 6.934 6.633 10.7 9.5l18.55-18.601c13.867-10.2 29.767-15.3 47.7-15.3 18.467 0 34.666 5.366 48.6 16.1l17.55 17.55c2.732-2.134 5.366-4.45 7.899-6.95.866-.7 1.65-1.467 2.351-2.3 2.899-2.934 5.6-5.934 8.1-9l-19-18.95c-10.133-13.867-15.2-29.766-15.2-47.7"/>
 </defs>
 <symbol id="0" viewBox="-114.25 -98.617 228.55 197.233">
  <path d="m72.15 90.3l4.7-2.7 4.65 2.7 0 5.4-4.65 2.7-4.7-2.7 0-5.4zm-9.3 5.4l-4.65 2.7-4.65-2.7 0-5.4 4.65-2.7 4.65 2.7 0 5.4 4.65 2.7 4.65-2.7m-9.3-5.4l4.65-2.7 4.65 2.7m-9.3-10.75l0-5.4 4.65-2.7 4.65 2.7 0 5.4-4.65 2.65-4.65-2.65-4.65 2.65-4.65-2.65m18.6-5.4l4.7-2.7 4.65 2.7 0 5.4-4.65 2.65-4.7-2.65m4.7 8.05l0-5.4m-9.35 5.4l0-5.4m14 13.5l4.65 2.7 4.65-2.7 4.65 2.7 4.65-2.7 4.65 2.7 4.65-2.7 0-5.4 4.65-2.7 0-5.4-4.65-2.65 0-5.4 4.65-2.7 0-5.4-4.65-2.7 0-5.4 4.65-2.7 0-5.4-4.65-2.65 0-5.4 4.65-2.7 0-5.4-4.65-2.7 0-5.4 4.65-2.7 0-5.4-4.65-2.65 0-5.4 4.65-2.7 0-5.4-4.65-2.7 0-5.4 4.65-2.7 0-5.4-4.65-2.65 0-5.4 4.65-2.7 0-5.4-4.65-2.7 0-5.4 4.65-2.7 0-5.4-4.65-2.65 0-5.4 4.65-2.7 0-5.4-4.65-2.7 0-5.4 4.65-2.7 0-5.4-4.65-2.65 0-5.4 4.65-2.7 0-5.4-4.65-2.7-4.65 2.7-4.65-2.7-4.65 2.7-4.65-2.7-4.65 2.7-4.65-2.7-4.65 2.7-4.7-2.7-4.65 2.7-4.65-2.7-4.65 2.7-4.65-2.7-4.65 2.7-4.65-2.7-4.65 2.7-4.65-2.7-4.65 2.7-4.7-2.7-4.65 2.7-4.65-2.7-4.65 2.7-4.65-2.7-4.65 2.7-4.65-2.7-4.65 2.7-4.65-2.7-4.65 2.7-4.65-2.7-4.65 2.7-4.65-2.7-4.65 2.7-4.7-2.7-4.65 2.7-4.65-2.7-4.65 2.7-4.65-2.7-4.65 2.7-4.65-2.7-4.65 2.7-4.65-2.7-4.65 2.7-4.7-2.7-4.65 2.7-4.65-2.7-4.65 2.7-4.65-2.7-4.65 2.7 0 5.4-4.65 2.7 0 5.4 4.65 2.65 0 5.4-4.65 2.7 0 5.4 4.65 2.7 0 5.4-4.65 2.7 0 5.4 4.65 2.65 0 5.4-4.65 2.7 0 5.4 4.65 2.7 0 5.4-4.65 2.7 0 5.4 4.65 2.65 0 5.4-4.65 2.7 0 5.4 4.65 2.7 0 5.4-4.65 2.7 0 5.4 4.65 2.65 0 5.4-4.65 2.7 0 5.4 4.65 2.7 0 5.4-4.65 2.7 0 5.4 4.65 2.65 0 5.4-4.65 2.7 0 5.4 4.65 2.7 0 5.4-4.65 2.7 0 5.4 4.65 2.65 0 5.4-4.65 2.7 0 5.4 4.65 2.7 4.65-2.7 4.65 2.7 4.65-2.7 4.65 2.7 4.65-2.7 4.7 2.7 4.65-2.7 4.65 2.7 4.65-2.7 4.65 2.7 4.65-2.7 4.65 2.7 4.65-2.7 4.65 2.7 4.65-2.7 4.7 2.7 4.65-2.7 4.65 2.7 4.65-2.7 4.65 2.7 4.65-2.7 4.65 2.7 4.65-2.7 4.65 2.7 4.65-2.7 4.65 2.7 4.65-2.7 4.65 2.7 4.65-2.7 4.7 2.7 4.65-2.7 4.65 2.7 4.65-2.7 4.65 2.7 4.65-2.7m-9.3 0l0-5.4 4.65-2.7 4.65 2.7m-9.3-10.75l0-5.4 4.65-2.7 4.65 2.7 0 5.4-4.65 2.65-4.65-2.65-4.65 2.65-4.65-2.65m23.25 8.05l0-5.4m-9.3 5.4l0-5.4m4.65-18.85l0-5.4 4.65-2.7 4.65 2.7 0 5.4-4.65 2.7-4.65-2.7-4.65 2.7-4.65-2.7 0-5.4 4.65-2.7 4.65 2.7m9.3 16.2l-4.65-2.7 0-5.4m-4.65 8.1l4.65-2.7m-9.3 0l0-5.4m0-10.8l0-5.4 4.65-2.65 4.65 2.65 0 5.4m9.3 16.2l0-5.4 4.65-2.7 4.7 2.7 0 5.4m-9.35-5.4l-4.65-2.7m-4.65-13.5l4.65-2.65 4.65 2.65 0 5.4-4.65 2.7m9.3 5.4l0-5.4 4.7-2.7 4.65 2.7 0 5.4-4.65 2.7m0-10.8l0-5.4 4.65-2.65 4.65 2.65 0 5.4-4.65 2.7m-14-2.7l4.65 2.7m-37.2 37.75l0-5.4 4.65-2.7 4.65 2.7m-27.95 5.4l0-5.4 4.65-2.7 4.65 2.7 0 5.4m0-5.4l4.7-2.7 4.65 2.7m-9.35-10.75l0-5.4 4.7-2.7 4.65 2.7 0 5.4-4.65 2.65-4.7-2.65-4.65 2.65-4.65-2.65 0-5.4 4.65-2.7 4.65 2.7m-4.65 13.45l0-5.4m18.65 5.4l0-5.4m-9.3 5.4l0-5.4m-23.3 13.5l0-5.4 4.65-2.7 4.65 2.7m-18.6 5.4l0-5.4 4.65-2.7 4.65 2.7m-4.65-8.1l-4.65-2.65 0-5.4 4.65-2.7 4.65 2.7 0 5.4-4.65 2.65zm13.95-2.65l-4.65 2.65-4.65-2.65m-4.65 8.05l0-5.4m9.3 5.4l0-5.4m4.65-8.05l-4.65-2.7 0-5.4 4.65-2.7 4.65 2.7 0 5.4m-18.6 0l0-5.4 4.65-2.7 4.65 2.7m-9.3-16.2l4.65-2.65 4.65 2.65 0 5.4-4.65 2.7-4.65-2.7 0-5.4-4.65-2.65 0-5.4 4.65-2.7 4.65 2.7 0 5.4m4.65 8.05l4.65 2.7 0 5.4m-9.3 10.8l4.65-2.7m-4.65-13.5l0 5.4m23.3 8.1l0-5.4 4.65-2.7 4.65 2.7 0 5.4-4.65 2.7m-18.65-16.2l4.65-2.7 4.65 2.7 0 5.4-4.65 2.7m9.35 0l-4.7-2.7m4.7-13.5l4.65-2.65 4.65 2.65 0 5.4-4.65 2.7-4.65-2.7 0-5.4-4.7-2.65 0-5.4-4.65-2.7 0-5.4 4.65-2.7 4.7 2.7 0 5.4-4.7 2.7m-13.95 8.05l4.65-2.65 4.65 2.65 0 5.4m4.65 2.7l4.7-2.7m4.65 2.7l0 5.4m0-16.15l0-5.4 4.65-2.7 4.65 2.7 0 5.4-4.65 2.65m-14-18.85l0-5.4 4.7-2.7 4.65 2.7 0 5.4-4.65 2.7m4.65-8.1l4.65-2.7 4.65 2.7 0 5.4-4.65 2.7-4.65-2.7m-4.65 8.1l4.65 2.7m4.65-2.7l0-5.4m-18.65 5.4l-4.65 2.7-4.65-2.7 0-5.4 4.65-2.7 4.65 2.7m-4.65 8.1l0 5.4m-13.95-13.5l-4.65-2.7 0-5.4 4.65-2.7 4.65 2.7 0 5.4-4.65 2.7zm4.65-8.1l4.65-2.7 4.65 2.7 0 5.4m-13.95 8.1l0-5.4m9.3 0l-4.65-2.7m0 10.8l4.65-2.7m0-21.6l-4.65-2.65 0-5.4 4.65-2.7 4.65 2.7 0 5.4-4.65 2.65zm0 5.4l0-5.4m-9.3 5.4l0-5.4 4.65-2.65m0-5.4l-4.65-2.7 0-5.4 4.65-2.7 4.65 2.7 0 5.4m23.3 8.1l0-5.4 4.65-2.7 4.65 2.7 0 5.4-4.65 2.65-4.65-2.65zm4.65 8.05l0-5.4m-14 8.1l-4.65-2.7 0-5.4 4.65-2.65 4.7 2.65 0 5.4m-14-13.45l4.65-2.7 4.65 2.7 0 5.4m9.35-5.4l-4.65-2.7 0-5.4 4.65-2.7 4.65 2.7 0 5.4m-27.95-5.4l4.65-2.7 4.65 2.7 0 5.4m4.65 2.7l4.7-2.7m0 10.75l4.65-2.65m-18.65 10.75l4.65-2.7m0-5.4l-4.65-2.65m60.55 35l-4.7-2.65 0-5.4 4.7-2.7 4.65 2.7 0 5.4m-18.65 0l0-5.4 4.65-2.7 4.65 2.7m-9.3-16.2l4.65-2.7 4.65 2.7 0 5.4-4.65 2.7-4.65-2.7 0-5.4-4.65-2.7 0-5.4m13.95 8.1l4.7-2.7 4.65 2.7 0 5.4-4.65 2.7-4.7-2.7m4.7 8.1l0-5.4m-9.35 5.4l0-5.4m-13.95 13.5l0-5.4 4.65-2.7 4.65 2.7m-18.6 0l4.65-2.7 4.65 2.7m-9.3-16.2l4.65-2.7 4.65 2.7 0 5.4-4.65 2.7-4.65-2.7m18.6 0l-4.65 2.7-4.65-2.7m4.65 8.1l0-5.4m-9.3 5.4l0-5.4m4.65-18.85l0-5.4 4.65-2.7 4.65 2.7 0 5.4-4.65 2.65-4.65-2.65-4.65 2.65-4.65-2.65m4.65 8.05l0-5.4m4.65-8.05l-4.65-2.7 0-5.4 4.65-2.7 4.65 2.7 0 5.4m-13.95 2.7l4.65-2.7m27.95 16.15l0-5.4 4.65-2.65 4.65 2.65 0 5.4-4.65 2.7m-4.65-8.1l-4.7-2.65 0-5.4 4.7-2.7 4.65 2.7 0 5.4m-14 8.05l0-5.4 4.65-2.65m-4.65 2.65l-4.65-2.65m9.3-5.4l-4.65-2.7 0-5.4 4.65-2.7 4.7 2.7 0 5.4m-14 2.7l4.65-2.7m-13.95 18.85l4.65-2.7m-13.95 40.45l-4.65 2.7m0-10.8l4.65 2.7m-4.65 13.5l4.65 2.7m23.25-24.3l4.65-2.65m-23.25 2.65l-4.65-2.65m-18.65 0l-4.65 2.65m83.8 37.75l-4.65 2.7-4.65-2.7 0-5.4 4.65-2.65 4.65 2.65 0 5.4 4.65 2.7m0-10.75l-4.65 2.65m-4.65 13.5l0-5.4m-18.6 0l4.65-2.7 4.65 2.7 0 5.4m-9.3-21.55l4.65-2.7 4.65 2.7 0 5.4-4.65 2.65-4.65-2.65m9.3 0l4.65 2.65m-9.3 5.4l0-5.4m4.65 8.1l4.65-2.7m0-16.15l0-5.4 4.65-2.7 4.65 2.7 0 5.4-4.65 2.7-4.65-2.7-4.65 2.7m-4.65-18.9l4.65 2.7 0 5.4-4.65 2.7-4.65-2.7m4.65 8.1l0-5.4m9.3-10.8l0-5.4 4.65-2.65 4.65 2.65 0 5.4-4.65 2.7-4.65-2.7-4.65 2.7m9.3 5.4l0-5.4m-9.3 5.4l4.65 2.7m13.95-2.7l-4.65 2.7m0 5.4l4.65 2.7m-4.65-18.9l4.65 2.7m-9.3 21.6l0-5.4m0-26.95l0-5.4 4.65-2.7 4.65 2.7m-9.3 0l-4.65-2.7 0-5.4 4.65-2.7 4.65 2.7 0 5.4m4.65-8.1l-4.65 2.7m-23.25 8.1l4.65-2.7 4.65 2.7 0 5.4-4.65 2.65m0-26.95l4.65 2.7 0 5.4-4.65 2.7-4.65-2.7m18.6 0l0-5.4 4.65-2.7 4.65 2.7m-18.6 5.4l4.65 2.7m-9.3 5.4l0-5.4m4.65 8.1l4.65-2.7m-9.3-21.6l4.65-2.65 4.65 2.65 0 5.4-4.65 2.7m0-10.75l0-5.4 4.65-2.7 4.65 2.7 0 5.4-4.65 2.65m-13.95-8.05l4.65-2.7 4.65 2.7m-4.65-2.7l0-5.4 4.65-2.7 4.65 2.7 0 5.4m4.65 8.1l4.65 2.65 0 5.4m4.65-8.05l-4.65 2.65m-4.65-8.05l4.65-2.7 4.65 2.7m-13.95-8.1l4.65-2.7 4.65 2.7 0 5.4m-9.3 16.15l4.65 2.7m9.3 21.6l-4.65 2.65m-13.95-2.65l4.65 2.65m9.3-59.3l-4.65 2.7-4.65-2.7 0-5.4 4.65-2.65 4.65 2.65 0 5.4 4.65 2.7m0-10.75l-4.65 2.65m-4.65 13.5l0-5.4m-9.3 5.4l0-5.4 4.65-2.7m-13.95 2.7l-4.65-2.7 0-5.4 4.65-2.65 4.65 2.65 0 5.4-4.65 2.7 0 5.4-4.65 2.7m13.95-8.1l-4.65-2.7m9.3-5.4l-4.65-2.65 0-5.4 4.65-2.7 4.65 2.7 0 5.4m-23.25 2.65l-4.7-2.65 0-5.4 4.7-2.7 4.65 2.7 0 5.4m4.65 2.65l4.65-2.65m4.65-13.5l-4.65-2.7 0-5.4 4.65-2.7 4.65 2.7 0 5.4-4.65 2.7zm0 5.4l0-5.4m-4.65 8.1l-4.65-2.7 0-5.4 4.65-2.7m-4.65 2.7l-4.65-2.7 0-5.4 4.65-2.7 4.65 2.7m-4.65-2.7l0-5.4 4.65-2.65 4.65 2.65 0 5.4m4.65 8.1l4.65 2.7 0 5.4-4.65 2.7m9.3-10.8l-4.65 2.7m-9.3-16.2l4.65-2.65 4.65 2.65 0 5.4-4.65 2.7m4.65-2.7l4.65 2.7m-27.9 16.2l4.65-2.7m18.6 0l4.65 2.7m-9.3-26.95l0-5.4 4.65-2.7 4.65 2.7m0-10.8l-4.65 2.7-4.65-2.7 0-5.4 4.65-2.7 4.65 2.7m-4.65 8.1l0 5.4m-4.65 2.7l-4.65-2.7 0-5.4 4.65-2.7m-13.95 18.85l-4.65-2.65 0-5.4 4.65-2.7 4.65 2.7 0 5.4m-4.65-24.3l4.65 2.7 0 5.4-4.65 2.7-4.65-2.7 0-5.4 4.65-2.7 0-5.4 4.65-2.65 4.65 2.65m-4.65 8.1l4.65-2.7 4.65 2.7m-4.65 8.1l-4.65-2.7m0 10.8l4.65-2.7m-9.3 0l0-5.4m9.3-10.8l0-5.4 4.65-2.65 4.65 2.65 0 5.4m-23.25 2.7l-4.65-2.7 0-5.4 4.65-2.65 4.65 2.65m-4.65-2.65l0-5.4 4.65-2.7 4.65 2.7 0 5.4m-4.65-8.1l0-5.4m18.6 0l0 5.4-4.65 2.7-4.65-2.7 0-5.4m4.65 13.5l0-5.4m-4.65-2.7l-4.65 2.7m18.6 5.4l-4.65 2.65m0-10.75l4.65 2.7m0 37.75l-4.65 2.65m-32.6 45.85l0-5.4 4.7-2.7m-9.35 10.8l-4.65-2.7 0-5.4 4.65-2.7 4.65 2.7m0-10.75l-4.65 2.65-4.65-2.65 0-5.4 4.65-2.7 4.65 2.7m-4.65 8.05l0 5.4m-13.95 8.1l0-5.4 4.65-2.7 4.65 2.7m-13.95 8.1l-4.65-2.7 0-5.4 4.65-2.7 4.65 2.7m-9.3-16.15l4.65-2.7 4.65 2.7 0 5.4-4.65 2.65-4.65-2.65 0-5.4-4.65-2.7 0-5.4m13.95 13.5l4.65 2.65 0 5.4m-9.3 0l0-5.4m4.65-18.85l0-5.4 4.65-2.7 4.65 2.7 0 5.4-4.65 2.7-4.65-2.7zm9.3 10.8l-4.65-2.7 0-5.4m-9.3 5.4l0-5.4 4.65-2.7m-4.65 2.7l-4.65-2.7 0-5.4 4.65-2.7 4.65 2.7m-4.65-2.7l0-5.4 4.65-2.65 4.65 2.65 0 5.4m18.65 16.2l0-5.4 4.65-2.7m-4.65 2.7l-4.7-2.7 0-5.4 4.7-2.7 4.65 2.7m-18.65 5.4l4.65 2.7 0 5.4m4.65-13.5l-4.65-2.7 0-5.4 4.65-2.65 4.7 2.65 0 5.4m-14 2.7l4.65-2.7m4.65 8.1l-4.65 2.7m-13.95 8.1l4.65-2.7m0 10.75l4.65-2.65m-32.55 18.85l-4.7-2.7 0-5.4 4.7-2.7 4.65 2.7 0 5.4m-4.65-8.1l0-5.4 4.65-2.65 4.65 2.65 0 5.4-4.65 2.7m-18.65 5.4l0-5.4 4.65-2.7 4.65 2.7m4.7-8.1l-4.7-2.65 0-5.4 4.7-2.7 4.65 2.7 0 5.4m-9.35 0l-4.65 2.65-4.65-2.65 0-5.4 4.65-2.7 4.65 2.7m-4.65 8.05l0 5.4m-4.65 2.7l-4.65-2.7 0-5.4 4.65-2.65m-13.95 18.85l-4.65-2.7 0-5.4 4.65-2.7 4.65 2.7 0 5.4m0-16.15l-4.65 2.65-4.65-2.65 0-5.4 4.65-2.7 4.65 2.7 0 5.4 4.65 2.65m0 5.4l-4.65 2.7m-4.65-2.7l0-5.4m9.3-16.15l-4.65-2.7 0-5.4 4.65-2.7 4.65 2.7 0 5.4-4.65 2.7zm4.65 8.1l-4.65-2.7 0-5.4m-9.3 5.4l0-5.4 4.65-2.7m0-5.4l-4.65-2.7 0-5.4 4.65-2.65 4.65 2.65 0 5.4m32.6 8.1l-4.65 2.7-4.65-2.7 0-5.4 4.65-2.7 4.65 2.7m-23.3 13.5l0-5.4 4.65-2.7 4.7 2.7 0 5.4m-9.35-21.6l4.65-2.65 4.7 2.65 0 5.4-4.7 2.7-4.65-2.7 0-5.4-4.65-2.65 0-5.4 4.65-2.7 4.65 2.7m4.7 8.05l4.65-2.65 4.65 2.65 0 5.4m-9.3 0l4.65 2.7m-9.35 5.4l0-5.4m9.35 5.4l-4.65 2.7m4.65 8.1l4.65-2.7m-18.65-5.4l-4.65-2.7m0-5.4l4.65-2.7m-13.95 18.9l4.65-2.7m23.3-29.65l-4.65-2.7 0-5.4 4.65-2.7 4.65 2.7 0 5.4-4.65 2.7 0 5.4m-9.35 0l0-5.4 4.7-2.7m0-5.4l-4.7-2.7 0-5.4 4.7-2.7 4.65 2.7 0 5.4m-9.35 0l-4.65 2.7-4.65-2.7 0-5.4 4.65-2.7 4.65 2.7m4.7-2.7l0-5.4 4.65-2.65 4.65 2.65 0 5.4-4.65 2.7m-14 8.1l0 5.4m-13.95 8.1l0-5.4 4.65-2.7 4.65 2.7m-13.95 8.05l-4.65-2.65 0-5.4 4.65-2.7 4.65 2.7m-4.65-8.1l-4.65-2.7 0-5.4 4.65-2.7 4.65 2.7 0 5.4-4.65 2.7zm13.95-8.1l-4.65-2.7 0-5.4 4.65-2.65 4.65 2.65 0 5.4m-9.3 16.2l0-5.4 4.65-2.7m-13.95 8.1l0-5.4m4.65-2.7l4.65 2.7m0-10.8l-4.65 2.7m-4.65-2.7l0-5.4 4.65-2.65 4.65 2.65m0-16.15l0 5.4-4.65 2.7-4.65-2.7 0-5.4m18.6 0l0 5.4-4.65 2.7-4.65-2.7m-4.65 2.7l0 5.4m9.3-5.4l0 5.4m4.65-8.1l4.65 2.7 0 5.4-4.65 2.65m9.35 0l-4.7-2.65m4.7-13.5l0 5.4-4.7 2.7m23.3-8.1l0 5.4-4.65 2.7-4.65-2.7 0-5.4m-4.65 13.5l0-5.4 4.65-2.7m-9.3 0l4.65 2.7m37.2 37.75l0-5.4 4.7-2.7 4.65 2.7m-14 8.05l-4.65-2.65 0-5.4 4.65-2.7 4.65 2.7m-4.65-18.9l4.65 2.7 0 5.4-4.65 2.7-4.65-2.7 0-5.4 4.65-2.7 0-5.4 4.65-2.65 4.7 2.65m4.65 13.5l-4.65 2.7-4.7-2.7m0-5.4l4.7-2.7m0 10.8l0 5.4m-9.35 0l0-5.4m-13.95 13.5l0-5.4 4.65-2.7 4.65 2.7m-13.95 8.05l-4.65-2.65 0-5.4 4.65-2.7 4.65 2.7m-9.3-10.8l0-5.4 4.65-2.7 4.65 2.7 0 5.4-4.65 2.7-4.65-2.7-4.65 2.7m23.25-2.7l-4.65 2.7-4.65-2.7m0-5.4l4.65-2.7 4.65 2.7m-4.65 13.5l0-5.4m-9.3 5.4l0-5.4m0-10.8l0-5.4 4.65-2.65 4.65 2.65 0 5.4m-9.3-5.4l-4.65-2.65 0-5.4m13.95-8.1l0 5.4-4.65 2.7-4.65-2.7m4.65 2.7l0 5.4m4.65 2.65l4.65-2.65 4.65 2.65m-4.65-2.65l0-5.4 4.65-2.7 4.65 2.7 0 5.4m-4.65-8.1l0-5.4m9.35 0l0 5.4-4.7 2.7m-13.95-2.7l4.65 2.7m-18.6 70.1l-4.65 2.65m0 5.4l4.65 2.7m-4.65-67.4l4.65 2.7m-4.65 13.5l4.65 2.7m0 5.4l-4.65 2.65m23.25-2.65l-4.65 2.65m-41.9-2.65l-4.65 2.65m32.6-35l-4.65 2.65m37.25-10.75l4.65 2.7m0 37.75l-4.65 2.65m9.3 48.55l-4.65-2.7m-37.25 0l-4.65 2.7m23.25-2.7l-4.65 2.7m51.2-2.7l-4.65 2.7m-79.15-2.7l-4.65 2.7m-116.35 94.35l0-5.4 4.65-2.7 4.65 2.7 0 5.4m0-5.4l4.7-2.7 4.65 2.7 0 5.4m-27.95 0l0-5.4 4.65-2.7 4.65 2.7m-4.65-8.1l-4.65-2.65 0-5.4 4.65-2.7 4.65 2.7 0 5.4-4.65 2.65zm4.65-8.05l4.65-2.7 4.65 2.7 0 5.4-4.65 2.65-4.65-2.65m9.3-5.4l4.7-2.7 4.65 2.7 0 5.4-4.65 2.65-4.7-2.65m-13.95 8.05l0-5.4m9.3 5.4l0-5.4m9.35 5.4l0-5.4m-27.95 5.4l4.65 2.7m0-10.75l-4.65 2.65m0-26.95l4.65 2.7 0 5.4-4.65 2.7m0 5.4l4.65 2.7m13.95-8.1l-4.65-2.7 0-5.4 4.65-2.7 4.65 2.7 0 5.4-4.65 2.7 0 5.4m4.65-13.5l4.7-2.7 4.65 2.7 0 5.4-4.65 2.7-4.7-2.7m4.7 8.1l0-5.4m-18.65 5.4l0-5.4 4.65-2.7m0-5.4l-4.65-2.7 0-5.4 4.65-2.65 4.65 2.65 0 5.4m9.35 0l0-5.4 4.65-2.65 4.65 2.65 0 5.4-4.65 2.7m-23.3 8.1l-4.65-2.7m0-5.4l4.65-2.7m13.95-13.45l-4.65-2.7 0-5.4 4.65-2.7 4.7 2.7 0 5.4-4.7 2.7zm4.7 8.05l-4.7-2.65 0-5.4m-13.95 8.05l-4.65-2.65 0-5.4 4.65-2.7 4.65 2.7 0 5.4m0-16.2l-4.65 2.7-4.65-2.7 0-5.4 4.65-2.7 4.65 2.7 0 5.4 4.65 2.7m4.65-2.7l0-5.4 4.7-2.7 4.65 2.7 0 5.4-4.65 2.7m-18.65 5.4l0-5.4m9.3 5.4l-4.65 2.7m-13.95-2.7l4.65 2.7m0-10.8l-4.65 2.7m0-26.95l4.65 2.7 0 5.4-4.65 2.65m23.25-2.65l0-5.4 4.7-2.7 4.65 2.7 0 5.4-4.65 2.65-4.7-2.65zm4.7 8.05l0-5.4m-4.7 8.1l-4.65-2.7 0-5.4 4.65-2.65m-13.95 8.05l0-5.4 4.65-2.65 4.65 2.65m-9.3-10.75l0-5.4 4.65-2.7 4.65 2.7 0 5.4-4.65 2.7-4.65-2.7zm18.65 0l0-5.4 4.65-2.7 4.65 2.7 0 5.4-4.65 2.7m-14-2.7l4.65 2.7m-9.3 5.4l0-5.4m0 16.15l4.65-2.7m-9.3-5.4l-4.65-2.65m0-5.4l4.65-2.7m-9.3 16.15l4.65 2.7m18.6 21.6l-4.65 2.65m-13.95-2.65l-4.65 2.65m97.75 45.85l0-5.4 4.65-2.7 4.65 2.7m-18.6 5.4l0-5.4 4.65-2.7 4.65 2.7m-4.65-8.1l-4.65-2.65 0-5.4 4.65-2.7 4.65 2.7 0 5.4-4.65 2.65 0 5.4m13.95-8.05l-4.65 2.65-4.65-2.65m4.65 2.65l0 5.4m-23.25 8.1l0-5.4 4.65-2.7 4.65 2.7m-18.65 5.4l0-5.4 4.7-2.7 4.65 2.7m-9.35-10.75l0-5.4 4.7-2.7 4.65 2.7 0 5.4-4.65 2.65-4.7-2.65-4.65 2.65-4.65-2.65m27.95 0l-4.65 2.65-4.65-2.65m-4.65 8.05l0-5.4m9.3 5.4l0-5.4m4.65-8.05l-4.65-2.7 0-5.4 4.65-2.7 4.65 2.7 0 5.4m-13.95 2.7l4.65-2.7m0-5.4l-4.65-2.7 0-5.4 4.65-2.7 4.65 2.7 0 5.4m-18.65 10.8l-4.65-2.7 0-5.4 4.65-2.7 4.7 2.7 0 5.4m4.65-13.5l-4.65-2.7 0-5.4 4.65-2.65 4.65 2.65 0 5.4m-14 8.1l0-5.4 4.7-2.7m4.65 8.1l-4.65 2.7m23.25 8.1l4.65-2.7 4.65 2.7m-4.65-8.1l-4.65-2.7 0-5.4 4.65-2.7 4.65 2.7 0 5.4-4.65 2.7 0 5.4m-9.3-5.4l4.65-2.7m0-5.4l-4.65-2.7 0-5.4 4.65-2.65 4.65 2.65 0 5.4m-9.3 0l-4.65 2.7m-27.95 37.75l0-5.4 4.65-2.7 4.65 2.7m-18.6 5.4l0-5.4 4.65-2.7 4.65 2.7m-9.3-10.75l0-5.4 4.65-2.7 4.65 2.7 0 5.4-4.65 2.65-4.65-2.65-4.65 2.65-4.65-2.65m23.25 8.05l0-5.4m-9.3 5.4l0-5.4m-13.95 13.5l0-5.4 4.65-2.7 4.65 2.7m-18.6 0l4.65-2.7 4.65 2.7m-9.3-16.15l4.65-2.7 4.65 2.7 0 5.4-4.65 2.65-4.65-2.65m13.95 8.05l0-5.4m-9.3 5.4l0-5.4m4.65-8.05l4.65-2.7 4.65 2.7m-4.65-2.7l0-5.4 4.65-2.7 4.65 2.7 0 5.4m-9.3-5.4l-4.65-2.7 0-5.4 4.65-2.7 4.65 2.7 0 5.4m-18.6 0l4.65 2.7 0 5.4m9.3-16.2l0-5.4 4.65-2.65 4.65 2.65 0 5.4-4.65 2.7m-9.3 5.4l-4.65 2.7m0-10.8l4.65 2.7m18.6 16.2l4.65-2.7m0-5.4l-4.65-2.7 0-5.4 4.65-2.7 4.65 2.7m-13.95-8.1l4.65-2.65 4.65 2.65 0 5.4m-9.3 10.8l4.65-2.7m-4.65-8.1l4.65 2.7m0-10.75l0-5.4 4.65-2.7 4.65 2.7 0 5.4-4.65 2.65m-13.95-2.65l0-5.4 4.65-2.7 4.65 2.7m-9.3-16.2l4.65-2.7 4.65 2.7 0 5.4-4.65 2.7-4.65-2.7 0-5.4-4.65-2.7 0-5.4m13.95 8.1l4.65-2.7 4.65 2.7 0 5.4-4.65 2.7-4.65-2.7m4.65 8.1l0-5.4m-9.3 5.4l0-5.4m-9.3 16.15l-4.65-2.65 0-5.4 4.65-2.7 4.65 2.7m-18.6 5.4l0-5.4 4.65-2.7 4.65 2.7m-9.3-16.2l4.65-2.7 4.65 2.7 0 5.4-4.65 2.7-4.65-2.7m18.6 0l-4.65 2.7-4.65-2.7m-4.65 8.1l0-5.4m9.3 5.4l0-5.4m-4.65-18.85l0-5.4 4.65-2.7 4.65 2.7 0 5.4-4.65 2.65-4.65-2.65-4.65 2.65-4.65-2.65m4.65 8.05l0-5.4m9.3-10.75l0-5.4 4.65-2.7 4.65 2.7 0 5.4-4.65 2.7m-13.95-2.7l4.65 2.7m23.25 13.45l0-5.4 4.65-2.65 4.7 2.65 0 5.4-4.7 2.7m-4.65-8.1l-4.65-2.65 0-5.4 4.65-2.7 4.65 2.7 0 5.4m-9.3 0l-4.65 2.65-4.65-2.65m4.65 8.05l0-5.4m9.3-10.75l0-5.4 4.65-2.7 4.7 2.7 0 5.4-4.7 2.7m-13.95-2.7l4.65 2.7m-18.6 16.15l4.65-2.7m51.2 24.3l0-5.4 4.65-2.7 4.65 2.7m-9.3 0l-4.65-2.7 0-5.4 4.65-2.7 4.65 2.7 0 5.4m-9.3-5.4l-4.65-2.7 0-5.4 4.65-2.7 4.65 2.7 0 5.4m9.3 0l-4.65 2.7m-23.25 13.5l0-5.4 4.65-2.7 4.65 2.7 0 5.4-4.65 2.65m-14-8.05l4.7-2.7 4.65 2.7m-4.65-18.9l4.65 2.7 0 5.4-4.65 2.7-4.7-2.7m18.65 0l-4.65 2.7-4.65-2.7m-4.65 8.1l0-5.4m9.3 5.4l0-5.4m4.65-8.1l-4.65-2.7 0-5.4 4.65-2.65 4.65 2.65 0 5.4m-9.3-5.4l-4.65-2.65 0-5.4 4.65-2.7 4.65 2.7 0 5.4m-4.65-8.1l0-5.4 4.65-2.7 4.65 2.7 0 5.4-4.65 2.7m-9.3 5.4l-4.65 2.65m0-10.75l4.65 2.7m23.25 8.05l-4.65-2.65 0-5.4 4.65-2.7 4.65 2.7 0 5.4-4.65 2.65 0 5.4-4.65 2.7m0-10.75l-4.65 2.65m0-10.75l4.65 2.7m-4.65-8.1l4.65-2.7 4.65 2.7 0 5.4m0 16.15l4.65 2.7m-27.9 0l4.65-2.7m9.3 16.2l-4.65 2.7m-46.55 5.4l-4.65 2.65m69.8-2.65l-4.65 2.65m-27.9 0l-4.7-2.65m23.3 2.65l-4.65-2.65m-60.5-8.1l4.65 2.7m65.15-43.15l0-5.4 4.65-2.7 4.65 2.7m-9.3 0l-4.65-2.7 0-5.4 4.65-2.65 4.65 2.65 0 5.4m-9.3-5.4l-4.65-2.65 0-5.4 4.65-2.7 4.65 2.7 0 5.4m9.3 0l-4.65 2.65m-13.95 13.5l0-5.4 4.65-2.7m-4.65 2.7l-4.65-2.7 0-5.4 4.65-2.65m-4.65 8.05l-4.65 2.7-4.65-2.7 0-5.4 4.65-2.65 4.65 2.65m-4.65 8.1l0 5.4-4.65 2.7m-4.7-2.7l0-5.4 4.7-2.7m0-5.4l-4.7-2.65 0-5.4 4.7-2.7 4.65 2.7 0 5.4m0-16.2l0-5.4 4.65-2.7 4.65 2.7 0 5.4-4.65 2.7-4.65-2.7-4.65 2.7-4.7-2.7 0-5.4 4.7-2.7 4.65 2.7m9.3 16.2l-4.65-2.7 0-5.4m-9.3 5.4l0-5.4m-4.7-8.1l-4.65-2.7 0-5.4 4.65-2.65 4.7 2.65 0 5.4m9.3 0l0-5.4 4.65-2.65 4.65 2.65 0 5.4-4.65 2.7m13.95 8.1l-4.65-2.7 0-5.4 4.65-2.7 4.65 2.7 0 5.4-4.65 2.7 0 5.4-4.65 2.7m-4.65-2.7l0-5.4 4.65-2.7m-4.65-8.1l4.65 2.7m-4.65-8.1l4.65-2.65 4.65 2.65 0 5.4m-23.25 18.9l4.65-2.7m9.3-5.4l-4.65-2.7m13.95 8.1l4.65 2.7m-41.9 24.25l-4.65-2.7 0-5.4 4.65-2.7 4.65 2.7m-18.6 5.4l0-5.4 4.65-2.7 4.65 2.7m-9.3 0l-4.65-2.7 0-5.4 4.65-2.65 4.65 2.65 0 5.4m-9.3-5.4l-4.65-2.65 0-5.4 4.65-2.7 4.65 2.7 0 5.4m18.6 0l-4.65 2.65-4.65-2.65 0-5.4 4.65-2.7 4.65 2.7m-4.65 13.45l0-5.4m-9.3 0l4.65-2.65m-13.95 18.85l-4.65-2.7 0-5.4 4.65-2.7m-13.95 2.7l-4.65-2.7 0-5.4 4.65-2.65 4.65 2.65 0 5.4-4.65 2.7 0 5.4m0-16.15l0-5.4 4.65-2.7 4.65 2.7m0 5.4l-4.65 2.65m0 5.4l4.65 2.7m0-26.95l0-5.4 4.65-2.7 4.65 2.7 0 5.4-4.65 2.7-4.65-2.7zm4.65 8.1l0-5.4m-9.3 5.4l0-5.4 4.65-2.7m-4.65 2.7l-4.65-2.7 0-5.4 4.65-2.7 4.65 2.7m-9.3 0l-4.65-2.7 0-5.4 4.65-2.65 4.65 2.65 0 5.4m9.3 0l0-5.4 4.65-2.65 4.65 2.65 0 5.4-4.65 2.7m13.95 13.5l0-5.4 4.65-2.7m-4.65 2.7l-4.65-2.7 0-5.4 4.65-2.7m-4.65 8.1l-4.65 2.7-4.65-2.7m9.3 10.8l-4.65-2.7 0-5.4m0-10.8l4.65 2.7m-9.3 16.2l4.65-2.7m-4.65-24.25l0-5.4 4.65-2.7 4.65 2.7 0 5.4-4.65 2.65m4.65-8.05l4.65-2.7 4.65 2.7 0 5.4m-18.6-21.6l4.65-2.7 4.65 2.7 0 5.4-4.65 2.7-4.65-2.7 0-5.4zm9.3 0l4.65-2.7 4.65 2.7 0 5.4-4.65 2.7-4.65-2.7m4.65 8.1l0-5.4m-9.3 5.4l0-5.4m-23.25 13.5l0-5.4 4.65-2.7 4.65 2.7 0 5.4-4.65 2.65m4.65-8.05l4.65-2.7 4.65 2.7m-18.6 0l-4.65-2.7 0-5.4 4.65-2.7 4.65 2.7 0 5.4m-9.3-5.4l-4.7-2.7 0-5.4 4.7-2.7 4.65 2.7 0 5.4m-4.65-8.1l0-5.4 4.65-2.65 4.65 2.65 0 5.4-4.65 2.7m18.6 5.4l-4.65 2.7-4.65-2.7 0-5.4 4.65-2.7 4.65 2.7m-4.65 13.5l0-5.4m-9.3-10.8l4.65 2.7m0 5.4l-4.65 2.7m4.65-18.85l0-5.4 4.65-2.7 4.65 2.7 0 5.4-4.65 2.65-4.65-2.65-4.65 2.65m-4.65-2.65l0-5.4 4.65-2.7 4.65 2.7m-4.65-2.7l0-5.4m9.3 5.4l0-5.4m9.3 21.55l0-5.4 4.65-2.65 4.65 2.65 0 5.4m-13.95-8.05l4.65 2.65m-4.65-8.05l4.65-2.7 4.65 2.7 0 5.4m-4.65-8.1l0-5.4m9.3 0l0 5.4-4.65 2.7m-13.95 13.45l0-5.4m51.2 29.7l0-5.4 4.65-2.7 4.65 2.7m-18.6 5.4l0-5.4 4.65-2.7 4.65 2.7m-4.65-8.1l-4.65-2.7 0-5.4 4.65-2.7 4.65 2.7 0 5.4-4.65 2.7 0 5.4m13.95-8.1l-4.65 2.7-4.65-2.7m0-5.4l4.65-2.7 4.65 2.7m-4.65 8.1l0 5.4m-18.6 10.75l-4.65-2.65 0-5.4 4.65-2.7 4.65 2.7m-18.65 0l4.7-2.7 4.65 2.7m-9.35-16.2l4.7-2.7 4.65 2.7 0 5.4-4.65 2.7-4.7-2.7m18.65-5.4l-4.65-2.7 0-5.4 4.65-2.65 4.65 2.65 0 5.4m-4.65 8.1l-4.65 2.7-4.65-2.7m4.65-8.1l-4.65 2.7m-4.65 8.1l0 5.4m9.3 0l0-5.4m-9.3-10.8l0-5.4 4.65-2.65 4.65 2.65m-18.65 0l4.65-2.65 4.7 2.65m-4.7-2.65l0-5.4 4.7-2.7 4.65 2.7 0 5.4m-4.65-8.1l0-5.4m18.6 0l0 5.4-4.65 2.7-4.65-2.7 0-5.4m0 5.4l-4.65 2.7m9.3 5.4l0-5.4m13.95 8.05l-4.65-2.65 0-5.4 4.65-2.7 4.65 2.7 0 5.4-4.65 2.65 0 5.4m-9.3-5.4l4.65-2.65m0-5.4l-4.65-2.7m9.3-5.4l0 5.4m-37.25 0l4.65 2.7m-23.25 40.4l-4.65-2.65m23.25 2.65l-4.65-2.65m18.65 0l-4.65 2.65m32.55-2.65l-4.65 2.65m-88.45 45.85l0-5.4 4.65-2.7 4.65 2.7 0 5.4-4.65 2.7m4.65-8.1l4.7-2.7m-18.65 10.8l-4.65-2.7 0-5.4 4.65-2.7 4.65 2.7m0-10.75l-4.65 2.65-4.65-2.65 0-5.4 4.65-2.7 4.65 2.7 0 5.4zm0-5.4l4.65-2.7 4.65 2.7 0 5.4-4.65 2.65-4.65-2.65m14 2.65l-4.7-2.65m-13.95 8.05l0-5.4m9.3 0l0 5.4m-18.6 0l4.65 2.7m0-10.75l-4.65 2.65m0-26.95l4.65 2.7 0 5.4-4.65 2.7m18.6 5.4l0-5.4 4.65-2.7 4.7 2.7 0 5.4-4.7 2.7m-13.95-2.7l0-5.4 4.65-2.7 4.65 2.7m-9.3-16.2l4.65-2.65 4.65 2.65 0 5.4-4.65 2.7-4.65-2.7 0-5.4-4.65-2.65m13.95 8.05l4.65 2.7 0 5.4m0-5.4l4.7-2.7m-14 8.1l0-5.4m-13.95 13.5l4.65 2.7m4.65-8.1l-4.65-2.7m0-5.4l4.65-2.7m4.65-8.05l0-5.4 4.65-2.7 4.65 2.7 0 5.4-4.65 2.65m4.65-8.05l4.7-2.7m-14 2.7l-4.65-2.7 0-5.4 4.65-2.7 4.65 2.7 0 5.4m-9.3-5.4l-4.65-2.7 0-5.4 4.65-2.7 4.65 2.7 0 5.4m0-5.4l4.65-2.7 4.65 2.7m0 5.4l-4.65 2.7m-18.6 5.4l4.65 2.7 0 5.4-4.65 2.65m0-26.95l4.65 2.7m0 5.4l-4.65 2.7m0-26.95l4.65 2.7 0 5.4-4.65 2.65m27.95 0l-4.7-2.65 0-5.4 4.7-2.7 4.65 2.7m-9.35 5.4l-4.65 2.65-4.65-2.65 0-5.4 4.65-2.7 4.65 2.7m-13.95 13.45l0-5.4 4.65-2.65m0-5.4l-4.65-2.7 0-5.4m18.65 0l0 5.4m-9.35-5.4l0 5.4m0 10.75l0 5.4m-13.95 18.9l4.65-2.7m0-21.6l-4.65-2.65m0-5.4l4.65-2.7m18.65 43.1l-4.7-2.65m9.35 16.15l-4.65 2.7m0 5.4l4.65 2.7m9.3 21.55l-4.65 2.7m-32.6-2.7l-4.65 2.7m27.95 0l-4.7-2.7m60.55 2.7l-4.65-2.7m-23.3 2.7l4.65-2.7m46.55 0l-4.65 2.7m4.65 56.6l4.65-2.7m0 10.8l-4.65-2.7m0-102.45l4.65-2.7m0 10.8l-4.65-2.7m4.65-45.85l-4.65-2.65m0-5.4l4.65-2.7m-4.65 99.75l4.65-2.7m0 10.75l-4.65-2.65" style="fill:none;stroke-miterlimit:1;stroke:#989898;fill-rule:evenodd;stroke-linecap:square;stroke-width:.5"/>
 </symbol>
 <g>
  <path d="m217.5 108.95c0 29.833-10.533 55.399-31.6 76.7-.7.833-1.484 1.6-2.351 2.3-3.466 3.399-7.134 6.483-11 9.25-18.267 13.467-39.366 20.2-63.3 20.2-23.967 0-45.033-6.733-63.2-20.2-4.8-3.4-9.3-7.25-13.5-11.55-16.367-16.267-26.417-35.167-30.15-56.7-.733-4.2-1.217-8.467-1.45-12.8-.1-2.4-.15-4.801-.15-7.2 0-2.534.05-4.95.15-7.25 0-.233.066-.467.2-.7 1.567-26.6 12.033-49.583 31.4-68.95 21.301-21.033 46.868-31.55 76.701-31.55 29.934 0 55.483 10.517 76.65 31.55 21.067 21.433 31.6 47.067 31.6 76.9" style="fill:#efeeee;fill-rule:evenodd"/>
 </g>
 <g>
  <path d="m195.45 43l-22.4 22.4c-8.833 13-13.25 27.867-13.25 44.6 0 17.934 5.067 33.833 15.2 47.7l19 18.95c-2.5 3.066-5.2 6.066-8.1 9-.7.833-1.484 1.6-2.351 2.3-2.533 2.5-5.167 4.816-7.899 6.95l-17.55-17.55c-13.934-10.733-30.133-16.1-48.6-16.1-17.933 0-33.833 5.1-47.7 15.3l-18.55 18.6c-3.767-2.867-7.333-6.034-10.7-9.5-2.8-2.801-5.417-5.667-7.85-8.601l19.15-19.2c10.066-13.966 15.1-29.916 15.1-47.85 0-17.5-4.867-33.017-14.6-46.55l-21.05-21c2.833-3.6 5.917-7.067 9.25-10.4 2.934-2.867 5.934-5.55 9-8.05l20.35 20.351c13.8 10.233 29.667 15.35 47.6 15.35 18.467 0 34.666-5.367 48.6-16.1l19.3-19.25c2.899 2.367 5.732 4.933 8.5 7.7 3.467 3.533 6.65 7.183 9.55 10.95" style="fill:#010101;fill-rule:evenodd"/>
 </g>
 <g>
  <g style="clip-path:url(#1)">
   <use xlink:href="#0" width="228.55" height="197.233" x="-114.25" y="-98.617" transform="matrix(1.1415 0 0-1.1415 105.5 107.75)"/>
  </g>
 </g>
 <g>
  <g style="fill-rule:evenodd">
   <path d="m79.1 110.95c-.033-.667-.05-1.333-.05-2 0-.7.017-1.366.05-2 0-.067.017-.134.05-.2.434-7.367 3.333-13.733 8.7-19.1 5.9-5.833 12.983-8.75 21.25-8.75 8.301 0 15.384 2.917 21.25 8.75 5.834 5.934 8.75 13.033 8.75 21.3 0 8.267-2.916 15.35-8.75 21.25-.199.233-.416.45-.649.649-.967.934-1.983 1.784-3.05 2.551-5.066 3.733-10.917 5.6-17.551 5.6-6.633 0-12.466-1.866-17.5-5.6-1.333-.934-2.583-2-3.75-3.2-4.533-4.5-7.317-9.733-8.35-15.7-.2-1.166-.333-2.35-.4-3.55m47 16.3l3.601 3.6-3.601-3.6" style="fill:#35c6f4"/>
   <g style="fill:none;stroke-miterlimit:1;stroke:#35c6f4">
    <path d="m158.6 60.25l-15 14.65m-111.9-41.8l40.75 40.65m53.65 53.5l3.601 3.6m27.349 27.15l27.65 28.6m-31.65-32.65l-10.75-11.2m44.3-109.75l-28 27.25m-125.45 126l27.35-27.4" style="stroke-width:2"/>
    <path d="m158.6 60.25l-16.949 17.2m-82.251-16.1l17.2 17.15m-16.1 80.35l16.75-17.399m75.8 12.499l4 4.05m-17.6-17.6l13.6 13.55" style="stroke-width:7"/>
   </g>
  </g>
 </g>
</svg>
