<?xml version="1.0" encoding="utf-8"?>
<svg width="1024" height="1024" version="1.1" viewBox="0 0 1024 1024" xmlns="http://www.w3.org/2000/svg">
  <defs>
    <clipPath id="a">
      <path d="M 257.667 179.205 C 257.667 179.205 369.3 275 512 275 C 654.7 275 766.335 179.2 766.335 179.2 L 830.553 114.982 C 859.466 138.211 885.788 164.533 909.017 193.446 L 844.796 257.667 C 844.796 257.667 749 369.3 749 512 C 749 654.7 844.801 766.335 844.801 766.335 L 909.019 830.553 C 885.79 859.466 859.468 885.788 830.554 909.017 L 766.333 844.796 C 766.333 844.796 654.7 749 512 749 C 369.3 749 257.665 844.801 257.665 844.801 L 193.447 909.019 C 164.534 885.79 138.212 859.468 114.983 830.554 L 179.204 766.333 C 179.204 766.333 275 654.7 275 512 C 275 369.3 179.199 257.665 179.199 257.665 L 114.981 193.447 C 138.21 164.534 164.532 138.212 193.445 114.983 L 257.667 179.205 Z"/>
    </clipPath>
  </defs>
  <rect style="fill: rgb(51, 51, 51);" x="0" y="0" width="1024" height="1024" rx="0" ry="0"/>
  <g id="sonarr-group-logo" transform="matrix(0.901905, 0, 0, 0.901905, 50.197136, 45.979397)">
    <circle id="sonarr-outline" cx="512" cy="512" r="509" style="fill: rgb(55, 55, 55);"/>
    <path id="sonarr-black" d="M 257.667 179.205 C 257.667 179.205 369.3 275 512 275 C 654.7 275 766.335 179.2 766.335 179.2 L 830.553 114.982 C 859.466 138.211 885.788 164.533 909.017 193.446 L 844.796 257.667 C 844.796 257.667 749 369.3 749 512 C 749 654.7 844.801 766.335 844.801 766.335 L 909.019 830.553 C 885.79 859.466 859.468 885.788 830.554 909.017 L 766.333 844.796 C 766.333 844.796 654.7 749 512 749 C 369.3 749 257.665 844.801 257.665 844.801 L 193.447 909.019 C 164.534 885.79 138.212 859.468 114.983 830.554 L 179.204 766.333 C 179.204 766.333 275 654.7 275 512 C 275 369.3 179.199 257.665 179.199 257.665 L 114.981 193.447 C 138.21 164.534 164.532 138.212 193.445 114.983 L 257.667 179.205 Z" style="fill: rgb(50, 50, 50);"/>
    <path id="sonarr-honeycomb" d="M 897.767 33.768 L 922.895 48.208 L 947.767 33.768 L 947.767 4.888 L 922.895 -9.552 L 897.767 4.888 Z M 848.024 4.888 L 823.152 -9.552 L 798.3 4.888 L 798.3 33.768 L 823.152 48.208 L 848.024 33.768 L 848.024 4.888 L 872.895 -9.552 L 897.767 4.888 M 848.024 33.768 L 872.895 48.208 L 897.767 33.768 M 848.024 91.272 L 848.024 120.151 L 872.895 134.591 L 897.767 120.151 L 897.767 91.272 L 872.895 77.087 L 848.024 91.272 L 823.152 77.087 L 798.3 91.272 M 897.769 120.151 L 922.897 134.591 L 947.768 120.151 L 947.768 91.272 L 922.897 77.087 L 897.769 91.272 M 922.897 48.208 L 922.897 77.087 M 872.896 48.208 L 872.896 77.087 M 947.768 4.888 L 972.639 -9.552 L 997.511 4.888 L 1022.383 -9.552 L 1047.254 4.888 L 1072.107 -9.552 L 1096.979 4.888 L 1096.979 33.768 L 1121.851 48.208 L 1121.851 77.087 L 1096.979 91.272 L 1096.979 120.151 L 1121.851 134.591 L 1121.851 163.471 L 1096.979 177.911 L 1096.979 206.791 L 1121.851 221.231 L 1121.851 250.11 L 1096.979 264.275 L 1096.979 293.155 L 1121.851 307.594 L 1121.851 336.474 L 1096.979 350.914 L 1096.979 379.794 L 1121.851 394.234 L 1121.851 423.114 L 1096.979 437.279 L 1096.979 466.159 L 1121.851 480.599 L 1121.851 509.478 L 1096.979 523.937 L 1096.979 552.817 L 1121.851 567.257 L 1121.851 596.137 L 1096.979 610.301 L 1096.979 639.181 L 1121.851 653.621 L 1121.851 682.5 L 1096.979 696.94 L 1096.979 725.82 L 1121.851 740.26 L 1121.851 769.14 L 1096.979 783.305 L 1096.979 812.185 L 1121.851 826.625 L 1121.851 855.504 L 1096.979 869.944 L 1096.979 898.824 L 1121.851 913.264 L 1121.851 942.144 L 1096.979 956.327 L 1096.979 985.207 L 1121.851 999.647 L 1121.851 1028.526 L 1096.979 1042.966 L 1072.107 1028.526 L 1047.254 1042.966 L 1022.383 1028.526 L 997.511 1042.966 L 972.639 1028.526 L 947.768 1042.966 L 922.897 1028.526 L 897.769 1042.966 L 872.896 1028.526 L 848.025 1042.966 L 823.154 1028.526 L 798.301 1042.966 L 773.429 1028.526 L 748.557 1042.966 L 723.686 1028.526 L 698.815 1042.966 L 673.942 1028.526 L 648.814 1042.966 L 623.943 1028.526 L 599.072 1042.966 L 574.2 1028.526 L 549.347 1042.966 L 524.475 1028.526 L 499.604 1042.966 L 474.732 1028.526 L 449.86 1042.966 L 424.989 1028.526 L 400.136 1042.966 L 375.264 1028.526 L 350.393 1042.966 L 325.521 1028.526 L 300.393 1042.966 L 275.522 1028.526 L 250.65 1042.966 L 225.778 1028.526 L 200.907 1042.966 L 176.036 1028.526 L 151.163 1042.966 L 126.311 1028.526 L 101.439 1042.966 L 76.567 1028.526 L 51.439 1042.966 L 26.568 1028.526 L 1.696 1042.966 L -23.175 1028.526 L -48.047 1042.966 L -72.919 1028.526 L -72.919 999.647 L -97.79 985.207 L -97.79 956.327 L -72.919 942.144 L -72.919 913.264 L -97.79 898.824 L -97.79 869.944 L -72.919 855.504 L -72.919 826.625 L -97.79 812.185 L -97.79 783.305 L -72.919 769.14 L -72.919 740.26 L -97.79 725.82 L -97.79 696.94 L -72.919 682.5 L -72.919 653.621 L -97.79 639.181 L -97.79 610.301 L -72.919 596.137 L -72.919 567.257 L -97.79 552.817 L -97.79 523.937 L -72.919 509.478 L -72.919 480.599 L -97.79 466.159 L -97.79 437.279 L -72.919 423.114 L -72.919 394.234 L -97.79 379.794 L -97.79 350.914 L -72.919 336.474 L -72.919 307.594 L -97.79 293.155 L -97.79 264.275 L -72.919 250.11 L -72.919 221.231 L -97.79 206.791 L -97.79 177.911 L -72.919 163.471 L -72.919 134.591 L -97.79 120.151 L -97.79 91.272 L -72.919 77.087 L -72.919 48.208 L -97.79 33.768 L -97.79 4.888 L -72.919 -9.552 L -48.047 4.888 L -23.175 -9.552 L 1.696 4.888 L 26.568 -9.552 L 51.439 4.888 L 76.567 -9.552 L 101.439 4.888 L 126.311 -9.552 L 151.163 4.888 L 176.036 -9.552 L 200.907 4.888 L 225.778 -9.552 L 250.65 4.888 L 275.522 -9.552 L 300.393 4.888 L 325.521 -9.552 L 350.393 4.888 L 375.264 -9.552 L 400.136 4.888 L 424.989 -9.552 L 449.86 4.888 L 474.732 -9.552 L 499.604 4.888 L 524.475 -9.552 L 549.347 4.888 L 574.2 -9.552 L 599.072 4.888 L 623.943 -9.552 L 648.814 4.888 L 673.942 -9.552 L 698.815 4.888 L 723.686 -9.552 L 748.557 4.888 L 773.429 -9.552 L 798.301 4.888 M 748.557 4.888 L 748.557 33.768 L 773.429 48.208 L 798.301 33.768 M 748.557 91.272 L 748.557 120.151 L 773.429 134.591 L 798.301 120.151 L 798.301 91.272 L 773.429 77.087 L 748.557 91.272 L 723.686 77.087 L 698.815 91.272 M 823.155 48.208 L 823.155 77.087 M 773.43 48.208 L 773.43 77.087 M 798.302 177.911 L 798.302 206.791 L 823.155 221.231 L 848.026 206.791 L 848.026 177.911 L 823.155 163.471 L 798.302 177.911 L 773.43 163.471 L 748.559 177.911 L 748.559 206.791 L 773.43 221.231 L 798.302 206.791 M 848.026 120.151 L 823.155 134.591 L 823.155 163.471 M 798.302 120.151 L 823.155 134.591 M 773.43 134.591 L 773.43 163.471 M 773.43 221.231 L 773.43 250.11 L 798.302 264.275 L 823.155 250.11 L 823.155 221.231 M 872.898 134.591 L 872.898 163.471 L 897.77 177.911 L 922.898 163.471 L 922.898 134.591 M 872.898 163.471 L 848.026 177.911 M 823.155 250.11 L 848.026 264.275 L 872.898 250.11 L 872.898 221.231 L 848.026 206.791 M 897.77 177.911 L 897.77 206.791 L 922.898 221.231 L 947.769 206.791 L 947.769 177.911 L 922.898 163.471 M 922.898 221.231 L 922.898 250.11 L 947.769 264.275 L 972.641 250.11 L 972.641 221.231 L 947.769 206.791 M 872.898 221.231 L 897.77 206.791 M 698.813 4.886 L 698.813 33.766 L 723.685 48.206 L 748.556 33.766 M 599.068 4.886 L 599.068 33.766 L 623.939 48.206 L 648.81 33.766 L 648.81 4.886 M 648.81 33.766 L 673.938 48.206 L 698.811 33.766 M 648.81 91.269 L 648.81 120.148 L 673.938 134.588 L 698.811 120.148 L 698.811 91.269 L 673.938 77.085 L 648.81 91.269 L 623.939 77.085 L 599.068 91.269 L 599.068 120.148 L 623.939 134.588 L 648.81 120.148 M 623.939 48.206 L 623.939 77.085 M 723.682 48.206 L 723.682 77.085 M 673.938 48.206 L 673.938 77.085 M 549.341 4.886 L 549.341 33.766 L 574.195 48.206 L 599.066 33.766 M 499.597 4.886 L 499.597 33.766 L 524.469 48.206 L 549.34 33.766 M 524.469 77.085 L 499.597 91.269 L 499.597 120.148 L 524.469 134.588 L 549.34 120.148 L 549.34 91.269 Z M 599.066 91.269 L 574.195 77.085 L 549.341 91.269 M 524.47 48.206 L 524.47 77.085 M 574.195 48.206 L 574.195 77.085 M 599.066 120.148 L 574.195 134.588 L 574.195 163.468 L 599.066 177.908 L 623.938 163.468 L 623.938 134.588 M 524.469 134.588 L 524.469 163.468 L 549.34 177.908 L 574.194 163.468 M 524.469 250.107 L 549.34 264.273 L 574.194 250.107 L 574.194 221.228 L 549.34 206.788 L 524.469 221.228 L 524.469 250.107 L 499.597 264.273 L 499.597 293.153 L 524.469 307.592 L 549.34 293.153 L 549.34 264.273 M 574.194 221.228 L 599.065 206.788 L 599.065 177.908 M 549.34 120.148 L 574.194 134.588 M 549.34 206.788 L 549.34 177.908 M 673.937 134.588 L 673.937 163.468 L 698.809 177.908 L 723.681 163.468 L 723.681 134.588 L 698.809 120.148 M 599.066 206.788 L 623.938 221.228 L 648.809 206.788 L 648.809 177.908 L 623.938 163.468 M 673.937 163.468 L 648.809 177.908 M 673.937 250.107 L 698.809 264.273 L 723.681 250.107 L 723.681 221.228 L 698.809 206.788 L 673.937 221.228 L 673.937 250.107 L 648.809 264.273 L 648.809 293.153 L 623.938 307.592 L 623.938 336.472 L 648.809 350.912 L 673.937 336.472 L 673.937 307.592 L 648.809 293.153 M 574.195 250.107 L 599.066 264.273 L 623.938 250.107 L 623.938 221.228 M 648.809 206.788 L 673.937 221.228 M 698.809 206.788 L 698.809 177.908 M 698.809 264.273 L 698.809 293.153 L 723.681 307.592 L 748.552 293.153 L 748.552 264.273 L 723.681 250.107 M 648.809 350.912 L 648.809 379.792 L 673.937 394.232 L 698.809 379.792 L 698.809 350.912 L 673.937 336.472 M 698.809 379.792 L 723.681 394.232 L 748.552 379.792 L 748.552 350.912 L 723.681 336.472 L 698.809 350.912 M 673.937 307.592 L 698.809 293.153 M 723.681 307.592 L 723.681 336.472 M 623.938 307.592 L 599.066 293.153 L 574.195 307.592 L 574.195 336.472 L 599.066 350.912 L 623.938 336.472 M 599.066 293.153 L 599.066 264.273 M 524.469 336.472 L 499.597 350.912 L 499.597 379.792 L 524.469 394.232 L 549.34 379.792 L 549.34 350.912 Z M 549.34 379.792 L 574.194 394.232 L 599.065 379.792 L 599.065 350.912 M 524.467 307.592 L 524.467 336.472 M 574.192 336.472 L 549.339 350.912 M 549.339 293.153 L 574.192 307.592 M 574.192 423.112 L 549.339 437.276 L 549.339 466.156 L 574.192 480.596 L 599.064 466.156 L 599.064 437.276 Z M 574.192 394.232 L 574.192 423.112 M 524.467 394.232 L 524.467 423.112 L 549.339 437.276 M 549.339 466.156 L 524.467 480.596 L 524.467 509.475 L 549.339 523.934 L 574.192 509.475 L 574.192 480.596 M 698.808 437.276 L 698.808 466.156 L 723.679 480.596 L 748.551 466.156 L 748.551 437.276 L 723.679 423.112 Z M 723.679 394.232 L 723.679 423.112 M 648.808 379.792 L 623.936 394.232 L 623.936 423.112 L 648.808 437.276 L 673.936 423.112 L 673.936 394.232 M 599.065 466.156 L 623.936 480.596 L 648.808 466.156 L 648.808 437.276 M 698.808 466.156 L 673.936 480.596 L 673.936 509.475 L 698.808 523.934 L 723.679 509.475 L 723.679 480.596 M 574.191 509.475 L 599.062 523.934 L 623.934 509.475 L 623.934 480.596 M 648.805 466.156 L 673.933 480.596 M 673.933 423.112 L 698.805 437.276 M 599.062 379.792 L 623.934 394.232 M 623.934 423.112 L 599.062 437.276 M 922.893 250.111 L 897.765 264.277 L 897.765 293.156 L 922.893 307.596 L 947.764 293.156 L 947.764 264.277 M 848.02 264.277 L 848.02 293.156 L 872.891 307.596 L 897.763 293.156 M 848.02 379.796 L 872.891 394.236 L 897.763 379.796 L 897.763 350.916 L 872.891 336.476 L 848.02 350.916 L 848.02 379.796 L 823.148 394.236 L 823.148 423.116 M 897.763 379.796 L 922.891 394.236 L 947.763 379.796 L 947.763 350.916 L 922.891 336.476 L 897.763 350.916 M 922.891 307.596 L 922.891 336.476 M 872.891 307.596 L 872.891 336.476 M 798.294 264.277 L 798.294 293.156 L 823.147 307.596 L 848.018 293.156 M 748.549 293.156 L 773.421 307.596 L 798.293 293.156 M 748.549 379.796 L 773.421 394.236 L 798.293 379.796 L 798.293 350.916 L 773.421 336.476 L 748.549 350.916 M 848.018 350.916 L 823.147 336.476 L 798.294 350.916 M 823.147 307.596 L 823.147 336.476 M 773.422 307.596 L 773.422 336.476 M 798.294 437.28 L 798.294 466.16 L 823.147 480.6 L 848.018 466.16 L 848.018 437.28 L 823.147 423.116 L 798.294 437.28 L 773.422 423.116 L 748.551 437.28 M 773.422 394.236 L 773.422 423.116 M 798.294 466.16 L 773.422 480.6 L 773.422 509.479 L 798.294 523.938 L 823.147 509.479 L 823.147 480.6 M 748.549 466.16 L 773.421 480.6 M 922.883 394.236 L 922.883 423.116 L 947.755 437.28 L 972.626 423.116 L 972.626 394.236 L 947.755 379.796 M 922.883 423.116 L 897.755 437.28 L 897.755 466.16 L 922.883 480.6 L 947.755 466.16 L 947.755 437.28 M 872.884 394.236 L 872.884 423.116 L 897.755 437.28 M 872.884 423.116 L 848.012 437.28 M 897.755 466.16 L 872.884 480.6 L 872.884 509.479 L 897.755 523.938 L 922.883 509.479 L 922.883 480.6 M 848.012 466.16 L 872.884 480.6 M 798.286 379.796 L 823.139 394.236 M 748.541 177.908 L 723.67 163.468 M 723.67 221.228 L 748.541 206.788 M 723.67 134.588 L 748.541 120.148 M 872.883 250.107 L 897.754 264.273 M 773.413 250.107 L 748.541 264.273 M 648.798 264.273 L 623.927 250.107 M 1072.089 48.203 L 1047.236 33.763 L 1022.364 48.203 L 1022.364 77.083 L 1047.236 91.266 L 1072.089 77.083 L 1072.089 48.203 L 1096.961 33.763 M 1096.961 91.266 L 1072.089 77.083 M 1047.236 4.883 L 1047.236 33.763 M 947.748 33.763 L 972.619 48.203 L 997.492 33.763 L 997.492 4.883 M 947.748 120.145 L 972.619 134.585 L 997.492 120.145 L 997.492 91.266 L 972.619 77.083 L 947.748 91.266 M 997.492 91.266 L 1022.363 77.083 M 972.619 48.203 L 972.619 77.083 M 997.492 33.763 L 1022.363 48.203 M 1022.363 134.585 L 1022.363 163.465 L 1047.234 177.905 L 1072.088 163.465 L 1072.088 134.585 L 1047.234 120.145 L 1022.363 134.585 L 997.492 120.145 M 972.619 221.225 L 997.492 206.785 L 997.492 177.905 L 972.619 163.465 L 947.748 177.905 M 972.619 134.585 L 972.619 163.465 M 1022.363 221.225 L 1022.363 250.104 L 1047.234 264.27 L 1072.088 250.104 L 1072.088 221.225 L 1047.234 206.785 L 1022.363 221.225 L 997.492 206.785 M 1047.234 177.905 L 1047.234 206.785 M 997.492 177.905 L 1022.363 163.465 M 1096.961 177.905 L 1072.089 163.465 M 1072.089 134.585 L 1096.961 120.145 M 1072.089 221.225 L 1096.961 206.785 M 1047.234 91.266 L 1047.234 120.145 M 1047.234 264.267 L 1047.234 293.147 L 1072.088 307.586 L 1096.959 293.147 M 1047.233 293.147 L 1022.362 307.586 L 1022.362 336.466 L 1047.233 350.906 L 1072.087 336.466 L 1072.087 307.586 M 1096.958 350.906 L 1072.087 336.466 M 947.745 293.147 L 972.617 307.586 L 997.489 293.147 L 997.489 264.267 L 972.617 250.103 M 972.617 394.224 L 997.489 379.784 L 997.489 350.904 L 972.617 336.464 L 947.745 350.904 M 1047.233 350.904 L 1047.233 379.784 L 1072.087 394.224 L 1096.958 379.784 M 997.489 350.904 L 1022.36 336.464 M 972.617 307.584 L 972.617 336.464 M 997.489 293.145 L 1022.36 307.584 M 972.617 423.104 L 997.489 437.268 L 1022.36 423.104 L 1022.36 394.224 L 997.489 379.784 M 997.489 437.268 L 997.489 466.148 L 1022.36 480.588 L 1047.232 466.148 L 1047.232 437.268 L 1022.36 423.104 M 947.744 466.148 L 972.615 480.588 L 997.488 466.148 M 972.615 480.588 L 972.615 509.467 L 997.488 523.926 L 1022.359 509.467 L 1022.359 480.588 M 1047.23 437.268 L 1072.084 423.104 L 1072.084 394.224 M 1096.955 437.268 L 1072.084 423.104 M 1047.23 466.148 L 1072.084 480.588 L 1096.955 466.148 M 1022.358 509.467 L 1047.229 523.926 L 1072.083 509.467 L 1072.083 480.588 M 1022.358 394.224 L 1047.229 379.784 M 1096.955 264.265 L 1072.084 250.1 M 997.486 264.265 L 1022.358 250.1 M 1072.083 567.241 L 1047.229 552.801 L 1022.358 567.241 L 1022.358 596.121 L 1047.229 610.285 L 1072.083 596.121 L 1072.083 567.241 L 1096.954 552.801 M 1096.954 610.285 L 1072.083 596.121 M 1047.229 523.921 L 1047.229 552.801 M 997.486 523.921 L 997.486 552.801 L 1022.358 567.241 M 947.741 552.801 L 922.87 567.241 L 922.87 596.121 L 947.741 610.285 L 972.613 596.121 L 972.613 567.241 L 947.741 552.801 L 947.741 523.921 L 922.87 509.462 M 997.486 552.801 L 972.614 567.241 M 1022.358 596.121 L 997.486 610.285 L 997.486 639.165 L 1022.358 653.605 L 1047.229 639.165 L 1047.229 610.285 M 922.87 596.121 L 897.742 610.285 L 897.742 639.165 L 922.87 653.605 L 947.741 639.165 L 947.741 610.285 M 972.613 596.121 L 997.485 610.285 M 1022.356 682.484 L 997.485 696.924 L 997.485 725.804 L 1022.356 740.244 L 1047.228 725.804 L 1047.228 696.924 Z M 1022.356 653.605 L 1022.356 682.484 M 997.485 639.165 L 972.613 653.605 L 972.613 682.484 L 997.485 696.924 M 972.613 682.484 L 947.741 696.924 L 947.741 725.804 L 972.613 740.244 L 997.485 725.804 M 972.613 740.244 L 972.613 769.124 L 997.485 783.289 L 1022.356 769.124 L 1022.356 740.244 M 1047.228 696.924 L 1072.081 682.484 L 1072.081 653.605 L 1047.228 639.165 M 1096.954 696.924 L 1072.083 682.484 M 1022.358 769.124 L 1047.229 783.289 L 1072.083 769.124 L 1072.083 740.244 L 1047.229 725.804 M 1072.083 740.244 L 1096.954 725.804 M 947.743 639.165 L 972.614 653.605 M 1072.084 653.605 L 1096.955 639.165 M 1047.229 783.286 L 1047.229 812.166 L 1072.083 826.606 L 1096.954 812.166 M 1096.954 869.926 L 1072.083 855.486 L 1047.229 869.926 L 1047.229 898.805 L 1072.083 913.245 L 1096.954 898.805 M 1072.083 855.486 L 1072.083 826.606 M 1047.229 812.166 L 1022.358 826.606 L 1022.358 855.486 L 1047.229 869.926 M 972.613 769.122 L 947.741 783.286 L 947.741 812.166 L 972.613 826.606 L 997.485 812.166 L 997.485 783.286 M 972.613 913.245 L 997.485 898.805 L 997.485 869.926 L 972.613 855.486 L 947.741 869.926 L 947.741 898.805 L 972.613 913.245 L 972.613 942.125 L 997.485 956.309 L 1022.356 942.125 M 997.485 898.805 L 1022.356 913.245 L 1047.228 898.805 M 1022.356 855.486 L 997.485 869.926 M 997.485 812.166 L 1022.356 826.606 M 972.613 826.606 L 972.613 855.486 M 1022.356 913.245 L 1022.356 942.125 L 1047.228 956.309 L 1072.081 942.125 L 1072.081 913.245 M 947.74 898.805 L 922.869 913.245 L 922.869 942.125 L 947.74 956.309 L 972.611 942.125 M 947.74 956.309 L 947.74 985.189 L 972.611 999.629 L 997.484 985.189 L 997.484 956.309 M 972.611 999.629 L 972.611 1028.509 M 1072.081 1028.509 L 1072.081 999.629 L 1047.228 985.189 L 1022.356 999.629 L 1022.356 1028.509 M 1047.228 956.309 L 1047.228 985.189 M 1022.356 999.629 L 997.485 985.189 M 1096.954 956.309 L 1072.083 942.125 M 1072.083 999.629 L 1096.954 985.189 M 1096.954 783.284 L 1072.083 769.119 M 897.741 523.919 L 897.741 552.799 L 922.869 567.239 M 872.869 509.461 L 847.997 523.919 L 847.997 552.799 L 872.869 567.239 L 897.741 552.799 M 897.741 610.284 L 872.869 596.119 L 847.997 610.284 L 847.997 639.164 L 872.869 653.604 L 897.741 639.164 M 872.869 596.119 L 872.869 567.239 M 798.272 523.919 L 798.272 552.799 L 823.124 567.239 L 847.996 552.799 M 773.399 509.461 L 748.527 523.919 L 748.527 552.799 L 773.399 567.239 L 798.27 552.799 M 748.527 639.164 L 773.399 653.604 L 798.27 639.164 L 798.27 610.284 L 773.399 596.119 L 748.527 610.284 L 748.527 639.164 L 723.655 653.604 L 723.655 682.483 M 798.27 610.284 L 823.123 596.119 L 823.123 567.239 M 773.399 567.239 L 773.399 596.119 M 798.27 696.923 L 798.27 725.803 L 823.123 740.243 L 847.994 725.803 L 847.994 696.923 L 823.123 682.483 Z M 847.994 639.164 L 823.123 653.604 L 823.123 682.483 M 773.399 653.604 L 773.399 682.483 L 798.27 696.923 M 773.399 682.483 L 748.527 696.923 L 748.527 725.803 L 773.399 740.243 L 798.27 725.803 M 773.399 740.243 L 773.399 769.123 L 798.27 783.288 L 823.123 769.123 L 823.123 740.243 M 922.866 653.604 L 922.866 682.483 L 947.737 696.923 M 922.866 682.483 L 897.738 696.923 L 897.738 725.803 L 922.866 740.243 L 947.737 725.803 M 847.993 696.923 L 872.865 682.483 L 872.865 653.604 M 897.737 725.803 L 872.865 740.243 L 872.865 769.123 L 897.737 783.288 L 922.865 769.123 L 922.865 740.243 M 847.993 725.803 L 872.865 740.243 M 897.737 696.923 L 872.865 682.483 M 798.268 639.164 L 823.12 653.604 M 823.12 596.119 L 847.992 610.284 M 673.902 509.461 L 648.774 523.919 L 648.774 552.799 L 673.902 567.239 L 698.773 552.799 L 698.773 523.919 M 673.902 567.239 L 673.902 596.119 L 698.773 610.284 L 723.645 596.119 L 723.645 567.239 L 698.773 552.799 M 599.03 523.919 L 599.03 552.799 L 623.902 567.239 L 648.774 552.799 M 673.902 596.119 L 648.774 610.284 L 648.774 639.164 L 673.902 653.604 L 698.773 639.164 L 698.773 610.284 M 648.774 610.284 L 623.902 596.119 L 599.03 610.284 L 599.03 639.164 L 623.902 653.604 L 648.774 639.164 M 623.902 596.119 L 623.902 567.239 M 599.03 552.799 L 574.159 567.239 L 574.159 596.119 L 599.03 610.284 M 524.433 509.461 L 499.561 523.919 L 499.561 552.799 L 524.433 567.239 L 549.305 552.799 L 549.305 523.919 M 549.305 610.284 L 524.433 596.119 L 499.561 610.284 L 499.561 639.164 L 524.433 653.604 L 549.305 639.164 L 549.305 610.284 L 574.158 596.119 M 574.158 567.239 L 549.305 552.799 M 524.433 567.239 L 524.433 596.119 M 574.158 682.483 L 549.305 696.923 L 549.305 725.803 L 574.158 740.243 L 599.029 725.803 L 599.029 696.923 Z M 599.029 639.164 L 574.158 653.604 L 574.158 682.483 M 524.433 653.604 L 524.433 682.483 L 549.305 696.923 M 549.305 725.803 L 524.433 740.243 L 524.433 769.123 L 549.305 783.288 L 574.158 769.123 L 574.158 740.243 M 748.512 696.923 L 723.641 682.483 L 698.769 696.923 L 698.769 725.803 L 723.641 740.243 L 748.512 725.803 M 623.896 653.604 L 623.896 682.483 L 648.769 696.923 L 673.897 682.483 L 673.897 653.604 M 623.896 769.123 L 648.769 783.288 L 673.897 769.123 L 673.897 740.243 L 648.769 725.803 L 623.896 740.243 L 623.896 769.123 L 599.025 783.288 L 599.025 812.168 L 623.896 826.608 L 648.769 812.168 M 673.897 769.123 L 698.768 783.288 L 723.639 769.123 L 723.639 740.243 M 673.897 740.243 L 698.768 725.803 M 648.769 696.923 L 648.769 725.803 M 698.768 696.923 L 673.897 682.483 M 698.768 639.164 L 723.639 653.604 M 623.896 682.483 L 599.025 696.923 M 599.025 725.803 L 623.896 740.243 M 549.3 639.164 L 574.152 653.604 M 698.768 812.174 L 673.897 826.614 L 673.897 855.494 L 698.768 869.933 L 723.639 855.494 L 723.639 826.614 L 698.768 812.174 L 698.768 783.294 M 648.769 783.294 L 648.769 812.174 L 673.897 826.614 M 673.897 855.494 L 648.769 869.933 L 648.769 898.813 L 673.897 913.253 L 698.768 898.813 L 698.768 869.933 M 648.769 869.933 L 623.896 855.494 L 599.025 869.933 L 599.025 898.813 L 623.896 913.253 L 648.769 898.813 M 673.897 913.253 L 673.897 942.133 L 698.768 956.317 L 723.639 942.133 L 723.639 913.253 L 698.768 898.813 M 623.896 855.494 L 623.896 826.614 M 549.3 783.294 L 549.3 812.174 L 574.152 826.614 L 599.024 812.174 M 524.426 769.13 L 499.555 783.294 L 499.555 812.174 L 524.426 826.614 L 549.298 812.174 M 524.426 855.494 L 499.555 869.933 L 499.555 898.813 L 524.426 913.253 L 549.298 898.813 L 549.298 869.933 Z M 599.024 898.813 L 574.152 913.253 L 574.152 942.133 L 599.024 956.317 L 623.895 942.133 L 623.895 913.253 M 574.152 826.614 L 574.152 855.494 L 599.024 869.933 M 524.426 826.614 L 524.426 855.494 M 549.298 869.933 L 574.151 855.494 M 574.151 913.253 L 549.298 898.813 M 524.426 913.253 L 524.426 942.133 L 549.298 956.317 L 574.151 942.133 M 574.151 1028.517 L 574.151 999.637 L 549.298 985.197 L 524.426 999.637 L 524.426 1028.517 M 623.895 1028.517 L 623.895 999.637 L 599.024 985.197 L 574.152 999.637 M 549.3 985.197 L 549.3 956.317 M 599.024 985.197 L 599.024 956.317 M 623.895 999.637 L 648.767 985.197 L 648.767 956.317 L 623.895 942.133 M 673.895 942.133 L 648.767 956.317 M 673.895 1028.517 L 673.895 999.637 L 648.767 985.197 M 773.383 1028.517 L 773.383 999.637 L 748.511 985.197 L 723.639 999.637 L 723.639 1028.517 M 698.768 956.317 L 698.768 985.197 L 723.639 999.637 M 673.897 999.637 L 698.768 985.197 M 897.725 783.292 L 897.725 812.172 L 922.853 826.612 L 947.724 812.172 M 872.853 769.127 L 847.982 783.292 L 847.982 812.172 L 872.853 826.612 L 897.725 812.172 M 872.853 913.251 L 897.725 898.811 L 897.725 869.931 L 872.853 855.492 L 847.982 869.931 L 847.982 898.811 L 872.853 913.251 L 872.853 942.131 L 897.725 956.314 L 922.853 942.131 M 947.724 869.931 L 922.853 855.492 L 897.725 869.931 M 897.725 898.811 L 922.853 913.251 M 922.853 855.492 L 922.853 826.612 M 872.853 826.612 L 872.853 855.492 M 798.256 783.292 L 798.256 812.172 L 823.108 826.612 L 847.981 812.172 M 773.383 769.127 L 748.511 783.292 L 748.511 812.172 L 773.383 826.612 L 798.254 812.172 M 748.511 869.931 L 748.511 898.811 L 773.383 913.251 L 798.254 898.811 L 798.254 869.931 L 773.383 855.492 L 748.511 869.931 L 723.639 855.492 M 847.981 869.931 L 823.108 855.492 L 798.256 869.931 M 798.256 898.811 L 823.108 913.251 L 847.981 898.811 M 823.108 826.612 L 823.108 855.492 M 773.384 826.612 L 773.384 855.492 M 773.384 913.251 L 773.384 942.131 L 798.256 956.314 L 823.108 942.131 L 823.108 913.251 M 773.384 942.131 L 748.512 956.314 L 748.512 985.194 M 823.11 1028.514 L 823.11 999.634 L 798.257 985.194 L 773.386 999.634 M 798.257 985.194 L 798.257 956.314 M 823.11 942.131 L 847.982 956.314 L 872.853 942.131 M 847.982 956.314 L 847.982 985.194 L 872.853 999.634 L 897.725 985.194 L 897.725 956.314 M 872.853 999.634 L 872.853 1028.514 M 922.853 1028.514 L 922.853 999.634 L 897.725 985.194 M 823.11 999.634 L 847.982 985.194 M 748.512 610.283 L 723.641 596.118 M 723.641 567.238 L 748.512 552.798 M 723.641 913.247 L 748.512 898.807 M 723.641 826.608 L 748.512 812.168 M 748.512 783.288 L 723.641 769.123 M 847.982 783.288 L 823.11 769.123 M 599.022 783.288 L 574.151 769.123 M 748.506 956.314 L 723.634 942.131 M 922.842 999.634 L 947.713 985.194 M 947.713 783.289 L 922.842 769.124 M 972.586 509.462 L 947.713 523.921 M 748.506 523.921 L 723.634 509.462 M 847.975 523.921 L 823.103 509.462 M 1096.937 523.921 L 1072.065 509.462 M 648.77 523.921 L 623.898 509.462 M 1.646 4.866 L 1.646 33.746 L 26.518 48.186 L 51.389 33.746 L 51.389 4.866 M 51.389 33.746 L 76.517 48.186 L 101.389 33.746 L 101.389 4.866 M -48.1 4.866 L -48.1 33.746 L -23.228 48.186 L 1.643 33.746 M -23.228 77.066 L -48.1 91.249 L -48.1 120.129 L -23.228 134.568 L 1.643 120.129 L 1.643 91.249 Z M 1.643 120.129 L 26.515 134.568 L 51.387 120.129 L 51.387 91.249 L 26.515 77.066 L 1.643 91.249 M 51.387 120.129 L 76.515 134.568 L 101.386 120.129 L 101.386 91.249 L 76.515 77.066 L 51.387 91.249 M -23.228 48.186 L -23.228 77.066 M 26.515 48.186 L 26.515 77.066 M 76.515 48.186 L 76.515 77.066 M -72.974 48.186 L -48.102 33.746 M -48.102 91.249 L -72.974 77.066 M -72.974 221.213 L -48.102 206.773 L -48.102 177.893 L -72.974 163.453 M -72.974 134.573 L -48.102 120.134 M 26.513 163.453 L 1.64 177.893 L 1.64 206.773 L 26.513 221.213 L 51.384 206.773 L 51.384 177.893 L 26.513 163.453 L 26.513 134.573 M 51.384 206.773 L 76.512 221.213 L 101.383 206.773 L 101.383 177.893 L 76.512 163.453 L 51.384 177.893 M 76.512 134.573 L 76.512 163.453 M -23.231 134.573 L -23.231 163.453 L 1.64 177.893 M 1.64 206.773 L -23.231 221.213 L -23.231 250.093 L 1.64 264.258 L 26.513 250.093 L 26.513 221.213 M 76.512 221.213 L 76.512 250.093 L 101.383 264.258 L 126.255 250.093 L 126.255 221.213 L 101.383 206.773 M -23.232 163.453 L -48.104 177.893 M -48.104 206.773 L -23.232 221.213 M 51.383 293.138 L 26.511 307.578 L 26.511 336.457 L 51.383 350.897 L 76.511 336.457 L 76.511 307.578 Z M 76.511 250.093 L 51.383 264.258 L 51.383 293.138 M -23.232 250.093 L -48.104 264.258 L -48.104 293.138 L -23.232 307.578 L 1.639 293.138 L 1.639 264.258 M 1.639 350.897 L -23.232 336.457 L -48.104 350.897 L -48.104 379.777 L -23.232 394.217 L 1.639 379.777 L 1.639 350.897 L 26.511 336.457 M 51.383 350.897 L 51.383 379.777 L 76.511 394.217 L 101.382 379.777 L 101.382 350.897 L 76.511 336.457 M -23.232 307.578 L -23.232 336.457 M 26.511 307.578 L 1.639 293.138 M -72.976 307.578 L -48.105 293.138 M -48.105 350.897 L -72.976 336.457 M -72.976 480.579 L -48.105 466.139 L -48.105 437.259 L -72.976 423.094 M 51.383 437.259 L 51.383 466.139 L 76.511 480.579 L 101.382 466.139 L 101.382 437.259 L 76.511 423.094 Z M 76.511 394.214 L 76.511 423.094 M 51.383 379.774 L 26.511 394.214 L 26.511 423.094 L 51.383 437.259 M -23.232 394.214 L -23.232 423.094 L 1.639 437.259 L 26.511 423.094 M -23.232 480.579 L -23.232 509.459 L 1.639 523.917 L 26.511 509.459 L 26.511 480.579 L 1.639 466.139 Z M 76.511 480.579 L 76.511 509.459 L 101.382 523.917 L 126.253 509.459 L 126.253 480.579 L 101.382 466.139 M 26.511 480.579 L 51.383 466.139 M 1.639 437.259 L 1.639 466.139 M 1.639 379.774 L 26.511 394.214 M -23.232 423.094 L -48.104 437.259 M -48.104 466.139 L -23.232 480.579 M -72.975 394.214 L -48.104 379.774 M 51.384 264.255 L 26.513 250.091 M -48.102 264.255 L -72.974 250.091 M 449.813 4.864 L 449.813 33.744 L 474.685 48.184 L 499.556 33.744 M 400.087 4.864 L 400.087 33.744 L 424.94 48.184 L 449.812 33.744 M 424.94 77.064 L 400.087 91.248 L 400.087 120.128 L 424.94 134.567 L 449.812 120.128 L 449.812 91.248 L 424.94 77.064 L 424.94 48.184 M 499.555 91.248 L 474.683 77.064 L 449.812 91.248 M 474.683 77.064 L 474.683 48.184 M 350.342 4.864 L 350.342 33.744 L 375.214 48.184 L 400.086 33.744 M 300.343 4.864 L 300.343 33.744 L 325.471 48.184 L 350.342 33.744 M 300.343 91.248 L 300.343 120.128 L 325.471 134.567 L 350.342 120.128 L 350.342 91.248 L 325.471 77.064 L 300.343 91.248 L 275.471 77.064 L 250.6 91.248 M 400.088 91.248 L 375.217 77.064 L 350.345 91.248 M 325.473 48.184 L 325.473 77.064 M 375.217 48.184 L 375.217 77.064 M 400.088 120.128 L 375.217 134.567 L 375.217 163.447 L 400.088 177.887 L 424.941 163.447 L 424.941 134.567 M 350.343 120.128 L 375.216 134.567 M 375.216 163.447 L 350.343 177.887 L 350.343 206.767 L 375.216 221.207 L 400.087 206.767 L 400.087 177.887 M 300.344 120.128 L 275.473 134.567 L 275.473 163.447 L 300.344 177.887 L 325.472 163.447 L 325.472 134.567 M 350.343 206.767 L 325.472 221.207 L 325.472 250.087 L 350.343 264.251 L 375.216 250.087 L 375.216 221.207 M 300.344 177.887 L 300.344 206.767 L 325.472 221.207 M 350.343 177.887 L 325.472 163.447 M 449.813 120.128 L 474.685 134.567 L 499.556 120.128 M 474.685 163.447 L 449.813 177.887 L 449.813 206.767 L 474.685 221.207 L 499.556 206.767 L 499.556 177.887 L 474.685 163.447 L 474.685 134.567 M 424.941 163.447 L 449.813 177.887 M 449.813 206.767 L 424.941 221.207 L 424.941 250.087 L 449.813 264.251 L 474.685 250.087 L 474.685 221.207 M 424.941 221.207 L 400.088 206.767 M 250.6 4.862 L 250.6 33.742 L 275.471 48.182 L 300.343 33.742 M 200.855 4.862 L 200.855 33.742 L 225.726 48.182 L 250.599 33.742 M 200.855 91.245 L 200.855 120.125 L 225.726 134.564 L 250.599 120.125 L 250.599 91.245 L 225.726 77.062 L 200.855 91.245 L 175.984 77.062 L 151.112 91.245 M 275.471 48.182 L 275.471 77.062 M 225.728 48.182 L 225.728 77.062 M 151.114 4.862 L 151.114 33.742 L 175.985 48.182 L 200.856 33.742 M 101.387 33.742 L 126.259 48.182 L 151.112 33.742 M 101.387 120.125 L 126.259 134.564 L 151.112 120.125 L 151.112 91.245 L 126.259 77.062 L 101.387 91.245 M 175.985 48.182 L 175.985 77.062 M 126.26 48.182 L 126.26 77.062 M 151.114 120.125 L 175.985 134.564 L 200.856 120.125 M 175.985 134.564 L 175.985 163.444 L 200.856 177.884 L 225.728 163.444 L 225.728 134.564 M 175.985 163.444 L 151.114 177.884 L 151.114 206.764 L 175.985 221.204 L 200.856 206.764 L 200.856 177.884 M 101.387 177.884 L 126.259 163.444 L 126.259 134.564 M 175.984 221.204 L 175.984 250.084 L 200.855 264.249 L 225.726 250.084 L 225.726 221.204 L 200.855 206.764 M 151.112 177.884 L 126.259 163.444 M 126.259 221.204 L 151.112 206.764 M 250.6 120.125 L 275.471 134.564 M 275.471 163.444 L 250.6 177.884 L 250.6 206.764 L 275.471 221.204 L 300.343 206.764 M 225.728 250.084 L 250.6 264.249 L 275.471 250.084 L 275.471 221.204 M 225.728 163.444 L 250.6 177.884 M 225.728 221.204 L 250.6 206.764 M 250.6 264.249 L 250.6 293.129 L 275.471 307.569 L 300.343 293.129 L 300.343 264.249 L 275.471 250.084 M 200.856 264.249 L 200.856 293.129 L 225.728 307.569 L 250.6 293.129 M 200.856 379.768 L 225.728 394.208 L 250.6 379.768 L 250.6 350.888 L 225.728 336.448 L 200.856 350.888 L 200.856 379.768 L 175.985 394.208 L 175.985 423.088 M 250.6 379.768 L 275.471 394.208 L 300.343 379.768 L 300.343 350.888 L 275.471 336.448 L 250.6 350.888 M 275.471 307.569 L 275.471 336.448 M 225.728 307.569 L 225.728 336.448 M 175.985 250.084 L 151.114 264.249 L 151.114 293.129 L 175.985 307.569 L 200.856 293.129 M 101.387 264.249 L 101.387 293.129 L 126.259 307.569 L 151.112 293.129 M 101.387 379.768 L 126.259 394.208 L 151.112 379.768 L 151.112 350.888 L 126.259 336.448 L 101.387 350.888 M 200.856 350.888 L 175.985 336.448 L 151.114 350.888 M 126.26 307.569 L 126.26 336.448 M 175.985 307.569 L 175.985 336.448 M 151.114 437.252 L 151.114 466.132 L 175.985 480.572 L 200.856 466.132 L 200.856 437.252 L 175.985 423.088 L 151.114 437.252 L 126.26 423.088 L 101.389 437.252 M 126.26 394.208 L 126.26 423.088 M 175.985 480.572 L 175.985 509.452 L 200.856 523.91 L 225.728 509.452 L 225.728 480.572 L 200.856 466.132 M 126.259 480.572 L 151.112 466.132 M 275.471 394.208 L 275.471 423.088 L 300.343 437.252 L 325.471 423.088 L 325.471 394.208 L 300.343 379.768 M 275.471 423.088 L 250.6 437.252 L 250.6 466.132 L 275.471 480.572 L 300.343 466.132 L 300.343 437.252 M 250.6 437.252 L 225.728 423.088 L 200.856 437.252 M 225.728 394.208 L 225.728 423.088 M 275.471 480.572 L 275.471 509.452 L 300.343 523.91 L 325.471 509.452 L 325.471 480.572 L 300.343 466.132 M 225.728 480.572 L 250.6 466.132 M 151.112 379.768 L 175.984 394.208 M 449.817 264.249 L 449.817 293.129 L 474.689 307.569 L 499.56 293.129 M 449.817 293.129 L 424.945 307.569 L 424.945 336.448 L 449.817 350.888 L 474.689 336.448 L 474.689 307.569 M 424.945 336.448 L 400.092 350.888 L 400.092 379.768 L 424.945 394.208 L 449.817 379.768 L 449.817 350.888 M 499.56 350.888 L 474.689 336.448 M 350.347 264.249 L 350.347 293.129 L 375.22 307.569 L 400.091 293.129 L 400.091 264.249 L 375.22 250.084 M 300.348 293.129 L 325.476 307.569 L 350.347 293.129 M 325.476 394.208 L 350.347 379.768 L 350.347 350.888 L 325.476 336.448 L 300.348 350.888 M 400.091 350.888 L 375.22 336.448 L 350.347 350.888 M 325.476 307.569 L 325.476 336.448 M 375.22 307.569 L 375.22 336.448 M 400.091 379.768 L 375.22 394.208 L 375.22 423.088 L 400.091 437.252 L 424.944 423.088 L 424.944 394.208 M 375.22 423.088 L 350.347 437.252 L 350.347 466.132 L 375.22 480.572 L 400.091 466.132 L 400.091 437.252 M 375.22 480.572 L 375.22 509.452 L 400.091 523.91 L 424.944 509.452 L 424.944 480.572 L 400.091 466.132 M 350.347 437.252 L 325.476 423.088 M 325.476 480.572 L 350.347 466.132 M 474.689 423.088 L 449.817 437.252 L 449.817 466.132 L 474.689 480.572 L 499.56 466.132 L 499.56 437.252 L 474.689 423.088 L 474.689 394.208 L 449.817 379.768 M 449.817 437.252 L 424.945 423.088 M 424.945 480.572 L 449.817 466.132 M 424.945 509.452 L 449.817 523.91 L 474.689 509.452 L 474.689 480.572 M 474.689 394.208 L 499.56 379.768 M 350.349 379.768 L 375.221 394.208 M 424.945 307.569 L 400.092 293.129 M 151.112 264.249 L 126.259 250.084 M 499.557 264.249 L 474.686 250.084 M 325.475 250.084 L 300.347 264.249 M 424.944 250.084 L 400.091 264.249 M 76.525 307.569 L 101.397 293.129 M 449.816 523.905 L 449.816 552.785 L 474.687 567.225 L 499.559 552.785 M 449.816 552.785 L 424.944 567.225 L 424.944 596.105 L 449.816 610.269 L 474.687 596.105 L 474.687 567.225 M 424.944 596.105 L 400.091 610.269 L 400.091 639.149 L 424.944 653.589 L 449.816 639.149 L 449.816 610.269 M 499.559 610.269 L 474.687 596.105 M 400.09 523.905 L 400.09 552.785 L 424.942 567.225 M 400.09 552.785 L 375.218 567.225 L 375.218 596.105 L 400.09 610.269 M 375.218 567.225 L 350.346 552.785 L 325.475 567.225 L 325.475 596.105 L 350.346 610.269 L 375.218 596.105 M 350.346 552.785 L 350.346 523.905 L 325.475 509.447 M 300.347 523.905 L 300.347 552.785 L 325.475 567.225 M 325.475 596.105 L 300.347 610.269 L 300.347 639.149 L 325.475 653.589 L 350.346 639.149 L 350.346 610.269 M 350.346 696.908 L 350.346 725.788 L 375.218 740.228 L 400.09 725.788 L 400.09 696.908 L 375.218 682.469 L 350.346 696.908 L 325.475 682.469 L 300.347 696.908 L 300.347 725.788 L 325.475 740.228 L 350.346 725.788 M 400.09 639.149 L 375.218 653.589 L 375.218 682.469 M 325.475 653.589 L 325.475 682.469 M 300.347 725.788 L 275.475 740.228 L 275.475 769.108 L 300.347 783.273 L 325.475 769.108 L 325.475 740.228 M 375.218 740.228 L 375.218 769.108 L 400.09 783.273 L 424.942 769.108 L 424.942 740.228 L 400.09 725.788 M 474.687 682.469 L 449.816 696.908 L 449.816 725.788 L 474.687 740.228 L 499.559 725.788 L 499.559 696.908 L 474.687 682.469 L 474.687 653.589 L 449.816 639.149 M 424.944 653.589 L 424.944 682.469 L 449.816 696.908 M 424.944 740.228 L 449.816 725.788 M 424.944 769.108 L 449.816 783.273 L 474.687 769.108 L 474.687 740.228 M 350.346 639.149 L 375.218 653.589 M 424.942 682.469 L 400.09 696.908 M 474.687 653.589 L 499.559 639.149 M 275.471 509.447 L 250.6 523.905 L 250.6 552.785 L 275.471 567.225 L 300.343 552.785 M 200.855 523.905 L 200.855 552.785 L 225.726 567.225 L 250.599 552.785 M 200.855 552.785 L 175.984 567.225 L 175.984 596.105 L 200.855 610.269 L 225.726 596.105 L 225.726 567.225 M 175.984 596.105 L 151.112 610.269 L 151.112 639.149 L 175.984 653.589 L 200.855 639.149 L 200.855 610.269 M 300.343 610.269 L 275.471 596.105 L 250.6 610.269 L 250.6 639.149 L 275.471 653.589 L 300.343 639.149 M 275.471 567.225 L 275.471 596.105 M 225.728 596.105 L 250.6 610.269 M 175.985 509.447 L 151.114 523.905 L 151.114 552.785 L 175.985 567.225 M 101.387 552.785 L 76.516 567.225 L 76.516 596.105 L 101.387 610.269 L 126.259 596.105 L 126.259 567.225 L 101.387 552.785 L 101.387 523.905 M 101.387 610.269 L 101.387 639.149 L 126.259 653.589 L 151.112 639.149 M 151.112 610.269 L 126.259 596.105 M 126.259 567.225 L 151.112 552.785 M 151.112 696.907 L 151.112 725.786 L 175.984 740.226 L 200.855 725.786 L 200.855 696.907 L 175.984 682.467 Z M 175.984 653.587 L 175.984 682.467 M 126.259 653.587 L 126.259 682.467 L 151.112 696.907 M 126.259 682.467 L 101.387 696.907 L 101.387 725.786 L 126.259 740.226 L 151.112 725.786 M 101.387 725.786 L 76.516 740.226 L 76.516 769.106 L 101.387 783.27 L 126.259 769.106 L 126.259 740.226 M 175.984 740.226 L 175.984 769.106 L 200.855 783.27 L 225.726 769.106 L 225.726 740.226 L 200.855 725.786 M 275.47 653.587 L 275.47 682.467 L 300.341 696.907 M 275.47 682.467 L 250.599 696.907 L 250.599 725.786 L 275.47 740.226 M 250.599 696.907 L 225.726 682.467 L 200.855 696.907 M 250.599 639.147 L 225.726 653.587 L 225.726 682.467 M 225.726 740.226 L 250.599 725.786 M 200.855 639.147 L 225.726 653.587 M 200.855 783.27 L 200.855 812.15 L 225.726 826.59 L 250.599 812.15 L 250.599 783.27 L 225.726 769.106 M 250.599 812.15 L 275.47 826.59 L 300.341 812.15 L 300.341 783.27 M 200.854 898.789 L 225.725 913.229 L 250.597 898.789 L 250.597 869.91 L 225.725 855.47 L 200.854 869.91 Z M 250.597 898.789 L 275.469 913.229 L 300.34 898.789 L 300.34 869.91 L 275.469 855.47 L 250.597 869.91 M 275.469 826.59 L 275.469 855.47 M 225.725 826.59 L 225.725 855.47 M 101.385 783.27 L 101.385 812.15 L 126.256 826.59 L 151.11 812.15 L 151.11 783.27 L 126.256 769.106 M 151.11 812.15 L 175.981 826.59 L 200.852 812.15 M 101.383 812.15 L 76.512 826.59 L 76.512 855.47 L 101.383 869.91 L 126.255 855.47 L 126.255 826.59 M 76.512 855.47 L 51.384 869.91 L 51.384 898.789 L 76.512 913.229 L 101.383 898.789 L 101.383 869.91 M 76.512 913.229 L 76.512 942.109 L 101.383 956.293 L 126.255 942.109 L 126.255 913.229 L 101.383 898.789 M 200.852 869.91 L 175.981 855.47 L 151.11 869.91 L 151.11 898.789 L 175.981 913.229 L 200.852 898.789 M 175.981 826.59 L 175.981 855.47 M 126.256 913.229 L 151.11 898.789 M 151.11 869.91 L 126.256 855.47 M 151.11 956.293 L 151.11 985.173 L 175.981 999.613 L 200.852 985.173 L 200.852 956.293 L 175.981 942.109 L 151.11 956.293 L 126.256 942.109 M 101.385 956.293 L 101.385 985.173 L 126.256 999.613 L 151.11 985.173 M 126.256 999.613 L 126.256 1028.493 M 175.981 999.613 L 175.981 1028.493 M 225.724 913.229 L 225.724 942.109 L 250.596 956.293 L 275.467 942.109 L 275.467 913.229 M 200.852 956.293 L 225.724 942.109 M 200.852 985.173 L 225.724 999.613 L 250.596 985.173 L 250.596 956.293 M 225.724 999.613 L 225.724 1028.493 M 275.467 1028.493 L 275.467 999.613 L 250.596 985.173 M 175.981 913.229 L 175.981 942.109 M 449.815 783.274 L 449.815 812.154 L 474.686 826.594 L 499.557 812.154 M 400.088 783.274 L 400.088 812.154 L 424.941 826.594 L 449.813 812.154 M 424.941 855.474 L 400.088 869.914 L 400.088 898.793 L 424.941 913.233 L 449.813 898.793 L 449.813 869.914 L 424.941 855.474 L 424.941 826.594 M 499.556 869.914 L 474.685 855.474 L 449.813 869.914 M 449.813 898.793 L 474.685 913.233 L 499.556 898.793 M 474.685 855.474 L 474.685 826.594 M 375.216 769.11 L 350.343 783.274 L 350.343 812.154 L 375.216 826.594 L 400.087 812.154 M 300.344 812.154 L 325.472 826.594 L 350.343 812.154 M 300.344 898.793 L 325.472 913.233 L 350.343 898.793 L 350.343 869.914 L 325.472 855.474 L 300.344 869.914 M 400.087 898.793 L 375.216 913.233 L 375.216 942.113 L 400.087 956.297 L 424.94 942.113 L 424.94 913.233 M 400.087 869.914 L 375.216 855.474 L 350.343 869.914 M 375.216 913.233 L 350.343 898.793 M 325.472 855.474 L 325.472 826.594 M 375.216 826.594 L 375.216 855.474 M 325.472 913.233 L 325.472 942.113 L 350.343 956.297 L 375.216 942.113 M 275.473 942.113 L 300.344 956.297 L 325.472 942.113 M 300.344 956.297 L 300.344 985.177 L 325.472 999.617 L 350.343 985.177 L 350.343 956.297 M 325.472 999.617 L 325.472 1028.497 M 424.941 1028.497 L 424.941 999.617 L 400.088 985.177 L 375.217 999.617 L 375.217 1028.497 M 375.217 999.617 L 350.345 985.177 M 400.088 956.297 L 400.088 985.177 M 474.686 942.113 L 449.815 956.297 L 449.815 985.177 L 474.686 999.617 L 499.557 985.177 L 499.557 956.297 L 474.686 942.113 L 474.686 913.233 M 424.942 942.113 L 449.815 956.297 M 449.815 985.177 L 424.942 999.617 M 474.686 1028.497 L 474.686 999.617 M 275.478 999.617 L 300.349 985.177 M 175.99 769.114 L 151.119 783.278 M 275.478 769.114 L 250.607 783.278 M 350.349 783.278 L 325.477 769.114 M 499.568 783.278 L 474.697 769.114 M 1.655 523.914 L 1.655 552.794 L 26.526 567.234 L 51.399 552.794 L 51.399 523.914 L 26.526 509.456 M 51.399 552.794 L 76.527 567.234 M -23.216 509.456 L -48.088 523.914 L -48.088 552.794 L -23.216 567.234 L 1.655 552.794 M 1.655 610.279 L -23.216 596.114 L -48.088 610.279 L -48.088 639.159 L -23.216 653.599 L 1.655 639.159 Z M 1.655 639.159 L 26.526 653.599 L 51.399 639.159 L 51.399 610.279 L 26.526 596.114 L 1.655 610.279 M 76.527 596.114 L 51.399 610.279 M -23.216 567.234 L -23.216 596.114 M 26.526 596.114 L 26.526 567.234 M -72.961 567.234 L -48.089 552.794 M -48.089 610.279 L -72.961 596.114 M -72.961 740.235 L -48.089 725.795 L -48.089 696.915 L -72.961 682.476 M 26.526 653.596 L 26.526 682.476 L 51.399 696.915 L 76.527 682.476 L 76.527 653.596 L 51.399 639.156 M -23.216 653.596 L -23.216 682.476 L 1.655 696.915 L 26.526 682.476 M -23.216 769.115 L 1.655 783.28 L 26.526 769.115 L 26.526 740.235 L 1.655 725.795 L -23.216 740.235 L -23.216 769.115 L -48.088 783.28 M 26.526 740.235 L 51.399 725.795 L 51.399 696.915 M 51.399 725.795 L 76.527 740.235 M 1.655 696.915 L 1.655 725.795 M -72.961 653.596 L -48.089 639.156 M -23.218 682.476 L -48.089 696.915 M -48.089 725.795 L -23.218 740.235 M 1.654 783.28 L 1.654 812.16 L 26.525 826.6 L 51.397 812.16 L 51.397 783.28 L 26.525 769.115 M 51.397 812.16 L 76.525 826.6 M 1.654 812.16 L -23.218 826.6 L -23.218 855.48 L 1.654 869.92 L 26.525 855.48 L 26.525 826.6 M -23.218 855.48 L -48.089 869.92 L -48.089 898.799 L -23.218 913.239 L 1.654 898.799 L 1.654 869.92 M 1.654 898.799 L 26.525 913.239 L 51.397 898.799 M 51.397 869.92 L 26.525 855.48 M -72.962 826.6 L -48.09 812.16 L -48.09 783.28 L -72.962 769.115 M -72.962 913.236 L -48.09 898.796 M -48.09 869.917 L -72.962 855.477 M -72.962 999.625 L -48.09 985.185 L -48.09 956.305 L -72.962 942.121 M 76.527 942.121 L 51.399 956.305 L 51.399 985.185 L 76.527 999.625 L 101.398 985.185 M 51.399 956.305 L 26.526 942.121 L 1.655 956.305 L 1.655 985.185 L 26.526 999.625 L 51.399 985.185 M -23.216 913.241 L -23.216 942.121 L 1.655 956.305 M 1.655 985.185 L -23.216 999.625 L -23.216 1028.505 M 76.527 1028.505 L 76.527 999.625 M 26.526 1028.505 L 26.526 999.625 M 26.526 942.121 L 26.526 913.241 M -48.088 812.162 L -23.216 826.602 M -23.216 942.121 L -48.088 956.305 M -48.088 985.185 L -23.216 999.625 M 76.527 769.112 L 51.399 783.277 M 101.398 696.912 L 76.527 682.473 M 76.527 653.593 L 101.398 639.153 M 151.123 523.909 L 126.269 509.451 M -48.085 523.909 L -72.957 509.451 M 76.532 509.451 L 51.404 523.909 M 375.234 509.451 L 350.362 523.909 M 225.746 509.451 L 250.619 523.909 M 499.572 523.909 L 474.701 509.451 M 499.572 206.759 L 524.443 221.199 M 524.443 163.439 L 499.572 177.879 M 499.572 725.796 L 524.443 740.236 M 524.443 682.477 L 499.572 696.916 M 524.443 942.116 L 499.572 956.299 M 499.572 985.179 L 524.443 999.619 M 499.572 466.124 L 524.443 480.564 M 524.443 423.08 L 499.572 437.244" clip-path="url(#a)" fill="none" stroke="#989898" stroke-linecap="square" stroke-width="2" style="visibility: hidden;"/>
    <g id="sonarr-group-details">
      <g id="sonarr-group-shapes" fill="none" stroke="#35C6F4">
        <path id="path-1" d="M 683.1 340.901 L 763.106 260.901 M 340.9 683.1 L 260.894 763.1 M 340.9 340.9 L 260.9 260.894 M 683.1 683.1 L 763.1 763.106" style="stroke-width: 30; stroke: rgb(48, 48, 48);"/>
        <path id="path-2" d="M 762.999 763 L 871.999 872 M 763 261 L 872 152 M 260.999 763 L 152 872 M 260.999 261 L 152 152" style="stroke-width: 8; stroke: rgb(48, 48, 48);"/>
      </g>
      <circle id="sonarr-group-center" cx="512" cy="512" r="150" style="fill: rgb(48, 48, 48);"/>
    </g>
  </g>
</svg>