<?xml version="1.0" encoding="utf-8"?>
<svg width="1024" height="1024" version="1.1" viewBox="0 0 1024 1024" xmlns="http://www.w3.org/2000/svg">
  <g id="sonarr-group-logo">
    <circle id="sonarr-outline" cx="512" cy="512" r="509" style="fill:#efeeee"/>
    <path id="sonarr-black" d="M 257.667 179.205 C 257.667 179.205 369.3 275 512 275 C 654.7 275 766.335 179.2 766.335 179.2 L 830.553 114.982 C 859.466 138.211 885.788 164.533 909.017 193.446 L 844.796 257.667 C 844.796 257.667 749 369.3 749 512 C 749 654.7 844.801 766.335 844.801 766.335 L 909.019 830.553 C 885.79 859.466 859.468 885.788 830.554 909.017 L 766.333 844.796 C 766.333 844.796 654.7 749 512 749 C 369.3 749 257.665 844.801 257.665 844.801 L 193.447 909.019 C 164.534 885.79 138.212 859.468 114.983 830.554 L 179.204 766.333 C 179.204 766.333 275 654.7 275 512 C 275 369.3 179.199 257.665 179.199 257.665 L 114.981 193.447 C 138.21 164.534 164.532 138.212 193.445 114.983 L 257.667 179.205 Z"/>
    <g id="sonarr-group-details">
      <g id="sonarr-group-shapes" fill="none" stroke="#35C6F4">
        <path id="path-1" d="M 683.1 340.901 L 763.106 260.901 M 340.9 683.1 L 260.894 763.1 M 340.9 340.9 L 260.9 260.894 M 683.1 683.1 L 763.1 763.106" style="stroke-width:30"/>
        <path id="path-2" d="M 762.999 763 L 871.999 872 M 763 261 L 872 152 M 260.999 763 L 152 872 M 260.999 261 L 152 152" style="stroke-width:8"/>
      </g>
      <circle id="sonarr-group-center" cx="512" cy="512" r="150" style="fill:#35c6f4"/>
    </g>
  </g>
</svg>