<svg version="1" xmlns="http://www.w3.org/2000/svg" width="933.333" height="933.333" viewBox="0 0 700 700" preserveAspectRatio="xMidYMid meet"><metadata>Created by potrace 1.11, written by Peter Selinger 2001-2013</metadata><g fill="#000" stroke="none"><path d="M1220 6126 c-52 -46 -110 -99 -127 -117 l-33 -35 370 -369 369 -369 24 22 c13 12 27 22 33 22 5 0 129 -120 276 -267 l268 -268 -72 -72 -73 -73 -267 267 c-148 147 -268 272 -268 277 0 5 10 20 22 33 l22 24 -369 369 -370 370 -48 -48 c-27 -26 -80 -84 -119 -130 l-71 -83 234 -237 c158 -159 256 -267 299 -329 397 -567 595 -1202 551 -1770 -13 -175 -37 -314 -82 -477 -90 -329 -256 -675 -469 -979 -43 -62 -141 -170 -299 -329 l-234 -237 71 -83 c39 -46 92 -104 119 -130 l48 -48 370 370 369 369 -22 24 c-12 13 -22 28 -22 33 0 5 120 130 268 277 l267 267 73 -73 72 -72 -268 -268 c-147 -147 -271 -267 -276 -267 -6 0 -20 10 -33 22 l-24 22 -369 -369 -370 -370 48 -48 c26 -27 84 -80 130 -119 l83 -71 237 234 c159 158 267 256 329 299 567 397 1202 595 1770 551 175 -13 314 -37 477 -82 329 -90 675 -256 979 -469 62 -43 170 -141 329 -299 l237 -234 83 71 c46 39 104 92 130 119 l48 48 -370 370 -369 369 -24 -22 c-13 -12 -27 -22 -33 -22 -5 0 -129 120 -276 267 l-268 268 72 72 73 73 267 -267 c148 -147 268 -272 268 -277 0 -5 -10 -20 -22 -33 l-22 -24 369 -369 370 -370 48 48 c27 26 80 84 119 130 l71 83 -234 237 c-158 159 -256 267 -299 329 -213 304 -379 650 -469 979 -117 427 -117 841 0 1268 90 329 256 675 469 979 43 62 141 170 299 329 l234 237 -71 83 c-39 46 -92 104 -119 130 l-48 48 -370 -370 -369 -369 22 -24 c12 -13 22 -27 22 -33 0 -5 -120 -129 -267 -276 l-268 -268 -72 72 -73 73 267 267 c147 148 272 268 277 268 5 0 20 -10 33 -22 l24 -22 369 369 370 370 -48 48 c-26 27 -84 80 -130 119 l-83 71 -237 -234 c-159 -158 -267 -256 -329 -299 -304 -213 -650 -379 -979 -469 -427 -117 -841 -117 -1268 0 -329 90 -675 256 -979 469 -62 43 -170 141 -327 297 -130 128 -238 233 -240 233 -3 0 -48 -38 -100 -84z m2527 -1635 c189 -49 337 -134 474 -270 136 -137 219 -282 271 -474 19 -69 22 -108 22 -247 0 -139 -3 -178 -22 -247 -52 -192 -135 -337 -271 -474 -137 -136 -282 -219 -474 -271 -119 -32 -375 -32 -494 0 -192 52 -337 135 -474 271 -136 137 -219 282 -271 474 -32 119 -32 375 0 494 52 192 135 337 271 474 136 136 288 223 469 268 112 28 123 29 277 27 104 -2 161 -9 222 -25z" transform="translate(0.000000,700.000000) scale(0.100000,-0.100000)"/></g></svg>